<?xml version="1.0" encoding="utf-8"?>
<!-- Generator: Adobe Illustrator 24.0.2, SVG Export Plug-In . SVG Version: 6.00 Build 0)  -->
<svg version="1.1" id="Camada_1" xmlns="http://www.w3.org/2000/svg" xmlns:xlink="http://www.w3.org/1999/xlink" x="0px" y="0px"
	 viewBox="0 0 1683.8 2383.9" style="enable-background:new 0 0 1683.8 2383.9;" xml:space="preserve">
<style type="text/css">
	.st0{fill:#613648;}
	.st1{fill:#512A3B;}
	.st2{fill:#723E55;}
	.st3{fill:#F9BF8F;}
	.st4{fill:#FFDBC0;}
	.st5{fill:#F38B67;}
	.st6{fill:#FFE7E1;}
	.st7{fill:#FFF3F0;}
	.st8{fill:url(#SVGID_1_);}
	.st9{fill:url(#SVGID_2_);fill-opacity:0;}
	.st10{opacity:6.000000e-02;fill:url(#SVGID_3_);enable-background:new    ;}
	.st11{opacity:0.13;fill:url(#SVGID_4_);enable-background:new    ;}
	.st12{opacity:0.19;fill:url(#SVGID_5_);enable-background:new    ;}
	.st13{opacity:0.25;fill:url(#SVGID_6_);enable-background:new    ;}
	.st14{opacity:0.32;fill:url(#SVGID_7_);enable-background:new    ;}
	.st15{opacity:0.38;fill:url(#SVGID_8_);enable-background:new    ;}
	.st16{opacity:0.45;fill:url(#SVGID_9_);enable-background:new    ;}
	.st17{opacity:0.51;fill:url(#SVGID_10_);enable-background:new    ;}
	.st18{opacity:0.57;fill:url(#SVGID_11_);enable-background:new    ;}
	.st19{opacity:0.64;fill:url(#SVGID_12_);enable-background:new    ;}
	.st20{opacity:0.7;fill:url(#SVGID_13_);enable-background:new    ;}
	.st21{opacity:0.3;fill:#FFFFFF;enable-background:new    ;}
	.st22{fill:#FFFFFF;}
	.st23{opacity:0.1;fill:#E76266;enable-background:new    ;}
	.st24{fill:#3A1B2B;}
	.st25{fill:#422030;}
	.st26{fill:url(#SVGID_14_);}
	.st27{fill:#A31F45;}
</style>
<title>person really</title>
<path class="st0" d="M897.9,67.8c116.7,6.1,236.3,75.1,335.4,196.1c98.1,120,136.3,145.7,199.7,195.1
	c63.4,49.4,129.6,101.8,134.3,206.2s-37.8,169.6-96.6,210c0,0,254.7,171.9,162.1,446.4c-90.3,268.1-371.4,284.4-371.4,284.4
	s-162.9,148.1-469.3,89.3s-316.6-141.1-316.6-141.1S313,1556.1,253,1384c-52.9-151.8,60.2-260.6,82.2-348
	c23.6-92.8-34.7-303.6-34.7-303.6S329.3,414.3,592,275.5S897.9,67.8,897.9,67.8z"/>
<path class="st1" d="M1331.8,1592.1c136.5-63.6,161.4-211.2,12.5-314.9c-148.9-103.7-179.4-205.6-175.4-329.6l-829.7-11.1
	c3.3,37.6,3.1,73.2-3.4,99.3c-22.2,87.4-135.3,196.2-82.2,348c60,172.1,222.5,170.2,222.5,170.2s10.3,82.2,316.8,141.1
	s469.3-89.3,469.3-89.3s28.6-1.7,70.1-12.6L1331.8,1592.1z"/>
<path class="st2" d="M1397.7,990.2c-2.7,54.6,108.1,86.6,140.1,276.7s-139.9,304-140.1,304.1c85.1-35.6,187-106.9,235.2-249.5
	c55.2-163.9-13.4-291.3-77.6-367.2C1461.5,890.1,1400.2,935.5,1397.7,990.2z"/>
<path class="st3" d="M1201.1,752.7c0,0,54.8-79.9,133-24.1c35.5,25.3,69.8,120,0,205.1c-69.8,85.1-162.5,52.9-165.2,14L1201.1,752.7
	z"/>
<path class="st4" d="M1334.1,728.4c-21.5-15.3-41.2-20.3-58.6-19.7c9,0.8,51.7,7.3,72.3,68c18,53.1,12.8,107.1-13.8,156.8
	C1403.9,848.3,1369.6,753.7,1334.1,728.4z"/>
<path class="st5" d="M1325.1,808.1c0,0-13.4-33.3-47-31.2c-33.5,2.1-51,34.7-55.6,61.3c0,0,41.2-5.4,42.4,35.3
	c1.1,36.2-34.7,48.9-49.4,40.2c0,0,2.7,20.3,37.4,22.6C1294.8,939.4,1351.2,885.3,1325.1,808.1z"/>
<path class="st3" d="M633.8,1277.3c0,76.1,3.4,164.6,0,211.2c-3.4,46.6-54.8,39.9-119.4,29.3c-67.3-11.1-195.5-45.8-296.7,125.1
	c-107.9,182.5-194.5,328.7-194.5,328.7s262.4,126.3,769.3,126.3s769.3-126.3,769.3-126.3s-86.6-146.2-194.5-328.7
	c-101.2-171-229.4-136.3-296.7-125.1c-64.8,10.7-115.9,17.2-119.4-29.3c-3.4-46.6,0-135.1,0-211.2H633.8z"/>
<path class="st5" d="M581.9,1574.7c-37.4,65.4-82.8,181.5-88.9,224.6c-6.1,43.1,44.5,70.3,44.5,70.3s-114.2-6.9-107.7-31.8
	C436.2,1812.9,581.9,1574.7,581.9,1574.7z"/>
<path class="st5" d="M1003.1,1574.7c37.4,65.4,82.8,181.5,88.9,224.6c6.1,43.1-44.5,70.3-44.5,70.3s114.2-6.9,107.7-31.8
	S1003.1,1574.7,1003.1,1574.7z"/>
<path class="st5" d="M258.4,2044l103.7-258.9c0,0-131.5,156-165,244.4C215.8,2034.5,236.3,2039.3,258.4,2044z"/>
<path class="st5" d="M1326.8,2044l-103.7-258.9c0,0,131.5,156,165,244.4C1369.2,2034.5,1348.7,2039.3,1326.8,2044z"/>
<path class="st5" d="M950.8,1332.4c0.2-18.6,0.4-37.2,0.4-55.2H633.8c0,66.7,2.7,143,1,192.2l0,0
	C891.2,1467.8,950.8,1332.6,950.8,1332.4z"/>
<path class="st6" d="M616,1518.9L616,1518.9c-14.9,8-38.3,7.9-66.3,4.2c-7.9,8.6-234,255.5-291.5,521.1
	c127.4,28.2,305.9,53.9,534.3,53.9s406.9-25.9,534.3-53.9c-57.5-265.6-283.6-512.5-291.5-521.1c-28,3.4-51.4,3.8-66.3-4.2l0,0
	c33,50.4,119.4,201.6,138.2,254.1c18.8,52.5,24.9,63.2-34.5,76.3c-59.4,13-110,21.8-165.2,53.1c-40.6,23-86.1,45.8-115,45.8
	c-28.9,0-74.2-22.8-115-45.8c-55.2-31.2-105.6-39.9-165.2-53.1s-53.3-23.8-34.5-76.3C496.6,1720.5,583.2,1569.3,616,1518.9z"/>
<path class="st4" d="M1107.2,1511.6L1107.2,1511.6c40.2-4,137,12.5,198.4,97.5c61.3,85.1,225,375.3,225.2,375.4l0.4-0.2l30.7-12.8
	c0,0-86.6-146.2-194.5-328.7C1282.4,1499.2,1178.3,1500.9,1107.2,1511.6z"/>
<path class="st7" d="M940.3,2094.1c158.9-8,287.9-28.2,386.4-50c-57.5-265.6-283.6-512.5-291.5-521.1c0,0,151.2,220.4,180.3,337.7
	C1244.6,1976.8,1116.8,2083.3,940.3,2094.1z"/>
<path class="st3" d="M792.5,1332.4c-102.9,0-223.5-80.3-303.6-208.5S382.8,804.3,382.8,713.4c0-226.3,183.6-409.9,409.9-409.9
	s409.7,183.6,409.7,409.9c0,90.8-26.3,282.3-106.4,410.5S895.4,1332.4,792.5,1332.4z"/>
<path class="st5" d="M608.7,392c0,0,24,165.8-75.3,269.1s-149.3,91.6-149.3,91.6L608.7,392z"/>
<path class="st5" d="M608.7,367.3c0,0,56.5,86.8,173.3,141.6c120.7,56.5,346.3,82.8,375.1,166.9c0,0,0-104.8-175.7-188.2
	C850.6,425.4,608.7,367.3,608.7,367.3z"/>
<path class="st4" d="M1170.8,818.1c-14.8,193.4-119.2,354.9-181.5,411.9c-60.2,55.2-123.4,85.5-181.7,102
	c99.5-7.3,212.2-85.9,288.4-207.7c47.5-75.9,75.9-174,91.2-260.3l13.8-111v-0.2L1170.8,818.1z"/>
<linearGradient id="SVGID_1_" gradientUnits="userSpaceOnUse" x1="792.5009" y1="843.5876" x2="792.5009" y2="1001.0661">
	<stop  offset="0" style="stop-color:#F9BB87"/>
	<stop  offset="1" style="stop-color:#E76266"/>
</linearGradient>
<path class="st8" d="M862.3,950.7c-10-23.8-41.8-145.5-69.8-145.5s-59.8,121.7-69.8,145.5c-10,23.8,3.1,32.6,3.1,32.6l13.8-2.3
	c0,0,35.5,28.2,52.9,28.2s52.9-28.2,52.9-28.2l13.8,2.3C859.2,983.3,872.2,974.4,862.3,950.7z"/>
<linearGradient id="SVGID_2_" gradientUnits="userSpaceOnUse" x1="792.501" y1="928.4501" x2="792.501" y2="992.4992">
	<stop  offset="0" style="stop-color:#F4A47E"/>
	<stop  offset="0.23" style="stop-color:#F29B7B"/>
	<stop  offset="0.62" style="stop-color:#ED8272"/>
	<stop  offset="1" style="stop-color:#E76266"/>
</linearGradient>
<path class="st9" d="M756.5,952.6c0-21.8,16.1-39.7,36-39.7c19.9,0,36,17.8,36,39.7c0,21.8-16.1,43.3-36,43.3
	C772.6,995.9,756.5,974.4,756.5,952.6z"/>
<linearGradient id="SVGID_3_" gradientUnits="userSpaceOnUse" x1="792.501" y1="931.6697" x2="792.501" y2="992.1735">
	<stop  offset="0" style="stop-color:#F4A47E"/>
	<stop  offset="0.23" style="stop-color:#F29B7B"/>
	<stop  offset="0.62" style="stop-color:#ED8272"/>
	<stop  offset="1" style="stop-color:#E76266"/>
</linearGradient>
<path class="st10" d="M758.4,954.5c0-20.7,15.3-37.6,34.1-37.6c18.8,0,34.1,16.9,34.1,37.6s-15.3,40.8-34.1,40.8
	C773.7,995.3,758.4,975.2,758.4,954.5z"/>
<linearGradient id="SVGID_4_" gradientUnits="userSpaceOnUse" x1="792.501" y1="934.8895" x2="792.501" y2="991.8477">
	<stop  offset="0" style="stop-color:#F4A47E"/>
	<stop  offset="0.23" style="stop-color:#F29B7B"/>
	<stop  offset="0.62" style="stop-color:#ED8272"/>
	<stop  offset="1" style="stop-color:#E76266"/>
</linearGradient>
<path class="st11" d="M760.3,956.4c0-19.5,14.4-35.5,32.2-35.5c17.8,0,32.2,15.9,32.2,35.5s-14.4,38.3-32.2,38.3
	C774.7,994.8,760.3,976,760.3,956.4z"/>
<linearGradient id="SVGID_5_" gradientUnits="userSpaceOnUse" x1="792.501" y1="938.1091" x2="792.501" y2="991.5218">
	<stop  offset="0" style="stop-color:#F4A47E"/>
	<stop  offset="0.23" style="stop-color:#F29B7B"/>
	<stop  offset="0.62" style="stop-color:#ED8272"/>
	<stop  offset="1" style="stop-color:#E76266"/>
</linearGradient>
<path class="st12" d="M762.2,958.3c0-18.4,13.6-33.3,30.3-33.3s30.3,14.9,30.3,33.3s-13.6,35.8-30.3,35.8S762.2,976.7,762.2,958.3z"
	/>
<linearGradient id="SVGID_6_" gradientUnits="userSpaceOnUse" x1="792.501" y1="941.3289" x2="792.501" y2="991.1961">
	<stop  offset="0" style="stop-color:#F4A47E"/>
	<stop  offset="0.23" style="stop-color:#F29B7B"/>
	<stop  offset="0.62" style="stop-color:#ED8272"/>
	<stop  offset="1" style="stop-color:#E76266"/>
</linearGradient>
<path class="st13" d="M764.1,960.3c0-17.2,12.6-31.2,28.4-31.2c15.7,0,28.4,14,28.4,31.2s-12.6,33.3-28.4,33.3
	C776.8,993.6,764.1,977.5,764.1,960.3z"/>
<linearGradient id="SVGID_7_" gradientUnits="userSpaceOnUse" x1="792.6927" y1="944.5485" x2="792.6927" y2="990.8702">
	<stop  offset="0" style="stop-color:#F4A47E"/>
	<stop  offset="0.23" style="stop-color:#F29B7B"/>
	<stop  offset="0.62" style="stop-color:#ED8272"/>
	<stop  offset="1" style="stop-color:#E76266"/>
</linearGradient>
<path class="st14" d="M766.2,962.2c0-16.1,11.9-28.9,26.4-28.9c14.6,0,26.4,13,26.4,28.9c0,15.9-11.9,31-26.4,31
	C778.1,993.2,766.2,978.3,766.2,962.2z"/>
<linearGradient id="SVGID_8_" gradientUnits="userSpaceOnUse" x1="792.6927" y1="947.7682" x2="792.6927" y2="990.5443">
	<stop  offset="0" style="stop-color:#F4A47E"/>
	<stop  offset="0.23" style="stop-color:#F29B7B"/>
	<stop  offset="0.62" style="stop-color:#ED8272"/>
	<stop  offset="1" style="stop-color:#E76266"/>
</linearGradient>
<path class="st15" d="M768.2,964.3c0-14.9,10.9-26.8,24.5-26.8c13.6,0,24.5,12.1,24.5,26.8c0,14.8-10.9,28.6-24.5,28.6
	C779.1,992.8,768.2,979,768.2,964.3z"/>
<linearGradient id="SVGID_9_" gradientUnits="userSpaceOnUse" x1="792.6927" y1="950.9881" x2="792.6927" y2="990.2187">
	<stop  offset="0" style="stop-color:#F4A47E"/>
	<stop  offset="0.23" style="stop-color:#F29B7B"/>
	<stop  offset="0.62" style="stop-color:#ED8272"/>
	<stop  offset="1" style="stop-color:#E76266"/>
</linearGradient>
<path class="st16" d="M770.1,966.2c0-13.6,10.2-24.7,22.6-24.7c12.5,0,22.6,11.1,22.6,24.7c0,13.6-10.2,26.1-22.6,26.1
	C780.2,992.3,770.1,979.8,770.1,966.2z"/>
<linearGradient id="SVGID_10_" gradientUnits="userSpaceOnUse" x1="792.501" y1="954.2076" x2="792.501" y2="989.8928">
	<stop  offset="0" style="stop-color:#F4A47E"/>
	<stop  offset="0.23" style="stop-color:#F29B7B"/>
	<stop  offset="0.62" style="stop-color:#ED8272"/>
	<stop  offset="1" style="stop-color:#E76266"/>
</linearGradient>
<path class="st17" d="M772,968.1c0-12.5,9.2-22.6,20.5-22.6s20.5,10.2,20.5,22.6c0,12.5-9.2,23.6-20.5,23.6S772,980.6,772,968.1z"/>
<linearGradient id="SVGID_11_" gradientUnits="userSpaceOnUse" x1="792.501" y1="957.4275" x2="792.501" y2="989.5861">
	<stop  offset="0" style="stop-color:#F4A47E"/>
	<stop  offset="0.23" style="stop-color:#F29B7B"/>
	<stop  offset="0.62" style="stop-color:#ED8272"/>
	<stop  offset="1" style="stop-color:#E76266"/>
</linearGradient>
<path class="st18" d="M773.9,970c0-11.3,8.2-20.5,18.6-20.5s18.6,9.2,18.6,20.5s-8.2,21.1-18.6,21.1S773.9,981.3,773.9,970z"/>
<linearGradient id="SVGID_12_" gradientUnits="userSpaceOnUse" x1="792.501" y1="960.647" x2="792.501" y2="989.2604">
	<stop  offset="0" style="stop-color:#F4A47E"/>
	<stop  offset="0.23" style="stop-color:#F29B7B"/>
	<stop  offset="0.62" style="stop-color:#ED8272"/>
	<stop  offset="1" style="stop-color:#E76266"/>
</linearGradient>
<path class="st19" d="M775.8,972c0-10.2,7.5-18.4,16.7-18.4s16.7,8.2,16.7,18.4s-7.5,18.8-16.7,18.8S775.8,982.1,775.8,972z"/>
<linearGradient id="SVGID_13_" gradientUnits="userSpaceOnUse" x1="792.501" y1="963.8669" x2="792.501" y2="988.9346">
	<stop  offset="0" style="stop-color:#F4A47E"/>
	<stop  offset="0.23" style="stop-color:#F29B7B"/>
	<stop  offset="0.62" style="stop-color:#ED8272"/>
	<stop  offset="1" style="stop-color:#E76266"/>
</linearGradient>
<path class="st20" d="M777.7,974.1c0-9,6.7-16.3,14.8-16.3s14.8,7.3,14.8,16.3c0,9-6.7,16.3-14.8,16.3S777.7,982.9,777.7,974.1z"/>
<path class="st21" d="M827.6,953.7c1.3,5.2-1,10.3-5.2,11.5s-8.8-2.1-10.2-7.3c-1.3-5.2,1-10.3,5.2-11.5
	C821.6,945.3,826,948.6,827.6,953.7z"/>
<path class="st22" d="M811.9,974.1c0-2.1,1.7-4,4-4s4,1.7,4,4c0,2.1-1.7,4-4,4S811.9,976.2,811.9,974.1L811.9,974.1z"/>
<path class="st1" d="M841.4,990.5c-6.9-1.1-13.8,0-20.1,2.9c-10.3,5-19.2,10.9-28.6,10.9c-9.4,0-18.2-5.9-28.6-10.9
	c-6.3-2.9-13.4-3.8-20.1-2.9c-0.4,0-0.6,1-0.2,1c17.8,1.7,27,17.4,43.7,22.2c3.4,1,7.3,1,10.7,0c16.5-4.8,25.9-20.5,43.7-22.2
	C841.9,991.5,841.6,990.5,841.4,990.5z"/>
<path class="st1" d="M838.1,992.1c5.4-0.6,10.3-1.9,15.3-4c6.9-3.1,14.9-15.1,2.5-18c-10.3-2.5-17.2,4.2-21.7,9.6
	c-3.4,4.2-4.6,9.2-10.2,12.5H838.1z"/>
<path class="st1" d="M747.1,992.1c-5.4-0.6-10.3-1.9-15.3-4c-6.9-3.1-14.9-15.1-2.5-18c10.3-2.5,17.2,4.2,21.7,9.6
	c3.4,4.2,4.6,9.2,10.2,12.5H747.1z"/>
<path class="st0" d="M608.7,367.3c0,0,18,245.3-226.1,403.8l-81.8-38.7c0,0-36.2-144.5-27-244.2c9.2-99.7,80.3-246.1,292.3-251.8
	c0,0,112.1-186.3,332.5-168.7c304.1,24.3,416.8,413.8,302.8,685c0,0-15.1-106.9-124-162.3S736,500.1,608.7,367.3z"/>
<path class="st1" d="M383.9,752.7c93-168.7-1.3-192.6-30.1-327c-8.8-40.8,19.5-126.1,75.5-160.2
	c-107.7,48.7-148.9,148.7-155.8,222.7c-9.2,99.7,27,244.2,27,244.2l71.9,33.9C376.4,761.9,381,758.1,383.9,752.7z"/>
<path class="st2" d="M1567.1,665.1c-4.6-104.4-70.9-156.8-134.3-206.2s-101.6-75.1-199.7-195.1c-98.5-120.4-217.3-189.2-333.5-195.9
	l-1.3-0.2c-91.8-7.5-164.8,20.7-218.9,56c127.8-51.6,286.1-48.5,391.5,60.9c78.6,81.6,139.5,240.1,260.6,325.8
	c119.8,84.7,295.5,214.6,138.8,364.7C1529.6,834.7,1571.9,769.6,1567.1,665.1z"/>
<path class="st0" d="M1215.7,570.8l-8,173.8c0,0-8.4,107.3-19.5,128.6c-8,15.7-16.5-38.5-19.4-118.8s-25.9-114.8-25.9-114.8
	l72.8-73.4"/>
<path class="st3" d="M383.9,752.7c0,0-54.8-79.9-133-24.1c-35.5,25.3-69.8,120,0,205.1s162.5,52.9,165.2,14L383.9,752.7z"/>
<path class="st5" d="M383.9,752.7c0,0-54.6-79.9-133-24.1c-6.5,5-12.3,11.1-16.9,17.8c49.8-42,121.5-25.3,153.5,47.9l1.1-12.5
	L383.9,752.7z"/>
<path class="st0" d="M383.9,752.7c0,0,5.4,87,15.7,122.5c10.3,35.5,29.9-145.8,29.9-145.8L383.9,752.7z"/>
<path class="st5" d="M259.9,808.1c0,0,13.4-33.3,47-31.2s51,34.7,55.6,61.3c0,0-41.2-5.4-42.4,35.3c-1.1,36.2,34.7,48.9,49.4,40.2
	c0,0-2.7,20.3-37.4,22.6C290.2,939.4,233.8,885.3,259.9,808.1z"/>
<path class="st23" d="M579.8,962.8c-6.9,24.9-42,36.8-78.2,26.8c-36.2-10-60-38.5-53.1-63.4c6.9-24.9,42-36.8,78.2-26.6
	S586.7,937.8,579.8,962.8z"/>
<path class="st23" d="M1005.4,962.8c6.9,24.9,42,36.8,78.2,26.8c36.2-10,60-38.5,53.1-63.4c-6.9-24.9-42-36.8-78.2-26.6
	C1022.3,909.7,998.3,937.8,1005.4,962.8z"/>
<path class="st22" d="M888.5,787.2c0,0,28.2-74,103.3-71.3c75.1,2.7,102.1,72.4,102.1,72.4s-22.4,72.1-104.6,69
	C912.9,854.7,888.5,787.2,888.5,787.2z"/>
<circle class="st1" cx="985.1" cy="781.3" r="56.9"/>
<path class="st5" d="M888.5,787.2c0,0-1.3-26.6,21.7-50.2c29.1-30.1,95.1-49.1,151.8-17.8c45,24.7,42.7,71.7,42.7,71.7
	s-9.8-32.2-95.2-37.4C941.4,749.3,888.5,787.2,888.5,787.2z"/>
<path class="st24" d="M957.7,775.9c3.1-15.1,17.8-24.9,33-21.8c15.1,3.1,24.9,17.8,21.8,33c-3.1,15.1-17.8,24.9-33,21.8
	C964.4,805.8,954.6,791,957.7,775.9z"/>
<path class="st22" d="M985.1,766.3c1.5-7.5,8.8-12.3,16.1-10.7c7.5,1.5,12.3,8.8,10.7,16.1c-1.5,7.3-8.8,12.3-16.1,10.7l0,0
	C988.4,780.9,983.6,773.8,985.1,766.3C984.9,766.3,984.9,766.3,985.1,766.3z"/>
<path class="st25" d="M888.5,787.2c4.4,2.9,11.3-7.9,50.8-16.1c41-8.4,70-8,102.9-2.1c27.2,5,40.6,22.2,40.6,22.2
	c-9.4,22-25.9,40.2-47,51.7c-29.3,15.5-59.4,11.1-58.5,13.4c1.7,4.6,32.6,8.2,63.8-4.2c25.1-10,53.3-32.2,63.2-61.5
	c-0.6-10.5-23.8-39.5-87.8-43.5c-40.8-2.5-70-0.4-102.5,17.2C888.5,778.2,883.7,784.1,888.5,787.2z"/>
<linearGradient id="SVGID_14_" gradientUnits="userSpaceOnUse" x1="792.1177" y1="1098.7114" x2="792.1177" y2="1168.7784">
	<stop  offset="0" style="stop-color:#F6A57B"/>
	<stop  offset="1" style="stop-color:#F38B67"/>
</linearGradient>
<path class="st26" d="M792.1,1095.4L676.9,1113c0,0,32.2,55.4,115.2,55.4s115.2-54.8,115.2-54.8L792.1,1095.4z"/>
<path class="st27" d="M841.4,1076.6c-21.3-6.7-38.9,4.4-49.3,4.4s-27.8-11.1-49.3-4.4c-21.5,6.7-88.4,37.9-82,41.2
	c16.1,7.3,50.8-16.9,131.3-14.2c80.5-2.7,115.2,21.5,131.3,14.2C929.7,1114.5,862.6,1083.1,841.4,1076.6z"/>
<path class="st27" d="M792.1,1157.9c-52.1,0-77.6-9.8-77.6-9.8c7.3,16.9,32,27,77.6,27s70.3-10.3,77.6-27
	C869.7,1148.1,844.2,1157.9,792.1,1157.9z"/>
<path class="st1" d="M898.5,689.8c-14.2-0.2-28.4-1.9-34.7,3.4c-12.5,10.7-3.6,32.8,39.7,35.3c29.1,1.7,87.2-8.8,113.5-7.9
	c62.3,2.3,92.4,8.6,114.2,15.7c0,0-19.2-40.8-86.6-47C965.8,682.8,940.8,690.6,898.5,689.8z"/>
<path class="st22" d="M696.7,787.2c0,0-28.2-74-103.3-71.1s-102.1,72.4-102.1,72.4s22.4,72.1,104.6,69
	C672.3,854.7,696.7,787.2,696.7,787.2z"/>
<circle class="st1" cx="600.1" cy="781.5" r="56.9"/>
<path class="st5" d="M696.7,787.2c0,0,1.3-26.6-21.7-50.2c-29.1-30.1-95.1-49.1-151.8-17.8c-45,24.7-42.5,71.7-42.5,71.7
	s9.8-32.2,95.2-37.4C643.6,749.3,696.7,787.2,696.7,787.2z"/>
<path class="st24" d="M627.5,775.9c-3.1-15.1-17.8-24.9-33-21.8c-15.1,3.1-24.9,17.8-21.8,33c3.1,15.1,17.8,24.9,33,21.8
	S630.6,791,627.5,775.9z"/>
<path class="st22" d="M600.1,766.3c-1.5-7.5-8.8-12.3-16.1-10.7c-7.5,1.5-12.3,8.8-10.7,16.1c1.5,7.3,8.8,12.3,16.1,10.7l0,0
	C596.8,780.9,601.6,773.8,600.1,766.3L600.1,766.3z"/>
<path class="st25" d="M696.7,787.2c-4.4,2.9-11.3-7.9-50.8-16.1c-41-8.4-70-8-102.9-2.1c-27.2,5-40.6,22.2-40.6,22.2
	c9.4,22,25.9,40.2,47,51.7c29.3,15.5,59.4,11.1,58.5,13.4c-1.7,4.6-32.6,8.2-63.8-4.2c-25.1-10-53.3-32.2-63.2-61.5
	c0.6-10.5,23.8-39.5,87.8-43.5c40.8-2.5,70-0.4,102.5,17.2C696.7,778.2,701.3,784.1,696.7,787.2z"/>
<path class="st1" d="M686.7,689.8c14.2-0.2,28.4-1.9,34.7,3.4c12.5,10.7,3.6,32.8-39.7,35.3c-29.1,1.7-87.2-8.8-113.5-7.9
	c-62.3,2.3-92.4,8.6-114.2,15.7c0,0,19.2-40.8,86.6-47C619.4,682.8,644.2,690.6,686.7,689.8z"/>
</svg>
