<?xml version="1.0" encoding="utf-8"?>
<!-- Generator: Adobe Illustrator 24.0.2, SVG Export Plug-In . SVG Version: 6.00 Build 0)  -->
<svg version="1.1" id="Camada_1" xmlns="http://www.w3.org/2000/svg" xmlns:xlink="http://www.w3.org/1999/xlink" x="0px" y="0px"
	 viewBox="0 0 1683.8 2383.9" style="enable-background:new 0 0 1683.8 2383.9;" xml:space="preserve">
<style type="text/css">
	.st0{fill:#613648;}
	.st1{fill:#512A3B;}
	.st2{fill:#723E55;}
	.st3{fill:#F9BF8F;}
	.st4{fill:#FFDBC0;}
	.st5{fill:#F38B67;}
	.st6{fill:#FFE7E1;}
	.st7{fill:#FFF3F0;}
	.st8{fill:#BCE3F6;}
	.st9{fill:url(#SVGID_1_);}
	.st10{fill:url(#SVGID_2_);fill-opacity:0;}
	.st11{opacity:6.000000e-02;fill:url(#SVGID_3_);enable-background:new    ;}
	.st12{opacity:0.13;fill:url(#SVGID_4_);enable-background:new    ;}
	.st13{opacity:0.19;fill:url(#SVGID_5_);enable-background:new    ;}
	.st14{opacity:0.25;fill:url(#SVGID_6_);enable-background:new    ;}
	.st15{opacity:0.32;fill:url(#SVGID_7_);enable-background:new    ;}
	.st16{opacity:0.38;fill:url(#SVGID_8_);enable-background:new    ;}
	.st17{opacity:0.45;fill:url(#SVGID_9_);enable-background:new    ;}
	.st18{opacity:0.51;fill:url(#SVGID_10_);enable-background:new    ;}
	.st19{opacity:0.57;fill:url(#SVGID_11_);enable-background:new    ;}
	.st20{opacity:0.64;fill:url(#SVGID_12_);enable-background:new    ;}
	.st21{opacity:0.7;fill:url(#SVGID_13_);enable-background:new    ;}
	.st22{opacity:0.3;fill:#FFFFFF;enable-background:new    ;}
	.st23{fill:#FFFFFF;}
	.st24{opacity:0.1;fill:#E76266;enable-background:new    ;}
	.st25{fill:#EC5E76;}
	.st26{fill:url(#SVGID_14_);}
	.st27{fill:#A31F45;}
	.st28{fill:#422030;}
</style>
<title>person sad</title>
<path class="st0" d="M901.6,109.9c116.7,6.1,236.3,75.1,335.4,196.1c98.1,120,136.3,145.7,199.7,195.1
	c63.4,49.4,129.6,101.8,134.3,206.2s-37.8,169.6-96.6,210c0,0,254.7,171.9,162.1,446.4c-90.3,268.1-371.4,284.4-371.4,284.4
	s-162.9,148.1-469.3,89.3s-316.6-141.1-316.6-141.1s-162.5,1.9-222.5-170.2c-52.9-151.8,60.2-260.6,82.2-348
	c23.6-92.8-34.7-303.6-34.7-303.6S333,456.4,595.8,317.6S901.6,109.9,901.6,109.9z"/>
<path class="st1" d="M1335.5,1634.2c136.5-63.6,161.4-211.2,12.5-314.9c-148.9-103.7-179.4-205.6-175.4-329.6L343,978.6
	c3.3,37.6,3.1,73.2-3.4,99.3c-22.2,87.4-135.3,196.2-82.2,348c60,172.1,222.5,170.2,222.5,170.2s10.3,82.2,316.8,141.1
	s469.3-89.3,469.3-89.3s28.6-1.7,70.1-12.6L1335.5,1634.2z"/>
<path class="st2" d="M1401.5,1032.3c-2.7,54.6,108.1,86.6,140.1,276.7s-139.9,304-140.1,304.1c85.1-35.6,187-106.9,235.2-249.5
	c55.2-163.9-13.4-291.3-77.6-367.2C1465.3,932.2,1403.9,977.7,1401.5,1032.3z"/>
<path class="st3" d="M1204.8,794.8c0,0,54.8-79.9,133-24.1c35.5,25.3,69.8,120,0,205.1s-162.5,52.9-165.2,14L1204.8,794.8z"/>
<path class="st4" d="M1337.8,770.5c-21.5-15.3-41.2-20.3-58.6-19.7c9,0.8,51.7,7.3,72.3,68c18,53.1,12.8,107.1-13.8,156.8
	C1407.6,890.5,1373.3,795.8,1337.8,770.5z"/>
<path class="st5" d="M1328.8,850.2c0,0-13.4-33.3-47-31.2s-51,34.7-55.6,61.3c0,0,41.2-5.4,42.4,35.3c1.1,36.2-34.7,48.9-49.4,40.2
	c0,0,2.7,20.3,37.4,22.6C1298.5,981.5,1354.9,927.4,1328.8,850.2z"/>
<path class="st3" d="M637.5,1319.4c0,76.1,3.4,164.6,0,211.2c-3.4,46.6-54.8,39.9-119.4,29.3c-67.3-11.1-195.5-45.8-296.7,125.1
	c-107.9,182.5-194.5,328.7-194.5,328.7S289.3,2140,796.2,2140s769.3-126.3,769.3-126.3s-86.6-146.2-194.5-328.7
	c-101.2-171-229.4-136.3-296.7-125.1c-64.8,10.7-115.9,17.2-119.4-29.3c-3.4-46.6,0-135.1,0-211.2H637.5z"/>
<path class="st5" d="M585.6,1616.8c-37.4,65.4-82.8,181.5-88.9,224.6c-6.1,43.1,44.5,70.3,44.5,70.3s-114.2-6.9-107.7-31.8
	C439.9,1855,585.6,1616.8,585.6,1616.8z"/>
<path class="st5" d="M1006.8,1616.8c37.4,65.4,82.8,181.5,88.9,224.6c6.1,43.1-44.5,70.3-44.5,70.3s114.2-6.9,107.7-31.8
	S1006.8,1616.8,1006.8,1616.8z"/>
<path class="st5" d="M262.1,2086.2l103.7-258.9c0,0-131.5,156-165,244.4C219.6,2076.6,240.1,2081.4,262.1,2086.2z"/>
<path class="st5" d="M1330.5,2086.2l-103.7-258.9c0,0,131.5,156,165,244.4C1372.9,2076.6,1352.4,2081.4,1330.5,2086.2z"/>
<path class="st5" d="M954.5,1374.6c0.2-18.6,0.4-37.2,0.4-55.2H637.5c0,66.7,2.7,143,1,192.2l0,0
	C894.9,1509.9,954.5,1374.8,954.5,1374.6z"/>
<path class="st6" d="M619.7,1561L619.7,1561c-14.9,8-38.3,7.9-66.3,4.2c-7.9,8.6-234,255.5-291.5,521.1
	c127.4,28.2,305.9,53.9,534.3,53.9s406.9-25.9,534.3-53.9c-57.5-265.6-283.6-512.5-291.5-521.1c-28,3.4-51.4,3.8-66.3-4.2l0,0
	c33,50.4,119.4,201.6,138.2,254.1c18.8,52.5,24.9,63.2-34.5,76.3c-59.4,13-110,21.8-165.2,53.1c-40.6,23-86.1,45.8-115,45.8
	s-74.2-22.8-115-45.8c-55.2-31.2-105.6-39.9-165.2-53.1c-59.6-13.2-53.3-23.8-34.5-76.3C500.3,1762.6,586.9,1611.4,619.7,1561z"/>
<path class="st4" d="M1110.9,1553.8L1110.9,1553.8c40.2-4,137,12.5,198.4,97.5c61.3,85.1,225,375.3,225.2,375.4l0.4-0.2l30.7-12.8
	c0,0-86.6-146.2-194.5-328.7C1286.1,1541.3,1182,1543,1110.9,1553.8z"/>
<path class="st7" d="M944,2136.2c158.9-8,287.9-28.2,386.4-50c-57.5-265.6-283.6-512.5-291.5-521.1c0,0,151.2,220.4,180.3,337.7
	C1248.3,2018.9,1120.5,2125.4,944,2136.2z"/>
<path class="st3" d="M796.2,1374.6c-102.9,0-223.5-80.3-303.6-208.5S386.5,846.4,386.5,755.5c0-226.3,183.6-409.9,409.9-409.9
	s409.7,183.6,409.7,409.9c0,90.8-26.3,282.3-106.4,410.5S899.1,1374.6,796.2,1374.6z"/>
<path class="st8" d="M696.2,871.5c-17.8,10.2-48.3-17.2-72.8-17.1c-24.5,0.2-34.1,19.5-57.3,16.5c-23.2-3.1-38.7,1.3-46.8,7.1
	c-7.3,5.2-13.4,8.8-10.7,25.9c1.1,7.5-1.5,18.2-11.1,18.2c-11.5,0-12.5-12.6-10.5-21.1c1.7-6.7,4.4-13,7.9-19
	c0,0,43.5-56,102.7-57.3C656.7,823.4,696.2,871.5,696.2,871.5z"/>
<path class="st8" d="M896.3,871.5c17.8,10.2,48.3-17.2,72.8-17.1c24.5,0.2,34.1,19.5,57.3,16.5c23.2-3.1,38.7,1.3,46.8,7.1
	c7.3,5.2,13.4,8.8,10.7,25.9c-1.1,7.5,1.5,18.2,11.1,18.2c11.5,0,12.5-12.6,10.5-21.1c-1.7-6.7-4.4-13-7.9-19
	c0,0-43.5-56-102.7-57.3C935.7,823.4,896.3,871.5,896.3,871.5z"/>
<path class="st5" d="M612.4,434.1c0,0,24,165.8-75.3,269.1s-149.3,91.6-149.3,91.6L612.4,434.1z"/>
<path class="st5" d="M612.4,409.4c0,0,56.5,86.8,173.3,141.6c120.7,56.5,346.3,82.8,375.1,166.9c0,0,0-104.8-175.7-188.2
	C854.3,467.5,612.4,409.4,612.4,409.4z"/>
<path class="st4" d="M1174.5,860.2c-14.8,193.4-119.2,354.9-181.5,411.9c-60.2,55.2-123.4,85.5-181.7,102
	c99.5-7.3,212.2-85.9,288.4-207.7c47.5-75.9,75.9-174,91.2-260.3l13.8-111v-0.2L1174.5,860.2z"/>
<path class="st1" d="M899.3,640.2c22.2,24.9,56,31.2,117.3,47.3c53.5,14,89.7,32.4,108.7,60.6c1,1.5,3.3,2.1,4.8,1.1
	c1.1-0.8,1.7-2.1,1.5-3.4c-3.3-19.7-17.1-44.7-70.7-76.3c-42.7-24.9-73-26.3-124-49.6C914.5,609.3,876.7,614.5,899.3,640.2z"/>
<path class="st1" d="M693.1,640.2c-22.2,24.9-56,31.2-117.3,47.3c-53.5,14-89.7,32.4-108.7,60.6c-1,1.5-3.3,2.1-4.8,1.1
	c-1.1-0.8-1.7-2.1-1.5-3.4c3.3-19.7,17.1-44.7,70.7-76.3c42.7-24.9,73-26.3,124-49.6C678,609.3,715.9,614.5,693.1,640.2z"/>
<linearGradient id="SVGID_1_" gradientUnits="userSpaceOnUse" x1="796.2236" y1="885.6998" x2="796.2236" y2="1043.1783">
	<stop  offset="0" style="stop-color:#F9BB87"/>
	<stop  offset="1" style="stop-color:#E76266"/>
</linearGradient>
<path class="st9" d="M866,992.8c-10-23.8-41.8-145.5-69.8-145.5S736.4,969,726.5,992.8s3.1,32.6,3.1,32.6l13.8-2.3
	c0,0,35.5,28.2,52.9,28.2s52.9-28.2,52.9-28.2l13.8,2.3C862.9,1025.4,875.9,1016.6,866,992.8z"/>
<linearGradient id="SVGID_2_" gradientUnits="userSpaceOnUse" x1="796.2237" y1="970.5623" x2="796.2237" y2="1034.6113">
	<stop  offset="0" style="stop-color:#F4A47E"/>
	<stop  offset="0.23" style="stop-color:#F29B7B"/>
	<stop  offset="0.62" style="stop-color:#ED8272"/>
	<stop  offset="1" style="stop-color:#E76266"/>
</linearGradient>
<path class="st10" d="M760.2,994.7c0-21.8,16.1-39.7,36-39.7c19.9,0,36,17.8,36,39.7c0,21.8-16.1,43.3-36,43.3
	C776.3,1038,760.2,1016.6,760.2,994.7z"/>
<linearGradient id="SVGID_3_" gradientUnits="userSpaceOnUse" x1="796.2237" y1="973.7819" x2="796.2237" y2="1034.2858">
	<stop  offset="0" style="stop-color:#F4A47E"/>
	<stop  offset="0.23" style="stop-color:#F29B7B"/>
	<stop  offset="0.62" style="stop-color:#ED8272"/>
	<stop  offset="1" style="stop-color:#E76266"/>
</linearGradient>
<path class="st11" d="M762.1,996.6c0-20.7,15.3-37.6,34.1-37.6c18.8,0,34.1,16.9,34.1,37.6c0,20.7-15.3,40.8-34.1,40.8
	C777.4,1037.4,762.1,1017.3,762.1,996.6z"/>
<linearGradient id="SVGID_4_" gradientUnits="userSpaceOnUse" x1="796.2237" y1="977.0016" x2="796.2237" y2="1033.9598">
	<stop  offset="0" style="stop-color:#F4A47E"/>
	<stop  offset="0.23" style="stop-color:#F29B7B"/>
	<stop  offset="0.62" style="stop-color:#ED8272"/>
	<stop  offset="1" style="stop-color:#E76266"/>
</linearGradient>
<path class="st12" d="M764,998.5c0-19.5,14.4-35.5,32.2-35.5c17.8,0,32.2,15.9,32.2,35.5s-14.4,38.3-32.2,38.3
	C778.4,1036.9,764,1018.1,764,998.5z"/>
<linearGradient id="SVGID_5_" gradientUnits="userSpaceOnUse" x1="796.2237" y1="980.2213" x2="796.2237" y2="1033.6339">
	<stop  offset="0" style="stop-color:#F4A47E"/>
	<stop  offset="0.23" style="stop-color:#F29B7B"/>
	<stop  offset="0.62" style="stop-color:#ED8272"/>
	<stop  offset="1" style="stop-color:#E76266"/>
</linearGradient>
<path class="st13" d="M765.9,1000.5c0-18.4,13.6-33.3,30.3-33.3c16.7,0,30.3,14.9,30.3,33.3s-13.6,35.8-30.3,35.8
	C779.6,1036.3,765.9,1018.9,765.9,1000.5z"/>
<linearGradient id="SVGID_6_" gradientUnits="userSpaceOnUse" x1="796.2237" y1="983.441" x2="796.2237" y2="1033.3083">
	<stop  offset="0" style="stop-color:#F4A47E"/>
	<stop  offset="0.23" style="stop-color:#F29B7B"/>
	<stop  offset="0.62" style="stop-color:#ED8272"/>
	<stop  offset="1" style="stop-color:#E76266"/>
</linearGradient>
<path class="st14" d="M767.9,1002.4c0-17.2,12.6-31.2,28.4-31.2c15.7,0,28.4,14,28.4,31.2s-12.6,33.3-28.4,33.3
	C780.5,1035.7,767.9,1019.6,767.9,1002.4z"/>
<linearGradient id="SVGID_7_" gradientUnits="userSpaceOnUse" x1="796.4153" y1="986.6606" x2="796.4153" y2="1032.9824">
	<stop  offset="0" style="stop-color:#F4A47E"/>
	<stop  offset="0.23" style="stop-color:#F29B7B"/>
	<stop  offset="0.62" style="stop-color:#ED8272"/>
	<stop  offset="1" style="stop-color:#E76266"/>
</linearGradient>
<path class="st15" d="M770,1004.3c0-16.1,11.9-28.9,26.4-28.9s26.4,13,26.4,28.9c0,15.9-11.9,31-26.4,31S770,1020.4,770,1004.3z"/>
<linearGradient id="SVGID_8_" gradientUnits="userSpaceOnUse" x1="796.4153" y1="989.8804" x2="796.4153" y2="1032.6565">
	<stop  offset="0" style="stop-color:#F4A47E"/>
	<stop  offset="0.23" style="stop-color:#F29B7B"/>
	<stop  offset="0.62" style="stop-color:#ED8272"/>
	<stop  offset="1" style="stop-color:#E76266"/>
</linearGradient>
<path class="st16" d="M771.9,1006.4c0-14.9,10.9-26.8,24.5-26.8s24.5,12.1,24.5,26.8S810,1035,796.4,1035S771.9,1021.2,771.9,1006.4
	z"/>
<linearGradient id="SVGID_9_" gradientUnits="userSpaceOnUse" x1="796.4153" y1="993.1003" x2="796.4153" y2="1032.3308">
	<stop  offset="0" style="stop-color:#F4A47E"/>
	<stop  offset="0.23" style="stop-color:#F29B7B"/>
	<stop  offset="0.62" style="stop-color:#ED8272"/>
	<stop  offset="1" style="stop-color:#E76266"/>
</linearGradient>
<path class="st17" d="M773.8,1008.3c0-13.6,10.2-24.7,22.6-24.7s22.6,11.1,22.6,24.7s-10.2,26.1-22.6,26.1
	S773.8,1021.9,773.8,1008.3z"/>
<linearGradient id="SVGID_10_" gradientUnits="userSpaceOnUse" x1="796.2237" y1="996.3198" x2="796.2237" y2="1032.005">
	<stop  offset="0" style="stop-color:#F4A47E"/>
	<stop  offset="0.23" style="stop-color:#F29B7B"/>
	<stop  offset="0.62" style="stop-color:#ED8272"/>
	<stop  offset="1" style="stop-color:#E76266"/>
</linearGradient>
<path class="st18" d="M775.7,1010.2c0-12.5,9.2-22.6,20.5-22.6s20.5,10.2,20.5,22.6s-9.2,23.6-20.5,23.6S775.7,1022.7,775.7,1010.2z
	"/>
<linearGradient id="SVGID_11_" gradientUnits="userSpaceOnUse" x1="796.2237" y1="999.5397" x2="796.2237" y2="1031.6982">
	<stop  offset="0" style="stop-color:#F4A47E"/>
	<stop  offset="0.23" style="stop-color:#F29B7B"/>
	<stop  offset="0.62" style="stop-color:#ED8272"/>
	<stop  offset="1" style="stop-color:#E76266"/>
</linearGradient>
<path class="st19" d="M777.6,1012.2c0-11.3,8.2-20.5,18.6-20.5s18.6,9.2,18.6,20.5c0,11.3-8.2,21.1-18.6,21.1
	S777.6,1023.5,777.6,1012.2z"/>
<linearGradient id="SVGID_12_" gradientUnits="userSpaceOnUse" x1="796.2237" y1="1002.7592" x2="796.2237" y2="1031.3726">
	<stop  offset="0" style="stop-color:#F4A47E"/>
	<stop  offset="0.23" style="stop-color:#F29B7B"/>
	<stop  offset="0.62" style="stop-color:#ED8272"/>
	<stop  offset="1" style="stop-color:#E76266"/>
</linearGradient>
<path class="st20" d="M779.6,1014.1c0-10.2,7.5-18.4,16.7-18.4s16.7,8.2,16.7,18.4s-7.5,18.8-16.7,18.8S779.6,1024.2,779.6,1014.1z"
	/>
<linearGradient id="SVGID_13_" gradientUnits="userSpaceOnUse" x1="796.2237" y1="1005.9791" x2="796.2237" y2="1031.0468">
	<stop  offset="0" style="stop-color:#F4A47E"/>
	<stop  offset="0.23" style="stop-color:#F29B7B"/>
	<stop  offset="0.62" style="stop-color:#ED8272"/>
	<stop  offset="1" style="stop-color:#E76266"/>
</linearGradient>
<path class="st21" d="M781.5,1016.2c0-9,6.7-16.3,14.8-16.3c8,0,14.8,7.3,14.8,16.3c0,9-6.7,16.3-14.8,16.3
	C788.2,1032.5,781.5,1025,781.5,1016.2z"/>
<path class="st22" d="M831.3,995.9c1.3,5.2-1,10.3-5.2,11.5s-8.8-2.1-10.2-7.3c-1.3-5.2,1-10.3,5.2-11.5
	C825.4,987.4,829.8,990.7,831.3,995.9z"/>
<path class="st23" d="M815.6,1016.2c0-2.1,1.7-4,4-4c2.3,0,4,1.7,4,4c0,2.1-1.7,4-4,4C817.3,1020.2,815.6,1018.3,815.6,1016.2
	L815.6,1016.2z"/>
<path class="st1" d="M845.1,1032.7c-6.9-1.1-13.8,0-20.1,2.9c-10.3,5-19.2,10.9-28.6,10.9s-18.2-5.9-28.6-10.9
	c-6.3-2.9-13.4-3.8-20.1-2.9c-0.4,0-0.6,1-0.2,1c17.8,1.7,27,17.4,43.7,22.2c3.4,1,7.3,1,10.7,0c16.5-4.8,25.9-20.5,43.7-22.2
	C845.7,1033.6,845.3,1032.7,845.1,1032.7z"/>
<path class="st1" d="M841.8,1034.2c5.4-0.6,10.3-1.9,15.3-4c6.9-3.1,14.9-15.1,2.5-18c-10.3-2.5-17.2,4.2-21.7,9.6
	c-3.4,4.2-4.6,9.2-10.2,12.5H841.8z"/>
<path class="st1" d="M750.8,1034.2c-5.4-0.6-10.3-1.9-15.3-4c-6.9-3.1-14.9-15.1-2.5-18c10.3-2.5,17.2,4.2,21.7,9.6
	c3.4,4.2,4.6,9.2,10.2,12.5H750.8z"/>
<path class="st0" d="M612.4,409.4c0,0,18,245.3-226.1,403.8l-81.8-38.7c0,0-36.2-144.5-27-244.2s80.3-246.1,292.3-251.8
	c0,0,112.1-186.3,332.5-168.7c304.1,24.3,416.8,413.8,302.8,685c0,0-15.1-106.9-124-162.3C972.2,577.1,739.7,542.2,612.4,409.4z"/>
<path class="st1" d="M387.6,794.8c93-168.7-1.3-192.6-30.1-327c-8.8-40.8,19.5-126.1,75.5-160.2
	c-107.7,48.7-148.9,148.7-155.8,222.7c-9.2,99.7,27,244.2,27,244.2l71.9,33.9C380.2,804,384.8,800.2,387.6,794.8z"/>
<path class="st2" d="M1570.9,707.2c-4.6-104.4-70.9-156.8-134.3-206.2c-63.4-49.4-101.6-75.1-199.7-195.1
	c-98.5-120.4-217.3-189.2-333.5-195.9l-1.3-0.2c-91.8-7.5-164.8,20.7-218.9,56c127.8-51.6,286.1-48.5,391.5,60.9
	c78.6,81.6,139.5,240.1,260.6,325.8c119.8,84.7,295.5,214.6,138.8,364.7C1533.3,876.8,1575.7,811.7,1570.9,707.2z"/>
<path class="st0" d="M1219.4,612.9l-8,173.8c0,0-8.4,107.3-19.5,128.6c-8,15.7-16.5-38.5-19.4-118.8
	c-2.9-80.3-25.9-114.8-25.9-114.8l72.8-73.4"/>
<path class="st3" d="M387.6,794.8c0,0-54.8-79.9-133-24.1c-35.5,25.3-69.8,120,0,205.1s162.5,52.9,165.2,14L387.6,794.8z"/>
<path class="st5" d="M387.6,794.8c0,0-54.6-79.9-133-24.1c-6.5,5-12.3,11.1-16.9,17.8c49.8-42,121.5-25.3,153.5,47.9l1.1-12.5
	L387.6,794.8z"/>
<path class="st0" d="M387.6,794.8c0,0,5.4,87,15.7,122.5c10.3,35.5,29.9-145.8,29.9-145.8L387.6,794.8z"/>
<path class="st5" d="M263.6,850.2c0,0,13.4-33.3,47-31.2s51,34.7,55.6,61.3c0,0-41.2-5.4-42.4,35.3c-1.1,36.2,34.7,48.9,49.4,40.2
	c0,0-2.7,20.3-37.4,22.6C293.9,981.5,237.6,927.4,263.6,850.2z"/>
<path class="st24" d="M583.5,1004.9c-6.9,24.9-42,36.8-78.2,26.8c-36.2-10-60-38.5-53.1-63.4c6.9-24.9,42-36.8,78.2-26.6
	S590.4,980,583.5,1004.9z"/>
<path class="st24" d="M1009.1,1004.9c6.9,24.9,42,36.8,78.2,26.8c36.2-10,60-38.5,53.1-63.4c-6.9-24.9-42-36.8-78.2-26.6
	C1026,951.8,1002.1,980,1009.1,1004.9z"/>
<path class="st1" d="M796.2,1113.3c-42.5,0-131.3,56.2-131.3,56.2s54.6,32,131.3,32s131.3-32,131.3-32S838.2,1113.3,796.2,1113.3z"
	/>
<path class="st25" d="M796.2,1160.7c-49.6,0-73.6,12.6-73.6,12.6l73.6,15.3l73.6-15.3C869.8,1173.3,846.1,1160.7,796.2,1160.7z"/>
<path class="st23" d="M707.5,1143c0,0,49.4-4,88.7-4c39.3,0,88.7,4,88.7,4s-17.2-29.7-88.7-29.7S707.5,1143,707.5,1143z"/>
<linearGradient id="SVGID_14_" gradientUnits="userSpaceOnUse" x1="796.3195" y1="1185.363" x2="796.3195" y2="1231.0713">
	<stop  offset="0" style="stop-color:#F6A57B"/>
	<stop  offset="1" style="stop-color:#F38B67"/>
</linearGradient>
<path class="st26" d="M927.7,1169.5c-87.6,0-99.8,8-131.3,8c-31.4,0-43.7-8-131.5-8c0,0,33.5,62.9,131.3,62.9l0,0
	C894.2,1232.4,927.7,1169.5,927.7,1169.5z"/>
<path class="st27" d="M845.5,1093.8c-21.3-6.5-38.9,4.4-49.3,4.4s-27.8-10.9-49.1-4.4c-21.3,6.5-88.4,72.4-82.2,75.7
	c16.1,7.3,50.8-46.6,131.3-43.9c80.5-2.7,115.2,51.2,131.3,43.9C933.8,1166.2,866.8,1100.5,845.5,1093.8z"/>
<path class="st27" d="M796.2,1229.5c-51.9,0-77.6-17.4-77.6-17.4c7.3,16.9,58.3,27,77.6,27c19.4,0,70.3-10.3,77.6-27
	C873.8,1212.2,848.4,1229.5,796.2,1229.5z"/>
<path class="st5" d="M886.1,873.6c0,0,8.4-50.4,26.3-78c17.8-27.6,62.7-67.8,133.6-34.9s58.3,110.4,58.3,110.4
	s-23.8-45.4-109.2-46.6C927.1,823.6,886.1,873.6,886.1,873.6z"/>
<path class="st28" d="M888.6,874.7c7.3-1.3,14.2-9.6,52.3-23.2c33.3-11.9,55.6-11.9,86.2-4.2c30.7,7.7,47.7,21.7,60.8,33.7
	c9.8,9,23.4,15.7,15.9-9.4s-42.7-56.9-92.2-60.6c-49.4-3.6-78.6,6.7-108.5,35.3C883,865.9,883,875.7,888.6,874.7z"/>
<path class="st28" d="M1086.8,845c0,0,14.2,9.8,23.8,9.6c19.7-0.6,18.8-13.8,22.4-7.5s-4.4,29.3-32.8,30.9L1086.8,845z"/>
<path class="st5" d="M706.5,873.6c0,0-8.4-50.4-26.3-78c-17.8-27.6-62.7-67.8-133.6-34.9s-58.3,110.4-58.3,110.4
	s23.4-45.6,108.9-46.8C665.5,823.6,706.5,873.6,706.5,873.6z"/>
<path class="st28" d="M704,874.7c-7.3-1.3-14.2-9.6-52.3-23.2c-33.3-11.9-55.6-11.9-86.2-4.2c-30.7,7.7-47.7,21.7-60.8,33.7
	c-9.8,9-23.4,15.7-15.9-9.4c7.5-25.1,42.7-56.9,92.2-60.6c49.4-3.6,78.6,6.7,108.5,35.3C709.4,865.9,709.6,875.7,704,874.7z"/>
<path class="st28" d="M505.9,845c0,0-14.2,9.8-23.8,9.6c-19.7-0.6-18.8-13.8-22.4-7.5s4.4,29.3,32.8,30.9L505.9,845z"/>
<path class="st8" d="M493.2,986.5c-3.4,13.2-10.5,30.9,0,33.5c10.5,2.7,14.9-18.8,8.2-31.8C494.8,975.2,493.2,986.5,493.2,986.5z"/>
</svg>
