<?xml version="1.0" encoding="utf-8"?>
<!-- Generator: Adobe Illustrator 24.0.2, SVG Export Plug-In . SVG Version: 6.00 Build 0)  -->
<svg version="1.1" id="Camada_1" xmlns="http://www.w3.org/2000/svg" xmlns:xlink="http://www.w3.org/1999/xlink" x="0px" y="0px"
	 viewBox="0 0 2065.5 2383.9" style="enable-background:new 0 0 2065.5 2383.9;" xml:space="preserve">
<style type="text/css">
	.st0{fill:#613648;}
	.st1{fill:#512A3B;}
	.st2{fill:#723E55;}
	.st3{fill:#F9BF8F;}
	.st4{fill:#FFDBC0;}
	.st5{fill:#F38B67;}
	.st6{fill:#FFE7E1;}
	.st7{fill:#FFF3F0;}
	.st8{fill:url(#SVGID_1_);}
	.st9{fill:url(#SVGID_2_);fill-opacity:0;}
	.st10{opacity:6.000000e-02;fill:url(#SVGID_3_);enable-background:new    ;}
	.st11{opacity:0.13;fill:url(#SVGID_4_);enable-background:new    ;}
	.st12{opacity:0.19;fill:url(#SVGID_5_);enable-background:new    ;}
	.st13{opacity:0.25;fill:url(#SVGID_6_);enable-background:new    ;}
	.st14{opacity:0.32;fill:url(#SVGID_7_);enable-background:new    ;}
	.st15{opacity:0.38;fill:url(#SVGID_8_);enable-background:new    ;}
	.st16{opacity:0.45;fill:url(#SVGID_9_);enable-background:new    ;}
	.st17{opacity:0.51;fill:url(#SVGID_10_);enable-background:new    ;}
	.st18{opacity:0.57;fill:url(#SVGID_11_);enable-background:new    ;}
	.st19{opacity:0.64;fill:url(#SVGID_12_);enable-background:new    ;}
	.st20{opacity:0.7;fill:url(#SVGID_13_);enable-background:new    ;}
	.st21{opacity:0.3;fill:#FFFFFF;enable-background:new    ;}
	.st22{fill:#FFFFFF;}
	.st23{fill:#E76266;}
	.st24{fill:#422030;}
	.st25{fill:url(#SVGID_14_);}
	.st26{fill:#A31F45;}
</style>
<title>person happy</title>
<path class="st0" d="M1172.1,88.9c116.7,6.1,236.3,75.1,335.4,196.1c98.1,120,136.3,145.7,199.7,195.1s129.6,101.8,134.3,206.2
	c4.8,104.4-37.8,169.6-96.6,210c0,0,254.7,171.9,162.1,446.4c-90.3,268.1-371.4,284.4-371.4,284.4s-162.9,148.1-469.3,89.3
	s-316.6-141.1-316.6-141.1s-162.5,1.9-222.5-170.2c-52.9-151.8,60.2-260.6,82.2-348c23.6-92.8-34.7-303.6-34.7-303.6
	s28.7-318.1,291.5-456.9S1172.1,88.9,1172.1,88.9z"/>
<path class="st1" d="M1606,1613.3c136.5-63.6,161.4-211.2,12.5-314.9c-148.9-103.5-179.4-205.6-175.6-329.6l-829.5-10.9
	c3.3,37.6,3.1,73.2-3.4,99.3c-22.2,87.4-135.3,196.2-82.2,348c60,172.1,222.5,170.2,222.5,170.2s10.3,82.2,316.8,141.1
	s469.3-89.3,469.3-89.3s28.6-1.7,70.1-12.6L1606,1613.3z"/>
<path class="st2" d="M1671.9,1011.3c-2.7,54.6,108.1,86.6,140.1,276.7s-139.9,304-140.1,304.1c84.9-35.6,187-106.9,235.2-249.5
	c55.2-163.9-13.4-291.3-77.6-367.2C1735.7,911.3,1674.4,956.9,1671.9,1011.3z"/>
<path class="st3" d="M1475.3,773.9c0,0,54.8-79.9,133-24.1c35.5,25.3,69.8,120,0,205.1s-162.5,52.9-165.2,14L1475.3,773.9z"/>
<path class="st4" d="M1608.3,749.7c-21.5-15.3-41.2-20.3-58.6-19.7c9,0.8,51.7,7.3,72.3,68c18,53.1,12.8,107.1-13.8,156.8
	C1678,869.7,1643.9,774.8,1608.3,749.7z"/>
<path class="st5" d="M1599.3,829.5c0,0-13.4-33.3-47-31.2s-51,34.7-55.6,61.3c0,0,41.2-5.4,42.4,35.3c1.1,36.2-34.7,48.9-49.4,40.2
	c0,0,2.7,20.3,37.4,22.6C1569.2,960.6,1625.5,906.5,1599.3,829.5z"/>
<path class="st3" d="M908,1298.4c0,76.1,3.4,164.6,0,211.2c-3.4,46.6-54.6,39.9-119.4,29.3c-67.3-11.1-195.5-45.8-296.7,125.1
	c-107.9,182.5-194.5,328.7-194.5,328.7s262.4,126.3,769.3,126.3s769.5-126.3,769.5-126.3s-86.6-146.2-194.5-328.7
	c-101.2-171-229.4-136.3-296.7-125.1c-64.8,10.7-115.9,17.2-119.4-29.3c-3.4-46.6,0-135.1,0-211.2H908z"/>
<path class="st5" d="M856.3,1595.9c-37.4,65.4-82.8,181.5-88.9,224.6c-6.1,43.1,44.5,70.3,44.5,70.3s-114.2-6.9-107.7-31.8
	C710.4,1834.1,856.3,1595.9,856.3,1595.9z"/>
<path class="st5" d="M1277.3,1595.9c37.4,65.4,82.8,181.5,88.9,224.6c6.1,43.1-44.5,70.3-44.5,70.3s114.2-6.9,107.7-31.8
	C1423.2,1834.1,1277.3,1595.9,1277.3,1595.9z"/>
<path class="st5" d="M532.6,2065.4l103.7-258.9c0,0-131.5,156-165,244.4C490,2055.6,510.5,2060.4,532.6,2065.4z"/>
<path class="st5" d="M1601,2065.4l-103.7-258.9c0,0,131.5,156,165,244.4C1643.4,2055.6,1623,2060.4,1601,2065.4z"/>
<path class="st5" d="M1225.2,1353.6c0.2-18.6,0.4-37.2,0.4-55.2H908c0,66.7,2.7,143,1,192.2l0,0
	C1165.4,1488.9,1225,1353.8,1225.2,1353.6z"/>
<path class="st6" d="M890.2,1540.1L890.2,1540.1c-14.9,8-38.3,7.9-66.3,4.2c-7.9,8.6-234,255.5-291.5,521.1
	c127.4,28.2,305.9,53.9,534.3,53.9s406.9-25.9,534.3-53.9c-57.5-265.6-283.6-512.5-291.5-521.1c-28,3.4-51.4,3.8-66.3-4.2l0,0
	c33,50.4,119.4,201.6,138.2,254.1s24.9,63.2-34.5,76.3s-110,21.8-165.2,53.1c-40.6,23-86.1,45.8-115,45.8s-74.2-22.8-115-45.8
	c-55-31.2-105.6-39.9-165.2-53.1c-59.6-13.2-53.3-23.8-34.5-76.3C770.8,1741.7,857.4,1590.5,890.2,1540.1z"/>
<path class="st4" d="M1381.4,1532.8L1381.4,1532.8c40.2-4,137,12.5,198.4,97.5c61.3,85.1,225,375.2,225.2,375.4l0.4-0.2l30.7-12.8
	c0,0-86.6-146.2-194.5-328.7C1556.7,1520.4,1452.5,1522.1,1381.4,1532.8z"/>
<path class="st7" d="M1214.6,2115.4c158.9-8,287.9-28.2,386.4-50c-57.5-265.6-283.6-512.5-291.5-521.1c0,0,151.2,220.4,180.3,337.7
	C1518.8,1998,1391,2104.7,1214.6,2115.4z"/>
<path class="st3" d="M1066.7,1353.6c-102.9,0-223.5-80.3-303.6-208.5S656.7,825.4,656.7,734.6c0-226.3,183.6-409.9,409.9-409.9
	s409.9,183.4,409.9,409.9c0,90.8-26.3,282.3-106.4,410.5C1290.1,1273.3,1169.6,1353.6,1066.7,1353.6z"/>
<path class="st5" d="M883.1,413.2c0,0,24,165.8-75.3,269.1s-149.5,91.6-149.5,91.6L883.1,413.2z"/>
<path class="st5" d="M883.1,388.5c0,0,56.5,86.8,173.3,141.6c120.7,56.5,346.3,82.8,375.1,166.9c0,0,0-104.8-175.7-188.2
	C1124.8,446.6,883.1,388.5,883.1,388.5z"/>
<path class="st4" d="M1445,839.2c-14.8,193.4-119.2,354.9-181.5,411.9c-60.2,55.2-123.4,85.5-181.7,102
	c99.5-7.3,212.2-85.9,288.4-207.7c47.5-75.9,75.9-173.8,91.2-260.3l13.8-111v-0.2L1445,839.2z"/>
<linearGradient id="SVGID_1_" gradientUnits="userSpaceOnUse" x1="1066.7015" y1="1663.7668" x2="1066.7015" y2="1821.2454" gradientTransform="matrix(1 0 0 1 0 -798.9447)">
	<stop  offset="0" style="stop-color:#F9BB87"/>
	<stop  offset="1" style="stop-color:#E76266"/>
</linearGradient>
<path class="st8" d="M1136.4,971.9c-10-23.8-41.8-145.5-69.8-145.5s-59.8,121.7-69.8,145.5c-10,23.8,3.1,32.6,3.1,32.6l13.8-2.3
	c0,0,35.5,28.2,52.9,28.2c17.4,0,52.9-28.2,52.9-28.2l13.8,2.3C1133.6,1004.4,1146.4,995.6,1136.4,971.9z"/>
<linearGradient id="SVGID_2_" gradientUnits="userSpaceOnUse" x1="1066.6855" y1="1748.6293" x2="1066.6855" y2="1812.6783" gradientTransform="matrix(1 0 0 1 0 -798.9447)">
	<stop  offset="0" style="stop-color:#F4A47E"/>
	<stop  offset="0.23" style="stop-color:#F29B7B"/>
	<stop  offset="0.62" style="stop-color:#ED8272"/>
	<stop  offset="1" style="stop-color:#E76266"/>
</linearGradient>
<path class="st9" d="M1030.7,973.8c0-21.8,16.1-39.7,36-39.7s36,17.8,36,39.7s-16.1,43.3-36,43.3S1030.7,995.6,1030.7,973.8z"/>
<linearGradient id="SVGID_3_" gradientUnits="userSpaceOnUse" x1="1066.6855" y1="1751.8489" x2="1066.6855" y2="1812.3528" gradientTransform="matrix(1 0 0 1 0 -798.9447)">
	<stop  offset="0" style="stop-color:#F4A47E"/>
	<stop  offset="0.23" style="stop-color:#F29B7B"/>
	<stop  offset="0.62" style="stop-color:#ED8272"/>
	<stop  offset="1" style="stop-color:#E76266"/>
</linearGradient>
<path class="st10" d="M1032.6,975.7c0-20.7,15.3-37.6,34.1-37.6s34.1,16.9,34.1,37.6s-15.3,40.8-34.1,40.8
	S1032.6,996.4,1032.6,975.7z"/>
<linearGradient id="SVGID_4_" gradientUnits="userSpaceOnUse" x1="1066.6855" y1="1755.0687" x2="1066.6855" y2="1812.0269" gradientTransform="matrix(1 0 0 1 0 -798.9447)">
	<stop  offset="0" style="stop-color:#F4A47E"/>
	<stop  offset="0.23" style="stop-color:#F29B7B"/>
	<stop  offset="0.62" style="stop-color:#ED8272"/>
	<stop  offset="1" style="stop-color:#E76266"/>
</linearGradient>
<path class="st11" d="M1034.5,977.6c0-19.5,14.4-35.5,32.2-35.5s32.2,15.9,32.2,35.5s-14.4,38.3-32.2,38.3
	S1034.5,997.2,1034.5,977.6z"/>
<linearGradient id="SVGID_5_" gradientUnits="userSpaceOnUse" x1="1066.6855" y1="1758.2882" x2="1066.6855" y2="1811.7009" gradientTransform="matrix(1 0 0 1 0 -798.9447)">
	<stop  offset="0" style="stop-color:#F4A47E"/>
	<stop  offset="0.23" style="stop-color:#F29B7B"/>
	<stop  offset="0.62" style="stop-color:#ED8272"/>
	<stop  offset="1" style="stop-color:#E76266"/>
</linearGradient>
<path class="st12" d="M1036.4,979.5c0-18.4,13.6-33.3,30.3-33.3s30.3,14.9,30.3,33.3s-13.6,35.8-30.3,35.8
	S1036.4,997.9,1036.4,979.5z"/>
<linearGradient id="SVGID_6_" gradientUnits="userSpaceOnUse" x1="1066.6855" y1="1761.5081" x2="1066.6855" y2="1811.3754" gradientTransform="matrix(1 0 0 1 0 -798.9447)">
	<stop  offset="0" style="stop-color:#F4A47E"/>
	<stop  offset="0.23" style="stop-color:#F29B7B"/>
	<stop  offset="0.62" style="stop-color:#ED8272"/>
	<stop  offset="1" style="stop-color:#E76266"/>
</linearGradient>
<path class="st13" d="M1038.3,981.4c0-17.2,12.6-31.2,28.4-31.2s28.4,14,28.4,31.2c0,17.2-12.6,33.3-28.4,33.3
	S1038.3,998.7,1038.3,981.4z"/>
<linearGradient id="SVGID_7_" gradientUnits="userSpaceOnUse" x1="1066.8772" y1="1764.7277" x2="1066.8772" y2="1811.0494" gradientTransform="matrix(1 0 0 1 0 -798.9447)">
	<stop  offset="0" style="stop-color:#F4A47E"/>
	<stop  offset="0.23" style="stop-color:#F29B7B"/>
	<stop  offset="0.62" style="stop-color:#ED8272"/>
	<stop  offset="1" style="stop-color:#E76266"/>
</linearGradient>
<path class="st14" d="M1040.4,983.6c0-16.1,11.9-28.9,26.4-28.9s26.4,13,26.4,28.9c0,15.9-11.9,31-26.4,31
	S1040.4,999.5,1040.4,983.6z"/>
<linearGradient id="SVGID_8_" gradientUnits="userSpaceOnUse" x1="1066.8772" y1="1767.9475" x2="1066.8772" y2="1810.7235" gradientTransform="matrix(1 0 0 1 0 -798.9447)">
	<stop  offset="0" style="stop-color:#F4A47E"/>
	<stop  offset="0.23" style="stop-color:#F29B7B"/>
	<stop  offset="0.62" style="stop-color:#ED8272"/>
	<stop  offset="1" style="stop-color:#E76266"/>
</linearGradient>
<path class="st15" d="M1042.3,985.5c0-14.9,10.9-26.8,24.5-26.8s24.5,12.1,24.5,26.8c0,14.8-10.9,28.6-24.5,28.6
	S1042.3,1000.2,1042.3,985.5z"/>
<linearGradient id="SVGID_9_" gradientUnits="userSpaceOnUse" x1="1066.8772" y1="1771.1672" x2="1066.8772" y2="1810.3978" gradientTransform="matrix(1 0 0 1 0 -798.9447)">
	<stop  offset="0" style="stop-color:#F4A47E"/>
	<stop  offset="0.23" style="stop-color:#F29B7B"/>
	<stop  offset="0.62" style="stop-color:#ED8272"/>
	<stop  offset="1" style="stop-color:#E76266"/>
</linearGradient>
<path class="st16" d="M1044.3,987.4c0-13.6,10.2-24.7,22.6-24.7c12.5,0,22.6,11.1,22.6,24.7c0,13.6-10.2,26.1-22.6,26.1
	C1054.4,1013.5,1044.3,1001,1044.3,987.4z"/>
<linearGradient id="SVGID_10_" gradientUnits="userSpaceOnUse" x1="1066.6855" y1="1774.3868" x2="1066.6855" y2="1810.072" gradientTransform="matrix(1 0 0 1 0 -798.9447)">
	<stop  offset="0" style="stop-color:#F4A47E"/>
	<stop  offset="0.23" style="stop-color:#F29B7B"/>
	<stop  offset="0.62" style="stop-color:#ED8272"/>
	<stop  offset="1" style="stop-color:#E76266"/>
</linearGradient>
<path class="st17" d="M1046.2,989.3c0-12.5,9.2-22.6,20.5-22.6s20.5,10.2,20.5,22.6s-9.2,23.6-20.5,23.6S1046.2,1001.8,1046.2,989.3
	z"/>
<linearGradient id="SVGID_11_" gradientUnits="userSpaceOnUse" x1="1066.6855" y1="1777.6067" x2="1066.6855" y2="1809.7653" gradientTransform="matrix(1 0 0 1 0 -798.9447)">
	<stop  offset="0" style="stop-color:#F4A47E"/>
	<stop  offset="0.23" style="stop-color:#F29B7B"/>
	<stop  offset="0.62" style="stop-color:#ED8272"/>
	<stop  offset="1" style="stop-color:#E76266"/>
</linearGradient>
<path class="st18" d="M1048.1,991.2c0-11.3,8.2-20.5,18.6-20.5s18.6,9.2,18.6,20.5s-8.2,21.1-18.6,21.1S1048.1,1002.5,1048.1,991.2z
	"/>
<linearGradient id="SVGID_12_" gradientUnits="userSpaceOnUse" x1="1066.6855" y1="1780.8263" x2="1066.6855" y2="1809.4396" gradientTransform="matrix(1 0 0 1 0 -798.9447)">
	<stop  offset="0" style="stop-color:#F4A47E"/>
	<stop  offset="0.23" style="stop-color:#F29B7B"/>
	<stop  offset="0.62" style="stop-color:#ED8272"/>
	<stop  offset="1" style="stop-color:#E76266"/>
</linearGradient>
<path class="st19" d="M1050,993.3c0-10.2,7.5-18.4,16.7-18.4s16.7,8.2,16.7,18.4s-7.5,18.8-16.7,18.8S1050,1003.3,1050,993.3z"/>
<linearGradient id="SVGID_13_" gradientUnits="userSpaceOnUse" x1="1066.6855" y1="1784.046" x2="1066.6855" y2="1809.1138" gradientTransform="matrix(1 0 0 1 0 -798.9447)">
	<stop  offset="0" style="stop-color:#F4A47E"/>
	<stop  offset="0.23" style="stop-color:#F29B7B"/>
	<stop  offset="0.62" style="stop-color:#ED8272"/>
	<stop  offset="1" style="stop-color:#E76266"/>
</linearGradient>
<path class="st20" d="M1051.9,995.2c0-9,6.7-16.3,14.8-16.3s14.8,7.3,14.8,16.3s-6.7,16.3-14.8,16.3S1051.9,1004.3,1051.9,995.2z"/>
<path class="st21" d="M1101.8,974.9c1.3,5.2-1,10.3-5.2,11.5c-4.2,1.1-8.8-2.1-10.2-7.3c-1.3-5.2,1-10.3,5.2-11.5
	S1100.2,969.8,1101.8,974.9z"/>
<path class="st22" d="M1086,995.2c0-2.1,1.7-4,4-4s4,1.7,4,4c0,2.1-1.7,4-4,4S1086,997.5,1086,995.2L1086,995.2z"/>
<path class="st1" d="M1115.6,1011.7c-6.9-1.1-13.8,0-20.1,2.9c-10.3,5-19.2,10.9-28.6,10.9c-9.4,0-18.2-5.9-28.6-10.9
	c-6.3-2.9-13.4-3.8-20.1-2.9c-0.4,0-0.6,1-0.2,1c17.8,1.7,27,17.4,43.7,22.2c3.4,1,7.3,1,10.7,0c16.5-4.8,25.9-20.5,43.7-22.2
	C1116.1,1012.7,1115.9,1011.9,1115.6,1011.7z"/>
<path class="st1" d="M1112.3,1013.3c5.4-0.6,10.3-1.9,15.3-4c6.9-3.1,14.9-15.1,2.5-18c-10.3-2.5-17.2,4.2-21.7,9.6
	c-3.4,4.2-4.6,9.2-10.2,12.5H1112.3z"/>
<path class="st1" d="M1021.3,1013.3c-5.4-0.6-10.3-1.9-15.3-4c-6.9-3.1-14.9-15.1-2.5-18c10.3-2.5,17.2,4.2,21.7,9.6
	c3.4,4.2,4.6,9.2,10.2,12.5H1021.3z"/>
<path class="st1" d="M961.9,613.1c-3.1,20.1-58.3,3.3-119.4,26.4c-47.3,18-79.2,47.1-97.2,75.1c-1.3,2.1-4,2.7-6.1,1.3
	c-1.7-1.1-2.3-3.1-1.7-5c6.7-24.3,19.7-65,68.8-93.7C886.9,569.8,965.9,587,961.9,613.1z"/>
<path class="st0" d="M883.1,388.5c0,0,18,245.3-226.1,403.8l-81.8-38.7c0,0-36.2-144.5-27-244.2s80.1-246.1,292.1-251.8
	c0,0,112.1-186.3,332.5-168.7c304.1,24.3,416.8,413.8,302.8,685c0,0-15.1-106.9-124-162.3C1242.6,556.2,1010.1,521.3,883.1,388.5z"
	/>
<path class="st1" d="M658.3,773.9c93-168.7-1.3-192.6-30.1-327c-8.8-40.8,19.5-126.1,75.5-160.2C596,335.4,554.8,435.4,547.9,509.4
	c-9.2,99.7,27,244.2,27,244.2l71.9,33.9C650.6,783.3,655.2,779.3,658.3,773.9z"/>
<path class="st2" d="M1841.5,686.3c-4.6-104.4-70.9-156.8-134.3-206.2S1605.6,405,1507.5,285C1409,164.8,1290.1,95.8,1174,89.1
	l-1.3-0.2c-91.8-7.5-164.8,20.7-218.9,56c127.6-51.6,285.9-48.5,391.3,61.1c78.6,81.6,139.5,240.1,260.8,325.8
	c119.8,84.7,295.5,214.6,138.8,364.7C1803.8,855.9,1846.1,790.8,1841.5,686.3z"/>
<path class="st0" d="M1490,592l-8,173.8c0,0-8.4,107.3-19.5,128.6c-8,15.7-16.5-38.5-19.4-118.8s-25.9-114.8-25.9-114.8l72.8-73.4"
	/>
<path class="st3" d="M658.3,773.9c0,0-54.8-79.9-133-24.1c-35.5,25.3-69.8,120,0,205.1c69.8,85.1,162.5,52.9,165.2,14L658.3,773.9z"
	/>
<path class="st5" d="M658.3,773.9c0,0-54.6-79.9-133-24.1c-6.5,5-12.3,11.1-16.9,17.8c49.8-42,121.5-25.3,153.5,47.9l1.1-12.5
	L658.3,773.9z"/>
<path class="st0" d="M658.3,773.9c0,0,5.4,87,15.7,122.5c10.3,35.5,29.9-145.8,29.9-145.8L658.3,773.9z"/>
<path class="st5" d="M534.1,829.5c0,0,13.4-33.3,47-31.2c33.5,2.1,51,34.7,55.6,61.3c0,0-41.2-5.4-42.4,35.3
	c-1.1,36.2,34.7,48.9,49.4,40.2c0,0-2.7,20.3-37.4,22.6C564.4,960.6,508,906.5,534.1,829.5z"/>
<path class="st23" d="M854,961.1c-6.9,24.9-42,36.8-78.2,26.6c-36.2-10.2-60-38.5-53.1-63.4c6.9-24.9,42-37,78.2-26.8
	C837.1,907.7,860.9,936.2,854,961.1z"/>
<path class="st23" d="M1279.6,961.1c6.9,24.9,42,36.8,78.2,26.6c36.2-10.2,60-38.5,53.1-63.4c-6.9-24.9-42-37-78.4-26.8
	C1296.3,907.7,1272.7,936.2,1279.6,961.1z"/>
<path class="st5" d="M1155.8,842.1c0,0,9.2-50.2,27.4-77.6c18.2-27.4,63.6-66.9,134-33s56.5,111.3,56.5,111.3s-22.8-46-108.3-48.3
	C1197.6,792.7,1155.8,842.1,1155.8,842.1z"/>
<path class="st24" d="M1158.3,843.3c7.3-1.3,14.4-9.4,52.5-22.4c33.5-11.3,55.6-10.9,86.2-2.9c30.7,8,47.3,22.2,60.4,34.7
	c9.6,9.2,23.2,16.1,16.1-9c-7.1-25.1-42-57.5-91.2-61.9s-78.8,5.6-109,33.7C1152.9,834.3,1152.7,844.2,1158.3,843.3z"/>
<path class="st24" d="M1356.8,816.4c0,0,14,10.2,23.6,10c19.7-0.2,19-13.4,22.6-7.3s-5,29.3-33.2,30.3L1356.8,816.4z"/>
<path class="st5" d="M977.8,842.1c0,0-9.2-50.2-27.4-77.6c-18.2-27.4-63.6-66.9-134-33s-56.5,111.3-56.5,111.3s22.8-46,108.3-48.3
	C936,792.7,977.8,842.1,977.8,842.1z"/>
<path class="st24" d="M975.3,843.3c-7.3-1.3-14.4-9.4-52.5-22.4c-33.5-11.3-55.6-10.9-86.2-2.9s-47.3,22.2-60.4,34.7
	c-9.6,9.2-23.2,16.1-16.1-9s42-57.5,91.2-61.9c49.3-4.4,78.8,5.6,109,33.7C980.6,834.3,980.8,844.2,975.3,843.3z"/>
<path class="st24" d="M776.5,816.4c0,0-14,10.2-23.6,10c-19.7-0.2-19-13.4-22.6-7.3s5,29.3,33.2,30.3L776.5,816.4z"/>
<path class="st1" d="M1171.5,613.1c3.1,20.1,58.3,3.3,119.4,26.4c47.3,18,79.2,47.1,97.2,75.1c1.3,2.1,4,2.7,6.1,1.3
	c1.7-1.1,2.3-3.1,1.7-5c-6.7-24.3-19.7-65-68.8-93.7C1246.6,569.8,1167.7,587,1171.5,613.1z"/>
<path class="st1" d="M1066.7,1105.3l-126.7,2.9c0,0,24.5,66.3,126.7,66.3c102.1,0,126.7-66.3,126.7-66.3L1066.7,1105.3z"/>
<path class="st22" d="M1169,1139.7c-11.7-9.6-6.9-21.8-5-30.3l-97.4-4.4l-97.4,4.4c1.9,8.4,6.7,20.7-5,30.3
	c-7.5,6.1,101.6,42.2,102.1,42.4C1067.3,1182.1,1176.5,1145.9,1169,1139.7z"/>
<linearGradient id="SVGID_14_" gradientUnits="userSpaceOnUse" x1="1066.4939" y1="1911.0903" x2="1066.4939" y2="2014.9264" gradientTransform="matrix(1 0 0 1 0 -798.9447)">
	<stop  offset="0" style="stop-color:#F6A57B"/>
	<stop  offset="1" style="stop-color:#F38B67"/>
</linearGradient>
<path class="st25" d="M1187.4,1110c-9,17.4-21.7,48.7-120.7,49.3c-98.9-0.6-111.7-31.8-120.7-49.3c-2.3-4.4-14.9-2.3-14.9-2.3
	s16.9,97.9,135.5,107.5c118.6-9.6,135.5-107.5,135.5-107.5S1189.7,1105.6,1187.4,1110z"/>
<path class="st26" d="M1211,1096.6c-20.7,8.6-64.2-8.6-88.9-11.7c-29.1-3.4-43.7,12.5-55.4,12.5c-11.7,0-26.3-16.1-55.4-12.5
	c-24.9,3.1-68.4,20.3-89.1,11.7c-7.1-2.9-14.4,9.6,34.9,16.7c36.2,4.6,72.8,7.1,109.4,7.5c36.6-0.2,73.2-2.7,109.4-7.5
	C1225.6,1106.2,1218.3,1093.8,1211,1096.6z"/>
<path class="st26" d="M1066.9,1207.6c-51.9,0-77.6-21.3-77.6-21.3c7.3,16.9,32,38.5,77.6,38.5c45.6,0,70.3-21.7,77.6-38.5
	C1144.3,1186.3,1118.8,1207.6,1066.9,1207.6z"/>
</svg>
