<?xml version="1.0" encoding="utf-8"?>
<!-- Generator: Adobe Illustrator 24.0.2, SVG Export Plug-In . SVG Version: 6.00 Build 0)  -->
<svg version="1.1" id="Camada_1" xmlns="http://www.w3.org/2000/svg" xmlns:xlink="http://www.w3.org/1999/xlink" x="0px" y="0px"
	 viewBox="0 0 1912.7 2383.9" style="enable-background:new 0 0 1912.7 2383.9;" xml:space="preserve">
<style type="text/css">
	.st0{fill:#613648;}
	.st1{fill:#512A3B;}
	.st2{fill:#723E55;}
	.st3{fill:#F9BF8F;}
	.st4{fill:#FFDBC0;}
	.st5{fill:#F38B67;}
	.st6{fill:#FFE7E1;}
	.st7{fill:#FFF3F0;}
	.st8{fill:url(#SVGID_1_);}
	.st9{fill:url(#SVGID_2_);fill-opacity:0;}
	.st10{opacity:6.000000e-02;fill:url(#SVGID_3_);enable-background:new    ;}
	.st11{opacity:0.13;fill:url(#SVGID_4_);enable-background:new    ;}
	.st12{opacity:0.19;fill:url(#SVGID_5_);enable-background:new    ;}
	.st13{opacity:0.25;fill:url(#SVGID_6_);enable-background:new    ;}
	.st14{opacity:0.32;fill:url(#SVGID_7_);enable-background:new    ;}
	.st15{opacity:0.38;fill:url(#SVGID_8_);enable-background:new    ;}
	.st16{opacity:0.45;fill:url(#SVGID_9_);enable-background:new    ;}
	.st17{opacity:0.51;fill:url(#SVGID_10_);enable-background:new    ;}
	.st18{opacity:0.57;fill:url(#SVGID_11_);enable-background:new    ;}
	.st19{opacity:0.64;fill:url(#SVGID_12_);enable-background:new    ;}
	.st20{opacity:0.7;fill:url(#SVGID_13_);enable-background:new    ;}
	.st21{opacity:0.3;fill:#FFFFFF;enable-background:new    ;}
	.st22{fill:#FFFFFF;}
	.st23{opacity:0.3;fill:#E76266;enable-background:new    ;}
	.st24{fill:#EC5E76;}
	.st25{fill:url(#SVGID_14_);}
	.st26{fill:#A31F45;}
	.st27{fill:#422030;}
	.st28{fill:#3A1B2B;}
	.st29{fill:#C93A58;}
</style>
<title>person confused</title>
<path class="st0" d="M1016.1,177.4c116.7,6.1,236.3,75.1,335.4,196.1c98.1,120,136.3,145.7,199.7,195.1s129.6,101.8,134.3,206.2
	s-37.8,169.6-96.6,210c0,0,254.7,171.9,162.1,446.4c-90.3,268.1-371.4,284.4-371.4,284.4s-162.9,148.1-469.3,89.3
	s-316.6-141.1-316.6-141.1s-162.5,1.9-222.5-170.2c-52.9-151.8,60.2-260.6,82.2-348c23.6-92.8-34.7-303.6-34.7-303.6
	s28.7-318.1,291.5-456.9S1016.1,177.4,1016.1,177.4z"/>
<path class="st1" d="M1450,1701.8c136.5-63.6,161.4-211.2,12.5-314.9c-148.9-103.5-179.4-205.6-175.6-329.6l-829.5-10.9
	c3.3,37.6,3.1,73.2-3.4,99.3c-22.2,87.4-135.3,196.2-82.2,348c60,172.1,222.5,170.2,222.5,170.2s10.3,82.2,316.8,141.1
	c306.4,58.8,469.3-89.3,469.3-89.3s28.6-1.7,70.1-12.6L1450,1701.8z"/>
<path class="st2" d="M1515.9,1099.8c-2.7,54.6,108.1,86.6,140.1,276.7c32,190.1-139.9,304-140.1,304.1
	c84.9-35.6,187-106.9,235.2-249.5c55.2-163.9-13.4-291.3-77.6-367.2C1579.8,999.8,1518.4,1045.4,1515.9,1099.8z"/>
<path class="st3" d="M1319.3,862.4c0,0,54.8-79.9,133-24.1c35.5,25.3,69.8,120,0,205.1c-69.8,85.1-162.5,52.9-165.2,14L1319.3,862.4
	z"/>
<path class="st4" d="M1452.3,838.2c-21.5-15.3-41.2-20.3-58.6-19.7c9,0.8,51.7,7.3,72.3,68c18,53.1,12.8,107.1-13.8,156.8
	C1522.1,958.2,1488,863.3,1452.3,838.2z"/>
<path class="st5" d="M1443.3,918c0,0-13.4-33.3-47-31.2s-51,34.7-55.6,61.3c0,0,41.2-5.4,42.4,35.3c1.1,36.2-34.7,48.9-49.4,40.2
	c0,0,2.7,20.3,37.4,22.6C1413.2,1049,1469.6,995,1443.3,918z"/>
<path class="st3" d="M752,1386.9c0,76.1,3.4,164.6,0,211.2s-54.8,39.9-119.4,29.3c-67.3-11.1-195.5-45.8-296.7,125.1
	c-107.9,182.5-194.5,328.7-194.5,328.7s262.4,126.3,769.3,126.3s769.5-126.3,769.5-126.3s-86.6-146.2-194.5-328.7
	c-101.2-171-229.4-136.3-296.7-125.1c-64.8,10.7-115.9,17.2-119.4-29.3s0-135.1,0-211.2H752z"/>
<path class="st5" d="M700.3,1684.4c-37.4,65.4-82.8,181.5-88.9,224.6c-6.1,43.1,44.5,70.3,44.5,70.3s-114.2-6.9-107.7-31.8
	C554.4,1922.6,700.3,1684.4,700.3,1684.4z"/>
<path class="st5" d="M1121.3,1684.4c37.4,65.4,82.8,181.5,88.9,224.6c6.1,43.1-44.5,70.3-44.5,70.3s114.2-6.9,107.7-31.8
	C1267.2,1922.6,1121.3,1684.4,1121.3,1684.4z"/>
<path class="st5" d="M376.6,2153.9L480.3,1895c0,0-131.5,156-165,244.4C334,2144.1,354.5,2148.9,376.6,2153.9z"/>
<path class="st5" d="M1445,2153.9L1341.3,1895c0,0,131.5,156,165,244.4C1487.4,2144.1,1467.1,2148.9,1445,2153.9z"/>
<path class="st5" d="M1069.2,1442.1c0.2-18.6,0.4-37.2,0.4-55.2H752c0,66.7,2.7,143,1,192.2l0,0
	C1009.4,1577.4,1069,1442.3,1069.2,1442.1z"/>
<path class="st6" d="M734.2,1628.6L734.2,1628.6c-14.9,8-38.3,7.9-66.3,4.2c-7.9,8.6-234,255.5-291.5,521.1
	c127.4,28.2,305.9,53.9,534.3,53.9s406.9-25.9,534.3-53.9c-57.5-265.6-283.6-512.5-291.5-521.1c-28,3.4-51.4,3.8-66.3-4.2l0,0
	c33,50.4,119.4,201.6,138.2,254.1c18.8,52.5,24.9,63.2-34.5,76.3c-59.4,13-110,21.8-165,53.1c-40.6,23-86.1,45.8-115,45.8
	s-74.2-22.8-115-45.8c-55.2-31.2-105.6-39.9-165.2-53.1s-53.3-23.8-34.5-76.3C615,1830.2,701.4,1679,734.2,1628.6z"/>
<path class="st4" d="M1225.4,1621.3L1225.4,1621.3c40.2-4,137,12.5,198.4,97.5s225,375.2,225.2,375.4l0.4-0.2l30.7-12.8
	c0,0-86.6-146.2-194.5-328.7C1400.8,1608.9,1296.5,1610.6,1225.4,1621.3z"/>
<path class="st7" d="M1058.7,2203.9c158.9-8,287.9-28.2,386.4-50c-57.5-265.6-283.6-512.5-291.5-521.1c0,0,151.2,220.4,180.3,337.7
	C1362.8,2086.4,1235,2193.2,1058.7,2203.9z"/>
<path class="st3" d="M910.7,1442.1c-102.9,0-223.5-80.3-303.6-208.5S500.8,913.9,500.8,823.1c0-226.3,183.6-409.9,409.9-409.9
	s409.9,183.4,409.9,409.9c0,90.8-26.3,282.3-106.4,410.5S1013.6,1442.1,910.7,1442.1z"/>
<path class="st5" d="M727.1,501.7c0,0,24,165.8-75.3,269.1s-149.5,91.6-149.5,91.6L727.1,501.7z"/>
<path class="st5" d="M727.1,477c0,0,56.5,86.8,173.3,141.6c120.7,56.5,346.3,82.8,375.1,166.9c0,0,0-104.8-175.7-188.2
	C968.8,535,727.1,477,727.1,477z"/>
<path class="st4" d="M1289,927.7c-14.8,193.4-119.2,354.9-181.5,411.9c-60.2,55.2-123.4,85.5-181.7,102
	c99.5-7.3,212.2-85.9,288.4-207.7c47.5-75.9,75.9-173.8,91.2-260.3l13.8-111v-0.2L1289,927.7z"/>
<linearGradient id="SVGID_1_" gradientUnits="userSpaceOnUse" x1="1208.0039" y1="2676.7893" x2="1208.0039" y2="2834.2678" gradientTransform="matrix(1 0 0 1 -297.28 -1723.47)">
	<stop  offset="0" style="stop-color:#F9BB87"/>
	<stop  offset="1" style="stop-color:#E76266"/>
</linearGradient>
<path class="st8" d="M980.5,1060.4c-10-23.8-41.8-145.5-69.8-145.5s-59.8,121.7-69.8,145.5c-10,23.8,3.1,32.6,3.1,32.6l13.8-2.3
	c0,0,35.5,28.2,52.9,28.2s52.9-28.2,52.9-28.2l13.8,2.3C977.6,1092.9,990.4,1084.1,980.5,1060.4z"/>
<linearGradient id="SVGID_2_" gradientUnits="userSpaceOnUse" x1="1207.9879" y1="2761.6519" x2="1207.9879" y2="2825.7009" gradientTransform="matrix(1 0 0 1 -297.28 -1723.47)">
	<stop  offset="0" style="stop-color:#F4A47E"/>
	<stop  offset="0.23" style="stop-color:#F29B7B"/>
	<stop  offset="0.62" style="stop-color:#ED8272"/>
	<stop  offset="1" style="stop-color:#E76266"/>
</linearGradient>
<path class="st9" d="M874.7,1062.3c0-21.8,16.1-39.7,36-39.7s36,17.8,36,39.7c0,21.8-16.1,43.3-36,43.3S874.7,1084.1,874.7,1062.3z"
	/>
<linearGradient id="SVGID_3_" gradientUnits="userSpaceOnUse" x1="1207.9879" y1="2764.8713" x2="1207.9879" y2="2825.3752" gradientTransform="matrix(1 0 0 1 -297.28 -1723.47)">
	<stop  offset="0" style="stop-color:#F4A47E"/>
	<stop  offset="0.23" style="stop-color:#F29B7B"/>
	<stop  offset="0.62" style="stop-color:#ED8272"/>
	<stop  offset="1" style="stop-color:#E76266"/>
</linearGradient>
<path class="st10" d="M876.6,1064.2c0-20.7,15.3-37.6,34.1-37.6s34.1,16.9,34.1,37.6c0,20.7-15.3,40.8-34.1,40.8
	S876.6,1084.9,876.6,1064.2z"/>
<linearGradient id="SVGID_4_" gradientUnits="userSpaceOnUse" x1="1207.9879" y1="2768.0911" x2="1207.9879" y2="2825.0493" gradientTransform="matrix(1 0 0 1 -297.28 -1723.47)">
	<stop  offset="0" style="stop-color:#F4A47E"/>
	<stop  offset="0.23" style="stop-color:#F29B7B"/>
	<stop  offset="0.62" style="stop-color:#ED8272"/>
	<stop  offset="1" style="stop-color:#E76266"/>
</linearGradient>
<path class="st11" d="M878.5,1066.1c0-19.5,14.4-35.5,32.2-35.5s32.2,15.9,32.2,35.5c0,19.5-14.4,38.3-32.2,38.3
	S878.5,1085.7,878.5,1066.1z"/>
<linearGradient id="SVGID_5_" gradientUnits="userSpaceOnUse" x1="1207.9879" y1="2771.3108" x2="1207.9879" y2="2824.7236" gradientTransform="matrix(1 0 0 1 -297.28 -1723.47)">
	<stop  offset="0" style="stop-color:#F4A47E"/>
	<stop  offset="0.23" style="stop-color:#F29B7B"/>
	<stop  offset="0.62" style="stop-color:#ED8272"/>
	<stop  offset="1" style="stop-color:#E76266"/>
</linearGradient>
<path class="st12" d="M880.4,1068c0-18.4,13.6-33.3,30.3-33.3s30.3,14.9,30.3,33.3c0,18.4-13.6,35.8-30.3,35.8
	S880.4,1086.4,880.4,1068z"/>
<linearGradient id="SVGID_6_" gradientUnits="userSpaceOnUse" x1="1207.9879" y1="2774.5305" x2="1207.9879" y2="2824.3977" gradientTransform="matrix(1 0 0 1 -297.28 -1723.47)">
	<stop  offset="0" style="stop-color:#F4A47E"/>
	<stop  offset="0.23" style="stop-color:#F29B7B"/>
	<stop  offset="0.62" style="stop-color:#ED8272"/>
	<stop  offset="1" style="stop-color:#E76266"/>
</linearGradient>
<path class="st13" d="M882.3,1070.1c0-17.2,12.6-31.2,28.4-31.2s28.4,14,28.4,31.2c0,17.2-12.6,33.3-28.4,33.3
	S882.3,1087.2,882.3,1070.1z"/>
<linearGradient id="SVGID_7_" gradientUnits="userSpaceOnUse" x1="1208.1796" y1="2777.7502" x2="1208.1796" y2="2824.072" gradientTransform="matrix(1 0 0 1 -297.28 -1723.47)">
	<stop  offset="0" style="stop-color:#F4A47E"/>
	<stop  offset="0.23" style="stop-color:#F29B7B"/>
	<stop  offset="0.62" style="stop-color:#ED8272"/>
	<stop  offset="1" style="stop-color:#E76266"/>
</linearGradient>
<path class="st14" d="M884.5,1072c0-16.1,11.9-28.9,26.4-28.9s26.4,13,26.4,28.9c0,15.9-11.9,31-26.4,31S884.5,1088,884.5,1072z"/>
<linearGradient id="SVGID_8_" gradientUnits="userSpaceOnUse" x1="1208.1796" y1="2780.97" x2="1208.1796" y2="2823.7461" gradientTransform="matrix(1 0 0 1 -297.28 -1723.47)">
	<stop  offset="0" style="stop-color:#F4A47E"/>
	<stop  offset="0.23" style="stop-color:#F29B7B"/>
	<stop  offset="0.62" style="stop-color:#ED8272"/>
	<stop  offset="1" style="stop-color:#E76266"/>
</linearGradient>
<path class="st15" d="M886.4,1074c0-14.9,10.9-26.8,24.5-26.8s24.5,12.1,24.5,26.8c0,14.8-10.9,28.6-24.5,28.6
	S886.4,1088.7,886.4,1074z"/>
<linearGradient id="SVGID_9_" gradientUnits="userSpaceOnUse" x1="1208.1796" y1="2784.1897" x2="1208.1796" y2="2823.4204" gradientTransform="matrix(1 0 0 1 -297.28 -1723.47)">
	<stop  offset="0" style="stop-color:#F4A47E"/>
	<stop  offset="0.23" style="stop-color:#F29B7B"/>
	<stop  offset="0.62" style="stop-color:#ED8272"/>
	<stop  offset="1" style="stop-color:#E76266"/>
</linearGradient>
<path class="st16" d="M888.3,1075.9c0-13.6,10.2-24.7,22.6-24.7s22.6,11.1,22.6,24.7c0,13.6-10.2,26.1-22.6,26.1
	S888.3,1089.5,888.3,1075.9z"/>
<linearGradient id="SVGID_10_" gradientUnits="userSpaceOnUse" x1="1207.9879" y1="2787.4094" x2="1207.9879" y2="2823.0945" gradientTransform="matrix(1 0 0 1 -297.28 -1723.47)">
	<stop  offset="0" style="stop-color:#F4A47E"/>
	<stop  offset="0.23" style="stop-color:#F29B7B"/>
	<stop  offset="0.62" style="stop-color:#ED8272"/>
	<stop  offset="1" style="stop-color:#E76266"/>
</linearGradient>
<path class="st17" d="M890.2,1077.8c0-12.5,9.2-22.6,20.5-22.6s20.5,10.2,20.5,22.6c0,12.5-9.2,23.6-20.5,23.6
	S890.2,1090.3,890.2,1077.8z"/>
<linearGradient id="SVGID_11_" gradientUnits="userSpaceOnUse" x1="1207.9879" y1="2790.6292" x2="1207.9879" y2="2822.7878" gradientTransform="matrix(1 0 0 1 -297.28 -1723.47)">
	<stop  offset="0" style="stop-color:#F4A47E"/>
	<stop  offset="0.23" style="stop-color:#F29B7B"/>
	<stop  offset="0.62" style="stop-color:#ED8272"/>
	<stop  offset="1" style="stop-color:#E76266"/>
</linearGradient>
<path class="st18" d="M892.1,1079.7c0-11.3,8.2-20.5,18.6-20.5s18.6,9.2,18.6,20.5s-8.2,21.1-18.6,21.1S892.1,1091.2,892.1,1079.7z"
	/>
<linearGradient id="SVGID_12_" gradientUnits="userSpaceOnUse" x1="1207.9879" y1="2793.8489" x2="1207.9879" y2="2822.4622" gradientTransform="matrix(1 0 0 1 -297.28 -1723.47)">
	<stop  offset="0" style="stop-color:#F4A47E"/>
	<stop  offset="0.23" style="stop-color:#F29B7B"/>
	<stop  offset="0.62" style="stop-color:#ED8272"/>
	<stop  offset="1" style="stop-color:#E76266"/>
</linearGradient>
<path class="st19" d="M894,1081.8c0-10.2,7.5-18.4,16.7-18.4s16.7,8.2,16.7,18.4s-7.5,18.8-16.7,18.8S894,1091.8,894,1081.8z"/>
<linearGradient id="SVGID_13_" gradientUnits="userSpaceOnUse" x1="1207.9879" y1="2797.0686" x2="1207.9879" y2="2822.1362" gradientTransform="matrix(1 0 0 1 -297.28 -1723.47)">
	<stop  offset="0" style="stop-color:#F4A47E"/>
	<stop  offset="0.23" style="stop-color:#F29B7B"/>
	<stop  offset="0.62" style="stop-color:#ED8272"/>
	<stop  offset="1" style="stop-color:#E76266"/>
</linearGradient>
<path class="st20" d="M896,1083.7c0-9,6.7-16.3,14.8-16.3s14.8,7.3,14.8,16.3s-6.7,16.3-14.8,16.3S896,1092.7,896,1083.7z"/>
<path class="st21" d="M945.8,1063.4c1.3,5.2-1,10.3-5.2,11.5s-8.8-2.1-10.2-7.3c-1.3-5.2,1-10.3,5.2-11.5S944.2,1058.2,945.8,1063.4
	z"/>
<path class="st22" d="M930.1,1083.7c0-2.1,1.7-4,4-4c2.3,0,4,1.7,4,4c0,2.1-1.7,4-4,4C931.8,1087.8,930.1,1086,930.1,1083.7
	L930.1,1083.7z"/>
<path class="st1" d="M959.6,1100.2c-6.9-1.1-13.8,0-20.1,2.9c-10.3,5-19.2,10.9-28.6,10.9s-18.2-5.9-28.6-10.9
	c-6.3-2.9-13.4-3.8-20.1-2.9c-0.4,0-0.6,1-0.2,1c17.8,1.7,27,17.4,43.7,22.2c3.4,1,7.3,1,10.7,0c16.5-4.8,25.9-20.5,43.7-22.2
	C960.2,1101.2,960,1100.4,959.6,1100.2z"/>
<path class="st1" d="M956.3,1101.8c5.4-0.6,10.3-1.9,15.3-4c6.9-3.1,14.9-15.1,2.5-18c-10.3-2.5-17.2,4.2-21.7,9.6
	c-3.4,4.2-4.6,9.2-10.2,12.5H956.3z"/>
<path class="st1" d="M865.3,1101.8c-5.4-0.6-10.3-1.9-15.3-4c-6.9-3.1-14.9-15.1-2.5-18c10.3-2.5,17.2,4.2,21.7,9.6
	c3.4,4.2,4.6,9.2,10.2,12.5H865.3z"/>
<path class="st1" d="M810.7,795.9c13,3.1,25.5-1.1,30.1,5.4c9,12.8-3.6,37.2-44.1,29.3c-27.2-5.2-80.1-31-103.7-39.5
	c-51.2-18.2-87.2-20.7-110.4-6.7c0,0,28.4-38.5,92.2-28.4C749,767.7,771.4,786.7,810.7,795.9z"/>
<path class="st0" d="M727.1,477c0,0,18,245.3-226.1,403.8l-81.8-38.7c0,0-36.2-144.5-27-244.2c9.2-99.7,80.1-246.1,292.1-251.8
	c0,0,112.1-186.3,332.5-168.7c304.1,24.3,416.8,413.8,302.8,685c0,0-15.1-106.9-124-162.3C1086.6,644.7,854.2,609.8,727.1,477z"/>
<path class="st1" d="M502.3,862.4c93-168.7-1.3-192.6-30.1-327c-8.8-40.8,19.5-126.1,75.5-160.2C440,423.9,398.8,523.9,391.9,597.9
	c-9.2,99.7,27,244.2,27,244.2l71.9,33.9C494.6,871.8,499.2,867.7,502.3,862.4z"/>
<path class="st2" d="M1685.5,774.8c-4.6-104.4-70.9-156.8-134.3-206.2c-63.4-49.4-101.6-75.1-199.7-195.1
	C1253,253.3,1134.2,184.3,1018,177.6l-1.3-0.2c-91.8-7.5-164.8,20.7-218.9,56c127.6-51.6,285.9-48.5,391.3,61.1
	c78.6,81.6,139.5,240.1,260.8,325.8C1569.8,705,1745.5,835,1588.8,985C1647.8,944.4,1690.1,879.2,1685.5,774.8z"/>
<path class="st0" d="M1334.1,680.5l-8,173.8c0,0-8.4,107.3-19.5,128.6c-8,15.7-16.5-38.5-19.4-118.8s-25.9-114.8-25.9-114.8
	l72.8-73.4"/>
<path class="st3" d="M502.3,862.4c0,0-54.8-79.9-133-24.1c-35.5,25.3-69.8,120,0,205.1c69.8,85.1,162.5,52.9,165.2,14L502.3,862.4z"
	/>
<path class="st5" d="M502.3,862.4c0,0-54.6-79.9-133-24.1c-6.5,5-12.3,11.1-16.9,17.8c49.8-42,121.5-25.3,153.5,47.9l1.1-12.5
	L502.3,862.4z"/>
<path class="st0" d="M502.3,862.4c0,0,5.4,87,15.7,122.5c10.3,35.5,29.9-145.8,29.9-145.8L502.3,862.4z"/>
<path class="st5" d="M378.1,918c0,0,13.4-33.3,47-31.2s51,34.7,55.6,61.3c0,0-41.2-5.4-42.4,35.3c-1.1,36.2,34.7,48.9,49.4,40.2
	c0,0-2.7,20.3-37.4,22.6C408.4,1049,352,995,378.1,918z"/>
<path class="st23" d="M698,1072.4c-6.9,24.9-42,36.8-78.2,26.8c-36.2-10-60-38.5-53.1-63.4c6.9-24.9,42-36.8,78.2-26.6
	S704.9,1047.5,698,1072.4z"/>
<path class="st23" d="M1123.6,1072.4c6.9,24.9,42,36.8,78.2,26.8c36.2-10.2,60-38.5,53.1-63.4c-6.9-24.9-42-36.8-78.2-26.6
	C1140.5,1019.3,1116.7,1047.5,1123.6,1072.4z"/>
<path class="st5" d="M861.1,785.1c-6.3-6.7-15.3-10.2-24.5-9.6c-7.9,0.6-15.7,2.3-23,5.2c-0.2,0.2-0.4,0.6-0.4,0.8s0,0.6,0,0.8
	s0.4,0.2,0.6,0c0,0,10.5,0,10.2,0c9.4-0.4,18.8,1.3,26.4,7.3c9.8,7.7,11.3,18.2,13,29.7c0.2,1.5,1.5,4.2,3.6,3.8
	C883.1,819.6,867,791.7,861.1,785.1z"/>
<path class="st5" d="M954,764.1c-5.2-7.7-6.9-17.1-4.2-26.1c2.1-7.7,5.6-14.8,9.8-21.5c0.2-0.2,0.6-0.4,1-0.2l0.8,0.2
	c0.4,0,0.2,0.6-0.2,0.6c0,0-2.3,10.2-2.1,10c-2.3,9.2-2.7,18.8,1.7,27.4c5.6,11.1,15.5,14.8,26.4,19c1.5,0.6,3.8,2.5,3.1,4.4
	C983.3,792.8,959.2,771.3,954,764.1z"/>
<path class="st1" d="M986.6,746.2c6.5,19.2,71.3-14,136.1-5.2c63.1,8.6,97.7,32.4,120.4,56.7c1.7,1.7,4.6,1.9,6.3,0.2
	c1.3-1.3,1.7-3.4,1-5.2c-14.4-33.5-58.1-66.5-100.2-80.5C1050,679,978,721.3,986.6,746.2z"/>
<path class="st1" d="M912.8,1195.1c-42.4-3.8-134.9,32.6-134.9,32.6s50.4,48.3,126.9,55.2c76.5,6.9,134.7-31.2,134.7-31.2
	S954.4,1198.9,912.8,1195.1z"/>
<path class="st24" d="M916.5,1253.9c-49.6-1.1-73.8,10.9-73.8,10.9l73.2,17.1l73.8-13.6C989.7,1268.3,966.1,1255.1,916.5,1253.9z"/>
<path class="st22" d="M821.6,1216.7c0,0,49.4,0.6,88.7,4s88,12.1,88,12.1s-14.6-31.2-85.7-37.8S821.6,1216.7,821.6,1216.7z"/>
<linearGradient id="SVGID_14_" gradientUnits="userSpaceOnUse" x1="1205.8798" y1="2976.7017" x2="1205.8798" y2="3050.3335" gradientTransform="matrix(1 0 0 1 -297.28 -1723.47)">
	<stop  offset="0" style="stop-color:#F6A57B"/>
	<stop  offset="1" style="stop-color:#F38B67"/>
</linearGradient>
<path class="st25" d="M901.9,1272.5c-31.2-2.9-75.1-43.5-124-44.8c0,0,15.1,88.5,122.8,100.2c105.8,11.3,138.6-76.3,138.6-76.3
	C984.3,1248.7,933.3,1275.4,901.9,1272.5z"/>
<path class="st26" d="M963.4,1180.1c-20.7-8.4-39.1,0.8-49.4,0c-10.3-0.8-26.6-13.4-48.5-8.8s-93.5,52.5-87.8,56.3
	c15.3,8.8,53.9-30.3,133.8-20.3c80.5,4.6,111.2,50.2,127.8,44.3C1046,1248.9,984.1,1188.8,963.4,1180.1z"/>
<path class="st26" d="M902.1,1325c-51.7-4.8-80.5-27.4-80.5-27.4c5.6,17.4,60.4,35.3,79.5,37.2c19.2,1.9,72.1-4.6,80.9-20.7
	C982.2,1314.1,954,1329.8,902.1,1325z"/>
<path class="st22" d="M1024.7,949.4c0,0,4.2-79.2,76.9-99.3c72.6-20.1,119.4,37.9,119.4,37.9s0.6,75.3-78.8,97.5
	C1068.4,1006.3,1024.7,949.4,1024.7,949.4z"/>
<path class="st5" d="M1021.7,945.6c0,0-16.3-49.6-6.1-80.9c10.2-31.2,54.6-83,131.5-69.2c76.9,13.8,84.7,91.8,84.7,91.8
	s-47.1-58.1-129.9-37C1035.7,866.8,1021.7,945.6,1021.7,945.6z"/>
<path class="st27" d="M1024.7,949.4c5.2,1.3,6.9-36.2,37-63.2c23.4-21.1,70.3-34.3,106.7-20.1c32,12.5,42.7,28.2,42.7,28.2
	c-2.3,23.8-12.5,46.2-29.1,63.6c-23.2,23.8-53.3,28.6-51.7,30.5c3.1,3.8,33.5-1.9,59.6-23.4c20.9-17.2,41-46.8,41.6-77.8
	c-3.1-18.2-57.7-58.5-112.1-47.7c-54.4,10.7-80.7,40.2-90.3,67.7C1019.6,934.4,1019.4,947.9,1024.7,949.4z"/>
<ellipse transform="matrix(0.1602 -0.9871 0.9871 0.1602 18.9897 1876.2549)" class="st1" cx="1112.1" cy="927" rx="56.7" ry="56.7"/>
<path class="st28" d="M1084.2,927c0-15.3,12.5-28,28-28c15.3,0,28,12.5,28,28c0,15.3-12.5,28-28,28
	C1096.6,954.9,1084.2,942.3,1084.2,927L1084.2,927z"/>
<path class="st22" d="M1108.9,909.9c0-7.7,6.1-13.8,13.8-13.8c7.7,0,13.8,6.1,13.8,13.8c0,7.7-6.1,13.8-13.6,13.8l0,0
	C1115,923.5,1108.9,917.4,1108.9,909.9z"/>
<path class="st22" d="M802.4,938.3c0,0-12.8-78.2-87.2-90.3c-74.4-12.1-114.6,50.8-114.6,50.8s7.7,74.9,88.9,88.4
	C765.1,999.6,802.4,938.3,802.4,938.3z"/>
<path class="st5" d="M805.1,934.3c3.3-19.7,0.8-39.9-7.3-58.3c-13.4-29.9-62.3-68.8-137.2-47s-68.8,70-68.8,70s30.1-38.1,114.8-26.4
	C774.1,881.9,805.1,934.3,805.1,934.3z"/>
<path class="st1" d="M656.2,927c0-31.4,25.5-56.7,56.9-56.7c31.4,0,56.7,25.5,56.7,56.9s-25.5,56.7-56.7,56.7
	C681.9,983.9,656.2,958.4,656.2,927L656.2,927z"/>
<path class="st28" d="M740.9,927c0-15.3-12.5-28-28-28s-28,12.5-28,28c0,15.3,12.5,28,28,28C728.4,954.9,740.9,942.3,740.9,927
	L740.9,927z"/>
<path class="st22" d="M716.2,909.9c0-7.7-6.1-13.8-13.8-13.8s-13.8,6.1-13.8,13.8c0,7.7,6.1,13.8,13.8,13.8l0,0
	C710.1,923.5,716.2,917.4,716.2,909.9z"/>
<path class="st27" d="M802.4,938.3c-5,1.9-6.9-15.9-41.8-36c-22-12.6-40.8-18.2-93.3-15.9c-19.9,0.8-39.7,5-58.3,12.5
	c0,0,7.5,39.7,37.8,64.8c25.7,21.1,56,22.6,54.6,24.7c-2.7,4-33.5,1.7-61.9-16.9c-22.6-14.8-45.8-42-49.8-72.8
	c1-18.4,44.8-40.2,97.4-38.5c45.4,1.5,69.6,9,102.9,45.6C804.9,922,807.6,936.2,802.4,938.3z"/>
<path class="st24" d="M967.6,1260.4c-40.6-21.8-112.1-23.6-143.2-3.4s20.1,37.8,58.1,28c21.1-5.4,53.7-16.5,72.3-21.5L967.6,1260.4z
	"/>
<path class="st29" d="M899.2,1247.6c-5.7,2.1-11.3,4.6-16.5,7.7c24.9-8.4,58.8-0.8,55.4,0c-13,2.7-32.4,8.6-56.3,18.8
	c-23.2,9.8-56,6.3-65,0.6c7.9,10.9,40.1,16.9,65.9,10.3c21.1-5.4,53.7-16.5,72.3-21.5l12.8-3.1c-23-12.5-55.8-18.2-85.7-17.4
	C890.6,1243.2,905.9,1245.3,899.2,1247.6z"/>
</svg>
