<svg xmlns="http://www.w3.org/2000/svg" xmlns:xlink="http://www.w3.org/1999/xlink" viewBox="0 0 275.06 471.38"><defs><style>.cls-1{fill:#fff;}.cls-2{fill:#351a0f;}.cls-3{fill:#d8e0f3;}.cls-4{fill:#feebdb;}.cls-5{fill:#f39234;}.cls-6{fill:#f3d0ae;}.cls-7{fill:#ef7839;}.cls-8{clip-path:url(#clip-path);}.cls-9{clip-path:url(#clip-path-2);}.cls-10{clip-path:url(#clip-path-3);}</style><clipPath id="clip-path"><path id="SVGID" class="cls-1" d="M180.05,179.91c-8,1.22-15.92-2.46-17.77-9.94-7.14-28.88,8.69-69.38,17.56-70.62,21.21-3,41.46,46.48,38,59.05C214.8,169.72,208.8,175.5,180.05,179.91Z"/></clipPath><clipPath id="clip-path-2"><path id="SVGID-2" data-name="SVGID" class="cls-1" d="M114.75,179.91c8,1.22,15.92-2.46,17.77-9.94,7.14-28.88-8.69-69.38-17.56-70.62-21.21-3-40.92,46.35-38,59.05C79.29,168.89,86,175.5,114.75,179.91Z"/></clipPath><clipPath id="clip-path-3"><path id="SVGID-3" data-name="SVGID" class="cls-2" d="M148.42,207.8c-5.17,12.74-20.57,21.66-17.07,29.62s33.23,6.54,35.87,0C170.57,229.14,151,215,148.42,207.8Z"/></clipPath></defs><title>Assustado</title><g id="Camada_2" data-name="Camada 2"><g id="Camada_1-2" data-name="Camada 1"><path class="cls-3" d="M51,457.78c0,7.51,42.47,13.6,94.85,13.6s94.85-6.09,94.85-13.6-42.46-13.6-94.85-13.6S51,450.27,51,457.78Z"/><path class="cls-4" d="M64.5,323.31S56.75,320.2,48,317.15c-5-16.83-4-30.43,4.14-36.4A13.3,13.3,0,0,1,55,279.12c12.53,3.95,27,11.21,42.49,21.82-13.06-4.74-32.7-10.82-37-6.17C54.07,301.85,64.5,323.31,64.5,323.31Z"/><path class="cls-5" d="M135.43,432.51c-34.07,4-68.92-24.19-88.24-53.93-5-7.64-13.08-19.93-20.45-33.43l12,2.47s-18.26-33.53-14.05-36S64.5,323.31,64.5,323.31s-10.43-21.46-3.93-28.54c4.26-4.65,23.9,1.43,37,6.17,26.81,18.33,45.49,39.74,74.24,78.31C171.77,379.25,183.33,426.94,135.43,432.51Z"/><path class="cls-6" d="M26.4,276.44l-.1,0-5.05-10.29.89,11.66C14,281.28,10,291.37,10.39,299.52L0,291.82,10.69,303c1.06,8.65,4.54,18.48,9.06,28.29L6.38,324.84,21.6,335.21c1.63,3.35,3.36,6.68,5.14,9.94l12,2.47s-18.26-33.53-14.05-36c2.25-1.33,13.41,2.1,23.31,5.57-5-16.83-4-30.43,4.14-36.4A13.3,13.3,0,0,1,55,279.12a55,55,0,0,0-7.36-2L49,268l-4.8,8.42A53.13,53.13,0,0,0,26.4,276.44Z"/><path class="cls-7" d="M135.43,432.51c-34.07,4-68.92-24.19-88.24-53.93-5-7.64-13.08-19.93-20.45-33.43l12,2.47s-18.26-33.53-14.05-36c2.25-1.33,13.41,2.1,23.31,5.57C52.41,332,78.66,347.62,88,308c42.86-14.77,48.58,114.45,63.85,103.21,14.82-10.92,5.9-47.33-19.83-82.41,16.86,15.63,22.86,27.84,39.74,50.48C171.77,379.25,183.33,426.94,135.43,432.51Z"/><path class="cls-7" d="M209.49,310.2l-4.42-6.67-16.41-24.86-7.43-11.24,7.12-17.18C194.58,257,219.19,291.82,209.49,310.2Z"/><path class="cls-5" d="M206.78,317.63c0,15-2,64.39-28.75,85.82a44.73,44.73,0,0,1-21.69,9.45,55.32,55.32,0,0,1-16.91,0,44.79,44.79,0,0,1-22.05-9.9c-26.21-21.69-28.16-70.5-28.16-85.35,0-15.52,9.77-43.25,21-63.86a115.58,115.58,0,0,1,11.48-17.62h52.62c4.65,5.64,9.52,13.61,14,22.53C198.46,278.61,206.78,303.31,206.78,317.63Z"/><path class="cls-7" d="M188.35,258.68c-15.88,15.45-22.08,33.14-31.2,33.14-8.8,0-31-28-46.94-38a115.58,115.58,0,0,1,11.48-17.62h52.62C179,241.79,183.83,249.76,188.35,258.68Z"/><path class="cls-7" d="M206.78,317.63c0,15-2,64.39-28.75,85.82a44.73,44.73,0,0,1-21.69,9.45,55.32,55.32,0,0,1-16.91,0,44.79,44.79,0,0,1-22.05-9.9c-26.21-21.69-28.16-70.5-28.16-85.35a3.24,3.24,0,0,1,0-.44c.12,16,2.73,61.4,28.14,81.92a45.28,45.28,0,0,0,22.05,9.69,55.92,55.92,0,0,0,8.58.63,54.19,54.19,0,0,0,8.33-.62A45.16,45.16,0,0,0,178,399.58c25.94-20.3,28.6-66.28,28.73-82.39A3.24,3.24,0,0,1,206.78,317.63Z"/><path class="cls-4" d="M195.61,318.69c0,18-1,82.54-47.61,82.54s-47.24-64.58-47.24-82.54c0-1.72,0-3.41.13-5.13a155.09,155.09,0,0,1,5.89-35.62,166.39,166.39,0,0,1,7.59-21.27,106.16,106.16,0,0,1,11.49-20.52h44.27c4.85,6.53,9.74,16.11,13.9,27a193.15,193.15,0,0,1,6.44,20.08,164.62,164.62,0,0,1,4.41,23.26A108,108,0,0,1,195.61,318.69Z"/><path class="cls-6" d="M194.37,302.45s0,.05,0,.07a169,169,0,0,0-3.89-19.29l-9-18.73c.84-.49,1.69-.95,2.56-1.35-4.16-10.89-9.05-20.47-13.9-27H125.86a107.23,107.23,0,0,0-11.49,20.52c1.44,1.09,2.86,2.26,4.26,3.49l-3-.64-8.85,18.4A165.72,165.72,0,0,0,101.86,302c0,.34-.09.72-.13,1.1-.08.69-.17,1.38-.24,2.07-.11,1.09-.21,2.18-.29,3.28,0,.24,0,.49-.07.74-.23,3.17-.37,6.33-.37,9.46,0,18,.58,82.54,47.24,82.54s47.61-64.58,47.61-82.54A116.13,116.13,0,0,0,194.37,302.45ZM150,340.81c-12,0-35.58-4.3-44.58-24.71,15.56-12.28,19.16-38.5,20-49.44,10.67,10.85,19.71,22.7,25.76,22.7,5.15,0,11.06-7.6,18.28-14.94,1.21,10.71,5.55,31.9,21,42.6C185.64,327.67,174.74,340.81,150,340.81Z"/><path class="cls-2" d="M116.57,409.43l-9.12,12.77s5.47,28,20.07,41.35h14s1.83-6.69,0-10.95-11.25,3.65-22.5-29.49l5.88-12.76Z"/><path class="cls-2" d="M177.31,409.43l9.13,12.77s-5.48,28-20.07,41.35h-14s-1.83-6.69,0-10.95,11.24,3.65,22.49-29.49L169,410.35Z"/><path class="cls-5" d="M89.21,317.62S64.28,354.1,74.62,379,116,419.77,130.56,414.3,144.54,345,89.21,317.62Z"/><path class="cls-5" d="M206.56,317.62S231.49,354.1,221.15,379s-41.34,40.74-55.94,35.27S151.23,345,206.56,317.62Z"/><path class="cls-7" d="M130.55,414.3c-14.59,5.48-58.05-22.8-58-55.17a21.13,21.13,0,0,0,2.12,6.14C85,384.61,116,396.89,130.55,392.64c3.48-1,6.11-4.62,7.3-9.8C140.24,399,136.77,412,130.55,414.3Z"/><path class="cls-7" d="M221.15,379C210.81,404,179.8,419.78,165.21,414.3c-6.22-2.33-9.67-15.26-7.3-31.44,1.19,5.18,3.81,8.75,7.3,9.78,14.59,4.25,45.6-8,55.94-27.37a21.43,21.43,0,0,0,2.12-6.14C224.11,366,223.71,372.86,221.15,379Z"/><path class="cls-5" d="M128.64,107.54c-1.36,14.92-18.86,28.38-30.23,30.5-22.86,4.23-44.66-.35-52.86-11.64a17.65,17.65,0,0,1-2.28-4.2,49.94,49.94,0,0,1-2.61-16.82C40.21,67.2,65.57,4.26,73.61,2.05,81.84-.23,111,21.9,124,56.32a98.12,98.12,0,0,1,5.46,21.33A91.42,91.42,0,0,1,128.64,107.54Z"/><path class="cls-7" d="M80.35,22.27c-8.83.69-34.28,72.48-25.06,81.1S100.4,98.64,104.46,90s-12.3-18.14-12.3-18.14l17.45,1.2L93.4,51.44l13.72,2.29S90.84,21.45,80.35,22.27Z"/><path class="cls-7" d="M128.64,107.54c-1.36,14.92-18.86,28.38-30.23,30.5-22.86,4.23-44.66-.35-52.86-11.64,14.24-26.38,37.38-51.54,75-65.5A48.11,48.11,0,0,1,124,56.32a98.12,98.12,0,0,1,5.46,21.33A91.42,91.42,0,0,1,128.64,107.54Z"/><path class="cls-5" d="M156.6,105.65c1.36,14.92,18.86,28.38,30.23,30.5,22.86,4.23,44.66-.35,52.86-11.64a17.65,17.65,0,0,0,2.28-4.2,50.18,50.18,0,0,0,2.62-16.82C245,65.31,219.67,2.37,211.63.16,203.4-2.12,174.22,20,161.21,54.43a98.69,98.69,0,0,0-5.46,21.33A91.43,91.43,0,0,0,156.6,105.65Z"/><path class="cls-7" d="M204.89,20.38c8.83.69,34.28,72.48,25.06,81.1s-45.11-4.74-49.17-13.35S193.08,70,193.08,70l-17.45,1.2,16.21-21.65-13.72,2.29S194.4,19.56,204.89,20.38Z"/><path class="cls-7" d="M156.6,105.65c1.36,14.92,18.86,28.38,30.23,30.5,22.86,4.23,44.66-.35,52.86-11.64C225.45,98.13,202.31,73,164.66,59a48.11,48.11,0,0,0-3.45-4.58,98.69,98.69,0,0,0-5.46,21.33A91.43,91.43,0,0,0,156.6,105.65Z"/><path class="cls-5" d="M269.9,163.19l-15.69,7.89q-2.36-8.36-5.05-15.77l7.06-10.59-9.16,5c-32.2-81.49-93.17-76.63-93.17-76.63l-4.45-33.06a92.88,92.88,0,0,1-6.69,29.5l-4.63-48c-2.36,39.74-7.79,49.14-7.79,49.14C81.08,86.63,55.65,118.82,42.58,149.5l-10-5.47L40.2,155.4c-2,5.23-3.62,10.37-5,15.35l-15-7.56,13.33,14.39c-5.85,25.5-4.42,45-4.42,45s44.95-29.78,119-26.65c0,0,42.72-1.37,114,13.3a305.58,305.58,0,0,0-6.06-31.15Z"/><path class="cls-4" d="M262.15,209.26S186.5,238,150.28,279.65c0,0-50.56-55-121.18-57,0,0,52.36-44.58,119-26.65C148.13,196,199.75,175.77,262.15,209.26Z"/><path class="cls-2" d="M140.07,187.77l15-.67c2.64-.11,4.09,3.31,2.3,5.43L150.2,201a2.8,2.8,0,0,1-4.19.19l-7.82-7.84C136.24,191.44,137.43,187.89,140.07,187.77Z"/><path class="cls-7" d="M168.44,178.84c-20.75-3.8-4.81-85.69,9-87.09,26.75-2.74,46.87,44.43,45.9,66.42C222.93,166.86,203,185.17,168.44,178.84Z"/><path class="cls-7" d="M127,178.84c20.76-3.8,4.81-85.69-9-87.09C91.31,89,71.19,136.18,72.16,158.17,72.54,166.86,92.49,185.17,127,178.84Z"/><path id="SVGID-4" data-name="SVGID" class="cls-1" d="M180.05,179.91c-8,1.22-15.92-2.46-17.77-9.94-7.14-28.88,8.69-69.38,17.56-70.62,21.21-3,41.46,46.48,38,59.05C214.8,169.72,208.8,175.5,180.05,179.91Z"/><g class="cls-8"><path class="cls-2" d="M175.21,139.66c-.41,8.15,4.9,15.17,11.87,15.68s12.95-5.67,13.36-13.81-4.9-15.17-11.87-15.68S175.62,131.52,175.21,139.66Z"/></g><path class="cls-2" d="M177,181c-7.62,0-13.9-4.24-15.53-10.84-5.7-23.06,3.15-53.57,11.45-65.84,2.45-3.61,4.75-5.59,6.85-5.88,6.26-.88,13,2.57,19.54,10,12.8,14.53,22,41,19.48,50.2-3.19,11.72-9.51,17.7-38.56,22.15l-.13-.87.13.87A21.15,21.15,0,0,1,177,181Zm4.71-80.92a14,14,0,0,0-1.7.11c-1.53.22-3.53,2-5.62,5.13-8.12,12-16.78,41.85-11.2,64.41C165,177.25,173,180.1,179.91,179h0c28.25-4.33,34.08-9.7,37.12-20.86,2.33-8.59-6.86-34.66-19.11-48.57C194,105.16,188.13,100.11,181.66,100.11Z"/><path class="cls-2" d="M172.11,70.14c-1.67,1.82.72,7.39,5.34,12.43s9.72,7.65,11.39,5.83S188.12,81,183.5,76,173.78,68.31,172.11,70.14Z"/><path class="cls-1" d="M189.57,126.72c-.27,3,1.44,5.62,3.8,5.87s4.5-2,4.77-5-1.44-5.62-3.8-5.87S189.84,123.72,189.57,126.72Z"/><path id="SVGID-5" data-name="SVGID" class="cls-1" d="M114.75,179.91c8,1.22,15.92-2.46,17.77-9.94,7.14-28.88-8.69-69.38-17.56-70.62-21.21-3-40.92,46.35-38,59.05C79.29,168.89,86,175.5,114.75,179.91Z"/><g class="cls-9"><path class="cls-2" d="M121.23,139.66c.41,8.15-4.9,15.17-11.87,15.68s-13-5.67-13.36-13.81,4.9-15.17,11.87-15.68S120.82,131.52,121.23,139.66Z"/></g><path class="cls-2" d="M117.85,181a21.18,21.18,0,0,1-3.24-.25c-29.2-4.47-36.08-11.25-38.56-22.18-2.2-9.7,7.7-37.28,20.45-51.14,6.26-6.82,12.52-9.84,18.58-9,2.1.29,4.4,2.27,6.84,5.88,8.3,12.27,17.16,42.78,11.46,65.84C131.75,176.79,125.46,181,117.85,181Zm-4.76-80.93c-4.93,0-10.06,2.87-15.29,8.56-12.92,14.06-21.92,41.16-20,49.54,2.3,10.17,8.9,16.51,37.1,20.83,6.94,1.07,14.93-1.78,16.78-9.27,5.58-22.56-3.09-52.41-11.21-64.41-2.09-3.09-4.08-4.91-5.62-5.13A12.72,12.72,0,0,0,113.09,100.1Z"/><path class="cls-1" d="M117.21,126.72c.27,3-1.44,5.62-3.8,5.87s-4.5-2-4.77-5,1.44-5.62,3.8-5.87S116.94,123.72,117.21,126.72Z"/><path class="cls-2" d="M117,70.14c1.67,1.82-.72,7.39-5.34,12.43s-9.72,7.65-11.39,5.83S101,81,105.59,76,115.31,68.31,117,70.14Z"/><path id="SVGID-6" data-name="SVGID" class="cls-2" d="M148.42,207.8c-5.17,12.74-20.57,21.66-17.07,29.62s33.23,6.54,35.87,0C170.57,229.14,151,215,148.42,207.8Z"/><g class="cls-10"><path class="cls-1" d="M135.49,242.87s1.94-6,3.31-5.81,1.71,7,1.71,7Z"/><path class="cls-1" d="M163.17,242.87s-1.94-6-3.31-5.81-1.71,7-1.71,7Z"/></g><path class="cls-5" d="M205.78,312.74c-3.74.91-10.41-2.25-16.8-9.63,13.28,0,15.87-10.35,16.28-15.82C212.79,299.38,212.93,311,205.78,312.74Z"/><path class="cls-2" d="M189,303.11c-6.54-7.51-12.76-19.44-15.27-35.95-5.59-36.71,3.48-53.06,11-51.06,10.29,2.71-2.67,37.48,19.2,69.21.45.66.9,1.32,1.3,2C204.85,292.76,202.26,303.08,189,303.11Z"/><path class="cls-7" d="M85.21,310.2l4.41-6.67L106,278.67l7.42-11.24-7.12-17.18C100.11,257,75.51,291.82,85.21,310.2Z"/><path class="cls-5" d="M88.92,312.74c3.73.91,10.4-2.25,16.8-9.63-13.29,0-15.87-10.35-16.29-15.82C81.91,299.38,81.77,311,88.92,312.74Z"/><path class="cls-2" d="M105.72,303.11c6.53-7.51,12.76-19.44,15.27-35.95,5.59-36.71-3.48-53.06-11.06-51.06-10.28,2.71,2.67,37.48-19.19,69.21-.45.66-.9,1.32-1.31,2C89.85,292.76,92.43,303.08,105.72,303.11Z"/><path class="cls-2" d="M190.41,415.39a10.25,10.25,0,0,1,2.82,5.52,17.05,17.05,0,0,1,0,6.29,24.16,24.16,0,0,1-.77,3c-.33,1-.74,1.94-1.15,2.89s-1,1.82-1.5,2.7-1.18,1.69-1.83,2.49c.3-1,.66-1.94,1-2.88s.64-1.91,1-2.84a46.79,46.79,0,0,0,1.44-5.71,23.47,23.47,0,0,0,.4-5.79A15.73,15.73,0,0,0,190.41,415.39Z"/><path class="cls-2" d="M103.65,415.39a15.53,15.53,0,0,0-1.42,5.71,23,23,0,0,0,.4,5.79,43.39,43.39,0,0,0,1.44,5.71c.35.93.65,1.89,1,2.84s.73,1.88,1,2.88c-.65-.8-1.24-1.64-1.83-2.49s-1-1.78-1.5-2.7-.83-1.9-1.16-2.89a24.12,24.12,0,0,1-.76-3,16.84,16.84,0,0,1,0-6.29A10.33,10.33,0,0,1,103.65,415.39Z"/><path class="cls-7" d="M227.7,345.59a33.38,33.38,0,0,1,4.44,10.66,36,36,0,0,1,.86,11.62l-.13,1.46c-.07.48-.17,1-.25,1.44-.2,1-.31,1.94-.59,2.88l-.86,2.8a19.72,19.72,0,0,1-1.12,2.7l-.6,1.33a7.85,7.85,0,0,1-.68,1.28l-1.52,2.48a18.61,18.61,0,0,1-1.74,2.31c-.61.75-1.22,1.49-1.85,2.21.47-.84,1-1.67,1.43-2.49a21.66,21.66,0,0,0,1.39-2.49,43,43,0,0,0,2.26-5.17,39,39,0,0,0,2.44-10.9,43.23,43.23,0,0,0-.43-11.18A51.78,51.78,0,0,0,227.7,345.59Z"/><path class="cls-5" d="M63.35,343.78a52.49,52.49,0,0,0-3.06,10.93,43.75,43.75,0,0,0-.42,11.19,39,39,0,0,0,2.44,10.9A43.75,43.75,0,0,0,64.57,382,21.58,21.58,0,0,0,66,384.46c.49.82,1,1.65,1.44,2.49-.63-.72-1.25-1.46-1.85-2.21a18.61,18.61,0,0,1-1.74-2.31L62.28,380a7.55,7.55,0,0,1-.68-1.29L61,377.34a20.56,20.56,0,0,1-1.11-2.71L59,371.84c-.27-.94-.38-1.92-.58-2.88-.08-.48-.19-1-.25-1.44l-.13-1.46a36.34,36.34,0,0,1,.85-11.63A33.68,33.68,0,0,1,63.35,343.78Z"/><path class="cls-5" d="M267,183.25c.76,2.39,1.44,4.8,2.15,7.2s1.37,4.82,2,7.24q2,7.25,3.75,14.54l.18.74-.72.3c-2.69,1.1-5.39,2.15-8.1,3.21s-5.42,2.08-8.13,3.11-5.45,2-8.2,3-5.49,1.91-8.26,2.78c2.61-1.28,5.27-2.46,7.91-3.67s5.32-2.34,8-3.48,5.35-2.26,8-3.35,5.38-2.18,8.09-3.23l-.54,1q-1.74-7.31-3.3-14.65-.79-3.67-1.51-7.36C267.87,188.18,267.37,185.73,267,183.25Z"/><path class="cls-5" d="M23.51,196.54c-.29,2.72-.68,5.43-1,8.15s-.76,5.42-1.18,8.12q-1.22,8.12-2.64,16.2l-.78-1c2.82.28,5.63.61,8.44.93s5.61.68,8.42,1,5.61.76,8.4,1.18,5.6.87,8.39,1.39c-2.84-.08-5.66-.28-8.49-.43s-5.64-.41-8.46-.64-5.64-.49-8.45-.79-5.63-.57-8.44-.9l-1-.11.16-.93q1.46-8.08,3.09-16.12c.54-2.68,1.11-5.36,1.69-8S22.86,199.2,23.51,196.54Z"/></g></g></svg>