<svg xmlns="http://www.w3.org/2000/svg" xmlns:xlink="http://www.w3.org/1999/xlink" viewBox="0 0 294.87 464.02"><defs><style>.cls-1{fill:#fff;}.cls-2{fill:#d8e0f3;}.cls-3{fill:#feebdb;}.cls-4{fill:#f39234;}.cls-5{fill:#f3d0ae;}.cls-6{fill:#ef7839;}.cls-7{fill:#351a0f;}.cls-8{clip-path:url(#clip-path);}.cls-9{clip-path:url(#clip-path-2);}</style><clipPath id="clip-path"><path id="SVGID" class="cls-1" d="M135.21,144.15s5-62.69-27.56-62.86c-27-.15-32.47,48.15-32.47,48.15S116.35,121.84,135.21,144.15Z"/></clipPath><clipPath id="clip-path-2"><path id="SVGID-2" data-name="SVGID" class="cls-1" d="M168.49,143.48S159.54,81.24,192,79c27-1.84,35.44,46,35.44,46S185.91,120,168.49,143.48Z"/></clipPath></defs><title>Chateado</title><g id="Camada_2" data-name="Camada 2"><g id="Camada_1-2" data-name="Camada 1"><path class="cls-2" d="M24.63,450.42c0,7.51,52,13.6,116.22,13.6s116.22-6.09,116.22-13.6-52-13.6-116.22-13.6S24.63,442.91,24.63,450.42Z"/><path class="cls-3" d="M63.7,405.22s-6.11,5-12.62,10.84c-15.65-5.18-25.93-13.75-26.84-24.17a16.3,16.3,0,0,1,.06-3.42c9-8.67,21.55-17.14,37.24-24.65-9.89,8.69-23.93,22.35-22.26,28.68C41.82,402.16,63.7,405.22,63.7,405.22Z"/><path class="cls-4" d="M183.43,405.22c-12.88,31.89-51.55,46.3-84.16,46.3-8.38,0-21.91.12-36.06-1.1l7.61-9.08s-35.1-3-35.1-8.14,28-28,28-28-21.88-3.06-24.42-12.72c-1.67-6.33,12.37-20,22.26-28.68,27.11-13,63.62-23.06,107.64-26.27C169.18,337.55,201.56,360.38,183.43,405.22Z"/><path class="cls-5" d="M24.3,388.47a16.3,16.3,0,0,0-.06,3.42c.91,10.42,11.19,19,26.84,24.17-7.41,6.66-15.36,14.43-15.36,17.14,0,5.09,35.1,8.14,35.1,8.14l-7.61,9.08C37.34,448.18,8.6,441.5,7.73,421.15,7.23,409.29,13,398.34,24.3,388.47Z"/><path class="cls-6" d="M183.43,405.22c-12.88,31.89-51.55,46.3-84.16,46.3-8.38,0-21.91.12-36.06-1.1l7.61-9.08s-35.1-3-35.1-8.14c0-2.71,8-10.48,15.36-17.14,13.82,4.6,31.83,6.58,51.27,4.89,41.43-3.6,73.65-22.45,71.94-42.09-1.67-19.07-34.66-31.89-74.51-29.32a341,341,0,0,1,69.4-12S201.56,360.38,183.43,405.22Z"/><path class="cls-7" d="M120.68,395.55s1.53,30.53-4.07,56H93.21s-2.78-24.84,10.94-15c0,0,6.36-9.16,8.9-41Z"/><path class="cls-7" d="M191.58,390.8s-3.42,7-3.4,10.18c.1,12.25,4.89,33.37,16.45,50.54h22.06s2.11-24.42-15.19-14.93c0,0-20.6-27.47-14.34-41Z"/><path class="cls-6" d="M120.87,203.23l-10.61,24.38a45.63,45.63,0,0,0-16.37,1.29,179.63,179.63,0,0,1,12.45-23.06A131.28,131.28,0,0,1,120.87,203.23Z"/><path class="cls-6" d="M183.37,201.28,194,225.67A45.39,45.39,0,0,1,210.35,227a178.32,178.32,0,0,0-12.46-23.06A130.92,130.92,0,0,0,183.37,201.28Z"/><path class="cls-4" d="M197.89,203.89A178.32,178.32,0,0,1,210.35,227c10.91,2.73,24,9.47,37.37,23.1,4.09-4.68,10.11-6.78,14.56-7.72C246.45,218.43,216,208.08,197.89,203.89Z"/><path class="cls-7" d="M244.11,310.17c9.19-1.56,34.17-19.36,23.43-56.63a39.69,39.69,0,0,0-5.26-11.21c-4.45.94-10.46,3-14.56,7.71,16,27.17-3.48,44.09-3.48,44.09s-16.57-11.11-17.91.57S234.92,311.74,244.11,310.17Z"/><path class="cls-4" d="M106.34,205.84A179.63,179.63,0,0,0,93.89,228.9c-10.92,2.73-24,9.47-37.37,23.1-4.09-4.68-10.11-6.78-14.56-7.72C57.79,220.38,88.26,210,106.34,205.84Z"/><path class="cls-4" d="M233.6,366c-6.83,32.41-31,40.06-40.06,35.15-11.32-6.12-4.89-27.69-20.83-43.32-16.55,11.84-27.89,2.78-27.89,2.78-20.1,18.54-15.67,33.58-26,40.13s-32.58.63-40-33.47,18.91-57.25,18.91-57.25C90.53,271.8,101.2,233.73,111,209.26a206.59,206.59,0,0,1,12.77-26.87L177.17,189c3.77,5.26,7.14,10.44,10.16,15.52,33.7,56.9,21.83,101.23,21.83,101.23C219.17,313.45,240.43,333.61,233.6,366Z"/><path class="cls-6" d="M233.6,366c-6.83,32.41-31,40.06-40.06,35.15-11.32-6.12-4.89-27.69-20.83-43.32-16.55,11.84-27.89,2.78-27.89,2.78-20.1,18.54-15.67,33.58-26,40.13s-32.58.63-40-33.47A55.35,55.35,0,0,1,78,348.55a25.83,25.83,0,0,0,1.19,5.12c7.63,22.7,30.46,31.46,40.77,27.27,15.41-6.27,11.81-12.09,25.83-24.52,0,0,10.7,6.68,27.16-1.05,16,10.5,9.79,17.54,21.16,21.66,9.12,3.34,33.19-1.56,39.78-23a26.34,26.34,0,0,0,.93-4.09A59.31,59.31,0,0,1,233.6,366Z"/><path class="cls-6" d="M192.25,213.34c-5.6,4.51-18.63,6.28-24.18,21.52a11.12,11.12,0,0,1-18.38,3.94c-9.43-9.56-24.26-16.73-39.92-26.54a297.64,297.64,0,0,1,14-29.87L177.17,189C180.94,194.26,189.23,208.27,192.25,213.34Z"/><path class="cls-3" d="M160.46,354.88c-13.11,1.17-41.32-4.73-54.44-41.43-11.39-31.87,2.1-73.62,13.25-99.49A249,249,0,0,1,131,190l20.41-4.18,19.82-4.08s1.55,2.5,4,7,5.62,10.9,9.07,18.83C193,227.87,203,258.06,203.39,290.7,203.93,334.81,174.25,353.66,160.46,354.88Z"/><path class="cls-5" d="M160.46,354.88c-13.11,1.17-41.32-4.73-54.44-41.43-3.6-10.07-4.71-21.13-4.22-32.38,14.4,34.95,43.77,40.68,57.54,39.54,12.13-1,35.73-13.85,43.39-42.91.39,4.26.6,8.6.66,13C203.93,334.81,174.25,353.66,160.46,354.88Z"/><path class="cls-5" d="M187.73,216.07c-8.95,5-23.46,31.35-31.49,32.79-4.17.75-26.19-24-38.32-31.51C124.15,202.87,131,190,131,190l20.41-4.18,23.77,2.93C177.59,193.2,184.28,208.13,187.73,216.07Z"/><path class="cls-7" d="M60.13,312.12c-9.2-1.56-34.18-19.36-23.43-56.63A40,40,0,0,1,42,244.28c4.46.94,10.47,3.05,14.56,7.71-16,27.17,3.48,44.09,3.48,44.09s16.58-11.11,17.92.57S69.32,313.69,60.13,312.12Z"/><path class="cls-4" d="M112.44,85.33c-15.81,22.35-38.22,36.24-52.06,30.48-4.48-1.85-9-5.15-13.51-9.53a99,99,0,0,1-7.16-7.85C16.16,69.67-3.53,17.7.53,10.84,6,1.6,57.72-6.21,94.19,20.69a81.58,81.58,0,0,1,12.33,11.23,83.85,83.85,0,0,1,7.59,9.87C123.33,53,119.5,75.36,112.44,85.33Z"/><path class="cls-6" d="M112.44,85.33c-15.81,22.35-38.22,36.24-52.06,30.48-4.48-1.85-9-5.15-13.51-9.53a99,99,0,0,1-7.16-7.85,156.21,156.21,0,0,1,66.81-66.51,83.85,83.85,0,0,1,7.59,9.87C123.33,53,119.5,75.36,112.44,85.33Z"/><path class="cls-6" d="M19.46,19.63c-6.12,7.09,24.15,75.31,37,74.3S86.88,56.87,84,47.93s-21.64-3.18-21.64-3.18L76.22,32.48l-27-2.66,11.83-8.73S26.74,11.2,19.46,19.63Z"/><path class="cls-4" d="M182.43,83.13c15.81,22.35,38.22,36.23,52.07,30.48a44.11,44.11,0,0,0,13.5-9.54,97.31,97.31,0,0,0,7.16-7.85c23.55-28.76,43.24-80.73,39.18-87.58-5.49-9.24-57.18-17-93.66,9.85a81,81,0,0,0-12.33,11.22,84.81,84.81,0,0,0-7.59,9.88C171.54,50.83,175.37,73.16,182.43,83.13Z"/><path class="cls-6" d="M182.43,83.13c15.81,22.35,38.22,36.23,52.07,30.48a44.11,44.11,0,0,0,13.5-9.54,97.31,97.31,0,0,0,7.16-7.85,156.33,156.33,0,0,0-66.81-66.51,84.81,84.81,0,0,0-7.59,9.88C171.54,50.83,175.37,73.16,182.43,83.13Z"/><path class="cls-6" d="M275.41,17.42c6.12,7.1-24.15,75.32-37,74.31s-30.46-37.06-27.58-46,21.64-3.19,21.64-3.19L218.65,30.28l27-2.67L233.8,18.89S268.13,9,275.41,17.42Z"/><path class="cls-4" d="M276.74,180.77C200.53,150,154.07,166.46,154.07,166.46c-74.44-4.4-130.34,28.29-130.34,28.29S17.23,75,127.11,37.86c0,0,8.55-12.28,26.68-22.7L142.56,35.52c.63-.51,10.89-8.65,23.23-12.24l-3.42,13.63S255.11,41.93,276.74,180.77Z"/><path class="cls-3" d="M276.74,180.77s-86.58,11.17-118.51,56.39c0,0-58.13-52.72-134.5-42.41,0,0,49.7-57.28,130.34-28.29C154.07,166.46,202.91,133.72,276.74,180.77Z"/><path class="cls-6" d="M138.12,149.31s18.25-81.47-27.59-89.49c-32.95-5.76-47.05,72.5-47.05,72.5S114.71,114.81,138.12,149.31Z"/><path class="cls-7" d="M145.54,158.5l15.87-.62a3.15,3.15,0,0,1,2.43,5.27l-7.6,8.24a3.14,3.14,0,0,1-4.43.18L143.54,164A3.14,3.14,0,0,1,145.54,158.5Z"/><path id="SVGID-3" data-name="SVGID" class="cls-1" d="M135.21,144.15s5-62.69-27.56-62.86c-27-.15-32.47,48.15-32.47,48.15S116.35,121.84,135.21,144.15Z"/><g class="cls-8"><path class="cls-7" d="M126.25,123.06c-1.94,15.83-12.74,27.53-24.13,26.14S83.07,133.85,85,118s12.73-27.53,24.12-26.14S128.18,107.24,126.25,123.06Z"/></g><path class="cls-7" d="M136.05,146.76l-1.64-1.93c-18.24-21.59-58.63-14.44-59-14.36l-1.39.25.16-1.4c.23-2,5.87-49.08,33.39-49.08h.13a21.71,21.71,0,0,1,16.46,7.3c15.16,16.5,12.26,55.06,12.13,56.69ZM91.44,127.09c13.16,0,31.24,2.52,42.86,14.5.38-8.85.69-39.14-11.72-52.64a19.7,19.7,0,0,0-14.94-6.62h-.11c-23.17,0-30,38.06-31.12,45.85A101.88,101.88,0,0,1,91.44,127.09Z"/><path class="cls-7" d="M127.09,195.76a2.47,2.47,0,0,1-1.55-.55l-2.92-2.28,1.29-1.65,2.91,2.28c.43.33,1-.27,1.15-.46l1.53-1.83c5.71-6.85,12.82-15.38,25.32-15.41h0c10.16,0,20.25,9.61,24.17,16.44.5.87.77,1,.94.93l2.77-2,1.21,1.71-3.12,2.18c-.95.38-2.36.37-3.61-1.81-3.67-6.4-13-15.39-22.36-15.39h0c-11.52,0-18.28,8.14-23.71,14.66-.53.63-1,1.25-1.55,1.84A3.31,3.31,0,0,1,127.09,195.76Z"/><path class="cls-1" d="M119.07,105.05a6.07,6.07,0,1,1-5.29-6.77A6.07,6.07,0,0,1,119.07,105.05Z"/><path class="cls-6" d="M165.79,152.1s-16.74-87.56,22-94.33c32.94-5.75,46.77,68.71,46.77,68.71S188.53,117.15,165.79,152.1Z"/><path id="SVGID-4" data-name="SVGID" class="cls-1" d="M168.49,143.48S159.54,81.24,192,79c27-1.84,35.44,46,35.44,46S185.91,120,168.49,143.48Z"/><g class="cls-9"><path class="cls-7" d="M174.66,121.92c2.93,15.68,14.45,26.67,25.73,24.57s18-16.52,15.11-32.2-14.44-26.67-25.72-24.57S171.74,106.25,174.66,121.92Z"/></g><path class="cls-1" d="M204.42,100.75A6.07,6.07,0,1,1,199.13,94,6.07,6.07,0,0,1,204.42,100.75Z"/><path class="cls-7" d="M167.82,146.14l-.36-2.51c-.23-1.62-5.55-39.92,8.53-57.35A21.71,21.71,0,0,1,192,78c27.57-1.88,36.18,44.88,36.54,46.87l.24,1.39-1.4-.17c-.41,0-41.17-4.64-58,18.05ZM193.53,80c-.47,0-.94,0-1.42,0a19.74,19.74,0,0,0-14.49,7.55c-11.53,14.26-9.32,44.47-8.38,53.28,16.56-19.39,49.56-17.69,56.93-17C224.57,116.28,215.68,80,193.53,80Z"/><path class="cls-4" d="M207.71,69.71c-7.85,18.84-32.28,32.58-61.19,32.58S93.18,88.55,85.33,69.71c19.51-27.19,63.52-28.71,128-8.82Z"/><path class="cls-7" d="M128,83.93c-1.44,2-7.19.45-12.83-3.55s-9-8.89-7.6-10.93S114.8,69,120.45,73,129.49,81.88,128,83.93Z"/><path class="cls-7" d="M167.7,83.93c1.44,2,7.19.45,12.83-3.55s9-8.89,7.6-10.93S180.93,69,175.29,73,166.25,81.88,167.7,83.93Z"/></g></g></svg>