<svg xmlns="http://www.w3.org/2000/svg" xmlns:xlink="http://www.w3.org/1999/xlink" viewBox="0 0 310.24 437.05"><defs><style>.cls-1{fill:#fff;}.cls-2{fill:#d8e0f3;}.cls-3{fill:#feebdb;}.cls-4{fill:#f39234;}.cls-5{fill:#f3d0ae;}.cls-6{fill:#ef7839;}.cls-7{fill:#351a0f;}.cls-8{clip-path:url(#clip-path);}.cls-9{clip-path:url(#clip-path-2);}</style><clipPath id="clip-path"><path id="SVGID" class="cls-1" d="M185.23,150.89S169.28,79,200.48,70.38c19.4-5.39,41.71,18,49.31,44,3,10.12,1.52,20.84-7.79,25.79C230.8,146.09,212.61,152,185.23,150.89Z"/></clipPath><clipPath id="clip-path-2"><path id="SVGID-2" data-name="SVGID" class="cls-1" d="M151.55,154.29s-3.63-73.51-36-73.61c-20.13-.06-35.47,28.37-35.92,55.44-.18,10.55,4,20.51,14.33,22.81C106.33,161.71,125.42,162.56,151.55,154.29Z"/></clipPath></defs><title>Fofinho</title><g id="Camada_2" data-name="Camada 2"><g id="Camada_1-2" data-name="Camada 1"><ellipse class="cls-2" cx="152.74" cy="423.44" rx="107.36" ry="13.6"/><path class="cls-3" d="M92.75,376.32s-6.59,4.05-13.67,8.88c-15-6.35-24.35-15.32-24.19-25.11a14.15,14.15,0,0,1,.42-3.18c9.86-7.2,23.2-13.87,39.58-19.34-10.74,7.13-26.11,18.48-25.11,24.54C71.31,371.36,92.75,376.32,92.75,376.32Z"/><path class="cls-4" d="M211.79,387.91c-16.1,28.45-56,38.12-88.46,35-8.33-.81-21.8-2-35.74-4.51l8.51-7.72s-34.59-6.24-34.07-11,30.72-23.34,30.72-23.34-21.44-5-23-14.21c-1-6.06,14.37-17.41,25.11-24.54,28.29-9.45,65.63-15.32,109.73-14.05C204.62,323.52,234.46,347.92,211.79,387.91Z"/><path class="cls-5" d="M55.31,356.91a14.15,14.15,0,0,0-.42,3.18c-.16,9.79,9.17,18.76,24.19,25.11-8,5.48-16.77,11.94-17,14.46-.52,4.74,34.07,11,34.07,11l-8.51,7.72c-25.49-4.59-52.79-13.57-52.13-32.62C35.84,374.65,43.37,365.23,55.31,356.91Z"/><path class="cls-6" d="M211.79,387.91c-16.1,28.45-56,38.12-88.46,35-8.33-.81-21.8-2-35.74-4.51l8.51-7.72s-34.59-6.24-34.07-11c.28-2.52,9-9,17-14.46,13.27,5.62,31,9.2,50.47,9.51,41.57.65,75.55-13.77,75.88-32.23.31-17.91-31.16-33.05-71.05-34.52a364.86,364.86,0,0,1,70.24-4.44S234.46,347.92,211.79,387.91Z"/><path class="cls-4" d="M146.87,193.85c-.91.89-18.56,18.07-28.49,35.68-4.5,8-7.42,16-6.47,22.69,0,0-11.11-.35-12.19,9.79-6.11-20.85,5-37.59,18-49.28A119.86,119.86,0,0,1,146.87,193.85Z"/><path class="cls-6" d="M146.87,193.85c-.91.89-18.56,18.07-28.49,35.68,1.17-4.71,2.05-11.53-.65-16.8A119.86,119.86,0,0,1,146.87,193.85Z"/><path class="cls-4" d="M193.66,193.49c.94.81,18.9,16.38,29.4,33.2,4.68,7.47,7.83,15.13,7.29,21.74,0,0,10.33-1.54,11.73,8.18,5-21.2-6.33-37-19.44-47.41A100.26,100.26,0,0,0,193.66,193.49Z"/><path class="cls-6" d="M193.66,193.49c.94.81,18.9,16.38,29.4,33.2-1.39-4.65-2.65-11.58-.42-17.49A100.26,100.26,0,0,0,193.66,193.49Z"/><path class="cls-6" d="M195.81,361.38a26.76,26.76,0,0,1-.69,5.89,24.77,24.77,0,0,0,13.23-2.95c7.3-4.15,8.2-13.28,5-20.39-2.77-6.05-8.29-11.37-14.82-13.09-4.12-1.07-8.7-.54-12.89-.28a146.25,146.25,0,0,0-15.47,1.8,134.79,134.79,0,0,0-26.7,7.08c-6.34,2.51-12,6.94-12.62,14.23-.61,7.61,2.83,15.49,11.26,15.54a34.22,34.22,0,0,0,9.62-1.63,7.19,7.19,0,0,1-1.2-4.76c.59-4.34,5-8.64,8.83-11a41.31,41.31,0,0,0,30.49,0S195.87,354.9,195.81,361.38Z"/><path class="cls-7" d="M133.62,423.45h19.2s9.36-16.39,5.61-50.1h-8.89s2.81,19.67-7.49,35.11C142.05,408.46,130.81,401.44,133.62,423.45Z"/><path class="cls-7" d="M219.84,423.45H200.65s-9.36-16.39-5.62-50.1h8.9s-2.81,19.67,7.49,35.11C211.42,408.46,222.65,401.44,219.84,423.45Z"/><path class="cls-4" d="M240.36,346.67C224.44,379.44,195,373.35,195,373.35s-7.09-1.4-.88-9.83a9.54,9.54,0,0,0,2-5.67c.06-6.48-6.31-12.12-6.31-12.12a41.25,41.25,0,0,1-30.49,0c-3.85,2.36-7.28,6.93-7.88,11.28a7.58,7.58,0,0,0,2.32,7c5.62,5.15,4.68,9.36,4.68,9.36-8.89,10.3-33.55-.35-45.41-12-15.46-15.17-17.92-28.8-15.84-39.29,2.62-13.28,12.49-21.53,12.49-21.53-5.39-36.86,8.62-70.19,19.4-89.38a140.6,140.6,0,0,1,11.11-17.14h58.55A83.86,83.86,0,0,1,210.31,207c26.23,36,24,88.22,24,88.22a38.53,38.53,0,0,1,11.39,22.12C246.88,325.17,246,335,240.36,346.67Z"/><path class="cls-6" d="M210.31,207c-14.95,12.46-16.3,33.77-29.41,35s-37.45-26.21-51.83-30.76a140.6,140.6,0,0,1,11.11-17.14h58.55A83.86,83.86,0,0,1,210.31,207Z"/><path class="cls-3" d="M226.07,284.78c0,1.22-.12,2.44-.21,3.68-3.2,43.91-37.14,56.18-49.33,57.42s-48.68-6.24-57.42-55.23c-.18-1-.33-1.95-.47-2.94a98.44,98.44,0,0,1-1-15.06c.26-23.41,8.32-45.13,15.43-59.76a150.62,150.62,0,0,1,10.69-18.84h51.5a153.6,153.6,0,0,1,12,15.79A113.34,113.34,0,0,1,226,266.43,153.31,153.31,0,0,1,226.07,284.78Z"/><path class="cls-5" d="M226.08,284.64c.07-1.28.11-2.55.15-3.8,0-.32,0-.64,0-1,.07-3,0-6,0-8.9l-.06-1.12c0-1.05-.09-2.1-.15-3.14,0-.1,0-.2,0-.29-.26-3.8-.65-7.49-1.2-11.07a76.07,76.07,0,0,1-2,10.54l-31.17-5L163.49,262l-40,9.28A87.25,87.25,0,0,1,119,256.35a114.6,114.6,0,0,0-1.37,16.29c0,.08,0,.16,0,.24,0,.54,0,1.07,0,1.61,0,.81,0,1.61,0,2.42,0,.63.05,1.26.08,1.88s.08,1.43.13,2.14.1,1.35.17,2,.14,1.38.22,2.08.15,1.31.24,2c0,.24,0,.48.09.71.16,1,.3,2,.47,2.93,8.74,49,45.26,56.5,57.43,55.24s46.12-13.52,49.31-57.41c.09-1.25.16-2.47.22-3.69A.66.66,0,0,0,226.08,284.64Zm-48.9,26.08c-7.62.79-33.82-2.3-42.56-22.07,15.73,0,25.08-16.39,25.08-16.39,17,28.42,30.25-.76,30.25-.76,4.53,4.21,17.16,13.84,22,13.5C207.64,305.54,184,310,177.18,310.72Z"/><path class="cls-5" d="M207.23,209.84c-12.13,12.6-14.17,31-26.33,32.11-12,1.15-33.25-21.61-47.82-29.06a150,150,0,0,1,10.69-18.84h51.5A151.12,151.12,0,0,1,207.23,209.84Z"/><path class="cls-6" d="M158.43,373.35c-8.89,10.3-33.55-.35-45.41-12-15.46-15.17-17.92-28.8-15.84-39.29C115.74,366.86,139.35,363,151.43,357a7.58,7.58,0,0,0,2.32,7C159.37,369.14,158.43,373.35,158.43,373.35Z"/><path class="cls-6" d="M240.36,346.67C224.44,379.44,195,373.35,195,373.35s-7.09-1.4-.88-9.83a9.54,9.54,0,0,0,2-5.67c30.95,11.81,44.7-23,49.55-40.56C246.88,325.17,246,335,240.36,346.67Z"/><path class="cls-4" d="M72.63,123.68c-7.78-1.8-18.39-6.54-29-20.17a101.9,101.9,0,0,1-9.72-15.23A112.93,112.93,0,0,0,3.6,52.2a9.26,9.26,0,0,1-.07-14.61C51.9-.29,89.29,21.42,106,35.92a74.39,74.39,0,0,1,9.52,9.78C139.5,74.73,82.79,126,72.63,123.68Z"/><path class="cls-6" d="M96.82,59.43c-5.8-6-25.16-2.6-25.16-2.6l8.71-13.24s-12.1-3.7-23.23,3.07c0,0,4.86-7.74,9.69-11.61-8.24-4.84-46.95,4.36-49.37,13.23-1,3.75,27.59,21.48,40.65,43.91C64.2,102.64,96.82,59.43,96.82,59.43Z"/><path class="cls-6" d="M72.63,123.68c-7.78-1.8-18.39-6.54-29-20.17C61.38,64.51,94,42.83,106,35.92a74.39,74.39,0,0,1,9.52,9.78C139.5,74.73,82.79,126,72.63,123.68Z"/><path class="cls-4" d="M244.86,108.45c7.6-2.49,17.74-8.15,27.1-22.67a101.9,101.9,0,0,0,8.32-16,113.14,113.14,0,0,1,27-38.63,9.27,9.27,0,0,0-1.22-14.56C254.51-16.88,219.19,8.07,203.85,24a74.09,74.09,0,0,0-8.61,10.59C173.91,65.63,235,111.68,244.86,108.45Z"/><path class="cls-6" d="M215.06,46.6c5.25-6.49,24.83-4.83,24.83-4.83L230,29.36s11.72-4.76,23.41,1c0,0-5.52-7.28-10.68-10.71,7.77-5.55,47.15.17,50.35,8.79,1.35,3.65-25.57,23.85-36.59,47.35C251.39,86.74,215.06,46.6,215.06,46.6Z"/><path class="cls-6" d="M244.86,108.45c7.6-2.49,17.74-8.15,27.1-22.67-21.15-37.27-55.58-56-68.11-61.79a74.09,74.09,0,0,0-8.61,10.59C173.91,65.63,235,111.68,244.86,108.45Z"/><path class="cls-4" d="M291.71,157.82c-74.25,4-119.54,13.31-119.54,13.31-72.93,9.58-128.66,29.51-128.66,29.51S23.36,83.13,127.59,33.89c0,0,7-13.11,23.73-25.48L142.57,29.8c.57-.58,9.76-9.79,21.53-14.75L162.29,28.9S254.44,23.22,291.71,157.82Z"/><path class="cls-3" d="M291.71,157.82s-66.88,27.84-110.54,69.27c0,0-56.55-26.45-137.66-26.45,0,0,54.12-31.24,128.66-29.51C172.17,171.13,218.9,148.63,291.71,157.82Z"/><path class="cls-7" d="M162.84,164.25l15.59-2.43a3.12,3.12,0,0,1,3,4.92l-6.55,9a3.13,3.13,0,0,1-4.36.69l-9-6.57A3.12,3.12,0,0,1,162.84,164.25Z"/><path class="cls-6" d="M184.64,149s-18-79.38,15.27-87.1c20.7-4.81,47.09,19.68,58.39,48.3,4.62,11.69,4.11,24.18-6.63,29.51C238.67,146.16,217.17,152.09,184.64,149Z"/><path id="SVGID-3" data-name="SVGID" class="cls-1" d="M185.23,150.89S169.28,79,200.48,70.38c19.4-5.39,41.71,18,49.31,44,3,10.12,1.52,20.84-7.79,25.79C230.8,146.09,212.61,152,185.23,150.89Z"/><g class="cls-8"><path class="cls-6" d="M168.86,116.15c6.89,22.24,29.27,35.07,50,28.65s31.92-29.65,25-51.89-29.27-35.07-50-28.66S162,93.9,168.86,116.15Z"/><path class="cls-7" d="M175.49,114.09c5.67,18.32,24.1,28.88,41.15,23.6S242.93,113.27,237.26,95s-24.1-28.87-41.16-23.59S169.82,95.78,175.49,114.09Z"/></g><path class="cls-7" d="M191.55,152q-3.09,0-6.36-.12l-.75,0-.16-.73c-.66-3-15.78-72.85,15.95-81.66,20.42-5.66,43,19,50.49,44.64,3.56,12.21.47,22.27-8.27,26.91C232.78,146.13,216.32,152,191.55,152ZM186,150c27.5,1,45.35-5.26,55.52-10.67,7.88-4.18,10.61-13.4,7.32-24.66C241.62,89.83,220.08,66,200.74,71.31,172.43,79.17,184.47,142.4,186,150Z"/><path class="cls-1" d="M223.34,86.67c3,6.41,1.38,13.62-3.54,16.13s-11.3-.67-14.27-7.07-1.38-13.62,3.54-16.12S220.37,80.27,223.34,86.67Z"/><path class="cls-1" d="M200.36,122.78a5.69,5.69,0,0,1-4.13,6.65,5.21,5.21,0,0,1-6-4.52,5.7,5.7,0,0,1,4.13-6.66A5.22,5.22,0,0,1,200.36,122.78Z"/><path class="cls-7" d="M167.71,193.5a10.76,10.76,0,0,1,3.36-3.09,12.13,12.13,0,0,1,4.36-1.62,13.48,13.48,0,0,1,2.38-.16,10.93,10.93,0,0,1,2.35.42,9.45,9.45,0,0,1,4,2.27l-1,1.78a29.53,29.53,0,0,0-3.67-.61,13.73,13.73,0,0,0-3.45.11,18.75,18.75,0,0,0-3.47.87c-1.14.41-2.35.95-3.49,1.45Z"/><path class="cls-7" d="M185.39,54.43c-.74,2.37,4,6,10.52,8s12.47,1.81,13.22-.56-4-6-10.52-8S186.14,52.05,185.39,54.43Z"/><path class="cls-6" d="M151.61,152.3s-3.67-81.3-37.76-80c-21.23.83-40.21,31.43-43.54,62-1.36,12.5,2.43,24.41,14.2,26.71C98.76,163.86,121.05,163.89,151.61,152.3Z"/><path id="SVGID-4" data-name="SVGID" class="cls-1" d="M151.55,154.29s-3.63-73.51-36-73.61c-20.13-.06-35.47,28.37-35.92,55.44-.18,10.55,4,20.51,14.33,22.81C106.33,161.71,125.42,162.56,151.55,154.29Z"/><g class="cls-9"><path class="cls-6" d="M158.14,116.46c-.76,23.27-18.95,41.56-40.63,40.85s-38.63-20.15-37.87-43.43S98.6,72.32,120.27,73,158.9,93.18,158.14,116.46Z"/><path class="cls-7" d="M151.21,116.23c-.63,19.16-15.61,34.22-33.45,33.63S86,133.27,86.58,114.11,102.18,79.89,120,80.48,151.84,97.07,151.21,116.23Z"/></g><path class="cls-7" d="M112.46,161.83a85.5,85.5,0,0,1-18.72-2c-9.66-2.17-15.3-11-15.09-23.77.45-26.7,15.67-56.4,36.82-56.4h.07c32.92.1,36.82,71.49,37,74.53l0,.75-.71.22C136.14,160.18,123,161.83,112.46,161.83Zm3-80.18c-20,0-34.45,28.69-34.88,54.49-.2,11.73,4.88,19.9,13.57,21.85,11.25,2.52,30.12,3.79,56.37-4.4-.5-7.68-5.61-71.85-35-71.94Z"/><path class="cls-1" d="M111.62,102.84c.72,7,5.77,12.42,11.27,12.06s9.39-6.34,8.67-13.36-5.77-12.42-11.27-12.06S110.9,95.82,111.62,102.84Z"/><path class="cls-1" d="M91.77,136.83a5.69,5.69,0,0,0,5.74,5.33,5.21,5.21,0,0,0,4.64-6,5.69,5.69,0,0,0-5.74-5.33A5.22,5.22,0,0,0,91.77,136.83Z"/><path class="cls-7" d="M125.88,61.3c1.34,2.09-2.25,6.81-8,10.53s-11.55,5-12.9,3,2.24-6.8,8-10.53S124.53,59.21,125.88,61.3Z"/><path class="cls-7" d="M174.27,277.66c-6.86,3.91-14.37-8.9-14.37-8.9-11.29,13.1-49.09,23.91-59.21-3.79-.37-1-.69-2-1-3,1.08-10.14,12.19-9.79,12.19-9.79a14.19,14.19,0,0,0,3.55,7.73c15.27,16.82,31.45-7.75,47.87-8.35S183,272.72,174.27,277.66Z"/><path class="cls-7" d="M178.28,277.42c6,2.85,11-9,11-9,10.65,10.68,44,17.37,52-8.9.3-1,.57-2,.79-2.91-1.4-9.72-11.73-8.18-11.73-8.18a14.75,14.75,0,0,1-2.85,7.78c-12.59,16.93-28.56-4.16-42.76-3.08C170.88,254.17,170.7,273.81,178.28,277.42Z"/></g></g></svg>