<svg xmlns="http://www.w3.org/2000/svg" xmlns:xlink="http://www.w3.org/1999/xlink" viewBox="0 0 543.87 498.53"><defs><style>.cls-1{fill:#351a0f;}.cls-2{isolation:isolate;}.cls-3{fill:#f39234;}.cls-4{fill:#f2dbca;mix-blend-mode:multiply;}.cls-5{fill:#feebdb;}.cls-6{fill:#f3d0ae;}.cls-7{fill:#ef7839;}.cls-8{clip-path:url(#clip-path);}.cls-9{fill:#e94c4b;}.cls-10{fill:#b83939;}.cls-11{fill:#fff;}.cls-12{fill:#d8e0f3;}</style><clipPath id="clip-path"><path id="SVGID" class="cls-1" d="M438.48,129.83c7.87,3.89,7.32,57.46-2.71,64.75-7.13,5.19-18.41-7.89-25.32-18.86a20.91,20.91,0,0,1-1.11-20.11C416.48,140.53,424.51,122.93,438.48,129.83Z"/></clipPath></defs><title>Fugitivo</title><g class="cls-2"><g id="Camada_2" data-name="Camada 2"><g id="Camada_1-2" data-name="Camada 1"><polygon class="cls-3" points="172.41 150.04 78.78 148.22 172.41 146.4 172.41 150.04"/><polygon class="cls-3" points="56.47 244.08 0 242.26 56.47 240.44 56.47 244.08"/><polygon class="cls-3" points="214.5 389.6 158.04 387.77 214.5 385.95 214.5 389.6"/><polygon class="cls-3" points="168.18 34.67 52.59 32.84 168.18 31.02 168.18 34.67"/><path class="cls-1" d="M472.12,258.58c31.6-4.73,50.92-13.85,57-18.16,11.73-8.28,20.39-20.36,10.26-25.62-9.93-5.17-17.25,13.17-17.25,13.17-15.38,9.67-33.67,14.37-51.74,16.2C469.18,248.11,467.32,251.57,472.12,258.58Z"/><path class="cls-3" d="M472.12,258.58c-4.8-7-2.94-10.47-1.71-14.41-42.15,4.27-83.13-7-83.13-7l-3.68,18C416.13,266.24,446.64,262.91,472.12,258.58Z"/><path class="cls-1" d="M412.77,455.33s54.32-3.19,68.91-39.67l-7-9.48a4.75,4.75,0,0,0-8.06.68c-6.29,12.6-21.64,37.54-45.09,38.9Z"/><path class="cls-3" d="M310.83,387.57c24.75,4.17,43.5,10.48,57.71,17.62,42.59,21.41,44.23,50.14,44.23,50.14l9.29-9.18c13.4-36.19,2.6-61.52-7.41-75.44a61.31,61.31,0,0,0-11.76-12.64Z"/><path class="cls-4" d="M310.83,387.57c24.75,4.17,43.5,10.48,57.71,17.62,20.54-8.92,38.16-26,46.11-34.48a61.31,61.31,0,0,0-11.76-12.64Z"/><path class="cls-5" d="M319.2,388c9.14,3.4,20.46,4.31,32.47,2.87,23.71-2.87,50.1-14.92,67.49-35.3a80,80,0,0,0,16.7-31.5,81.07,81.07,0,0,0,2.59-21.85c-.23-16.45-5.18-35.06-16.52-55.62A204.49,204.49,0,0,0,408.87,226l-35.1-.35-4.21,0a72.77,72.77,0,0,1,6.6,28.17,58.74,58.74,0,0,1-1.4,14.43c-.17.73-.35,1.44-.57,2.17a50.13,50.13,0,0,1-4.63,11.36c-2.17,3.89,11.75,10.23,9.07,13.75A68,68,0,0,1,366,308.4a147.55,147.55,0,0,0-23.55,22.78C329.72,346.62,318.74,366.61,319.2,388Z"/><path class="cls-5" d="M316.61,386.94l1.55,5.15,3.66,12.17a58.53,58.53,0,0,1-2.37-12c-.14-1.41-.23-2.81-.25-4.22C318.32,387.67,317.45,387.33,316.61,386.94Z"/><path class="cls-5" d="M158.26,280.93s-7.79,3.37-16.27,7.56c-12.94-11.16-19.17-23.6-16.14-34.59a18.56,18.56,0,0,1,1.3-3.44c11.22-6.07,25.65-10.94,42.93-14-12.25,5.93-30,15.65-30.73,22.69C138.24,270.14,158.26,280.93,158.26,280.93Z"/><path class="cls-3" d="M296.81,330.26c-25.22,38.12-79.25,37.81-117.54,21.33-9.32-4-24-10.16-38.25-18l11.33-7.83s-33.33-17.81-31.6-23.68c.66-2.23,8.79-9.16,20.13-14.78a81,81,0,0,1,17.39-6.36s-20-10.78-18.91-21.77c.69-7,18.48-16.76,30.72-22.69A247.6,247.6,0,0,1,209,232.93l3.62,0c26.65,1.08,50.46,5.87,71.6,14.16,8.21,3.41,18.28,10.32,23.94,21.4C312.7,284.27,313,305.87,296.81,330.26Z"/><path class="cls-6" d="M127.15,250.46a18.56,18.56,0,0,0-1.3,3.44c-3,11,3.2,23.43,16.14,34.59-9.62,4.74-20.18,10.52-21.24,13.57-2,5.79,31.59,23.68,31.59,23.68L141,333.58C116.31,320,92.8,301.33,100,279,103.66,267.69,114.22,258.69,127.15,250.46Z"/><path class="cls-7" d="M296.81,330.26c-25.22,38.12-79.25,37.81-117.54,21.33-9.32-4-24-10.16-38.25-18l11.33-7.83s-33.33-17.81-31.6-23.68c.66-2.23,8.79-9.16,20.13-14.78,8.06,6.37,19.67,12.92,36.18,19.31,78.81,30.51,101.57-3.06,101.78-18.78.21-14.79-7.75-44-69.89-54.89l3.62,0c26.65,1.08,50.46,5.87,71.6,14.16,8.21,3.41,18.28,10.32,23.94,21.4C312.7,284.27,313,305.87,296.81,330.26Z"/><path class="cls-3" d="M291,382.42c4,5.4,14.86,8.47,27.16,9.67l1.29.13a131.25,131.25,0,0,0,32.27-1.15,1.94,1.94,0,0,1-.05-.2c-4.51-16.16-2.47-27.58,2.6-37.74,6.7-13.37,18.66-24.57,28-41.57,7.54-13.72,4.2-38.36-.32-57.75a270.09,270.09,0,0,0-8.18-28.13s-17.65-1-17.65-1a134,134,0,0,1,5.3,27.94c1.37,20.81-5.69,31.28-15.72,37.36s-23.18,7.77-33.74,11.09C287,308.88,262.43,343.5,291,382.42Z"/><path class="cls-4" d="M372.22,267.29s.66,1.2,2,3.12c3.25,4.7,10.49,13.73,21.62,19.57,13.64,7.15,32.39,21,40.05,34.09a81.07,81.07,0,0,0,2.59-21.85,55.84,55.84,0,0,0-28.34-21.67c-18.81-6.31-30.54-10.54-35.35-12.31C373.06,267.62,372.22,267.29,372.22,267.29Z"/><path class="cls-4" d="M291,382.42c4,5.4,14.86,8.47,27.16,9.67l1.29.13a131.25,131.25,0,0,0,32.27-1.15,1.94,1.94,0,0,1-.05-.2c23.71-2.87,50.1-14.92,67.49-35.3-17.53,12.5-45.66,20.81-64.89-2.44a64.07,64.07,0,0,1-8.79-14.36,73.41,73.41,0,0,1-3-7.59c-5.31-15.9-3.12-29.05,3.21-41.2-10.09,6.09-23.18,7.77-33.74,11.09C287,308.88,262.43,343.5,291,382.42Z"/><path class="cls-1" d="M251.19,357.34s-32-26.23-61-20.47C186,346.94,185,353.92,188.06,357c0,0,36.68-11.49,56.68,7.38S251.19,357.34,251.19,357.34Z"/><path class="cls-3" d="M244.74,364.33c-.46,35.07,32.51,72.52,70,54.52A61.62,61.62,0,0,0,325,412.56c39.69-29.72,12-76.87,12-76.87-17.86-32.8-56-4.56-58.83,13.17a74,74,0,0,1-2.08,7.82c-9.36,28.9-24.93.66-24.93.66Z"/><path class="cls-4" d="M244.74,364.33c-.46,35.07,32.51,72.52,70,54.52-34.79-1.17-39.35-38-38.6-62.15-9.36,28.88-24.93.64-24.93.64Z"/><path class="cls-1" d="M451.88,295.53c27.69,2.65,48.33-3.91,55.34-6.47,13.49-4.94,27.82-16.63,19.41-24.35-8.23-7.58-20.08,8.21-20.08,8.21-17.38,5.33-35,8-53,5.1C451.37,281.49,449.08,287.52,451.88,295.53Z"/><path class="cls-3" d="M452,295.53c-2.81-8-.52-14,1.69-17.52-41.8-6.87-78.41-28.47-78.41-28.47L367.07,266C395.58,285.16,426.31,293.06,452,295.53Z"/><path class="cls-4" d="M356.12,224.68a134,134,0,0,1,5.3,27.94,124.65,124.65,0,0,0,14.74,1.19c2,.05,3.91.05,5.79,0a129.15,129.15,0,0,0,40-7.21A204.49,204.49,0,0,0,408.87,226l-35.1-.35S356.12,224.68,356.12,224.68Z"/><path class="cls-3" d="M268.16,24.69a99.3,99.3,0,0,1,22.67,24.55,81.15,81.15,0,0,1,4.22,7.39,79.66,79.66,0,0,0,8.24,13.2c9.32,12,19.48,16.77,27.11,18.9,9.46,2.65,65.81-30.42,53.1-55.74a20.88,20.88,0,0,0-2.56-3.87,64.91,64.91,0,0,0-8.59-8.77C357,7.14,321.66-13.74,269.49,12.81,264.39,15.42,263.75,21.28,268.16,24.69Z"/><path class="cls-7" d="M369.5,32.48c-30.1-35.57-80-22.2-83.3-15.2-.53,1.13,3.19,4.64,8.6,9.64,4.17-3.87,11.77-6.3,11.77-6.3s1.06,12.62,2.36,19.83C314,36.35,323,29.59,323,29.59s-1.54,25.7.51,29.34C328.58,67.94,369.5,32.48,369.5,32.48Z"/><path class="cls-7" d="M290.83,49.24a81.15,81.15,0,0,1,4.22,7.39,79.66,79.66,0,0,0,8.24,13.2c9.32,12,19.48,16.77,27.11,18.9,9.46,2.65,65.81-30.42,53.1-55.74C366.24,29.5,321,23.59,290.83,49.24Z"/><path class="cls-3" d="M271.05,85.84c-9.16,34.6-5.07,63.06,4.27,85.48-31.65-6.94-78.34-41.92-78.48-49.6C196.65,112.32,231.5,82.67,271.05,85.84Z"/><path class="cls-7" d="M215,119.52c-1.29,8.11,52.7,44.88,61.76,38.22s5.56-41.62-.7-46.94-17.57,7.62-17.57,7.62l4.65-15.52-21.3,10.46,4.77-11.94S216.49,109.9,215,119.52Z"/><path class="cls-7" d="M314.43,125.5c-1.45,23.92-11.71,44.58-24.66,46.69a38.62,38.62,0,0,1-14.45-.87c-9.34-22.42-13.43-50.88-4.27-85.48a71.64,71.64,0,0,1,24.53,6.51C307.62,96.46,315.08,114.83,314.43,125.5Z"/><path class="cls-5" d="M282.55,220.36s133.76,34,166.74,5.28c39.27-34.27,32.78-150.3,32.41-156.43.09,2.61-1.38,24.63-74.2,42.61C407.5,111.82,343.18,207.73,282.55,220.36Z"/><path class="cls-3" d="M286.2,194.82c4.34,19.08-2.88,25-3.59,25.5,0,0,0,0-.06,0,52.7-11,108.19-84.86,121.79-104,2.07-2.88,3.16-4.53,3.16-4.53,72.82-18,74.29-40,74.2-42.61a2.25,2.25,0,0,1,0-.25c-13,3.94-114.24-58.68-174.7-18.15-8,1.13-20.89,3.59-31.65,8.54l15.5,2.77L278.17,69l9,3.9C267.47,111.7,282.28,177.6,286.2,194.82Z"/><path class="cls-7" d="M281.64,135.54c2.88,37.59,16.69,78.25,1,84.78,0,0,0,0-.06,0,52.7-11,108.19-84.86,121.79-104A5.4,5.4,0,0,0,404,115c-1-2.7-19.64,1.86-51.16-19.16-23.68-15.77-55-30.91-62-20.5C284.12,85.32,279.45,106.84,281.64,135.54Z"/><path class="cls-7" d="M404,101.34c-31.31-3.2-71.58-44.54-63.56-53.81C357.6,27.71,452.19,64,452.19,64S446.26,91.07,404,101.34Z"/><path id="SVGID-2" data-name="SVGID" class="cls-1" d="M438.48,129.83c7.87,3.89,7.32,57.46-2.71,64.75-7.13,5.19-18.41-7.89-25.32-18.86a20.91,20.91,0,0,1-1.11-20.11C416.48,140.53,424.51,122.93,438.48,129.83Z"/><g class="cls-8"><path class="cls-9" d="M406.91,169.58s23.09-10.4,35.9,4.91c0,0-1.66,21.2-9.93,21.22S415,184,406.91,169.58Z"/><path class="cls-10" d="M410.45,175.72s12.1-3.25,21.45,5.42c0,0-10.07-3.85-18.26-.67Z"/><path class="cls-11" d="M435.47,126.42s4.86,7.75-5.47,1.21S435.47,126.42,435.47,126.42Z"/><path class="cls-11" d="M416.16,139.41s8,10.26-3.42,5.93Z"/><path class="cls-11" d="M443.89,180.83s-1,.73-2.7,2.13c-2.23-3-2,1.77-2,1.77-1.32,1.2-2.83,2.68-4.44,4.42,0,0-3.21-2.54-2.86,3.29a68.85,68.85,0,0,0-6.63,9.67S445,199.68,443.89,180.83Z"/></g><path class="cls-1" d="M432.18,196.67a8.93,8.93,0,0,1-1.59-.16c-8.57-1.65-18.17-15.95-20.91-20.3a21.71,21.71,0,0,1-1.16-21l.36-.78c5.2-11,11.09-23.43,19.62-26.39a13.07,13.07,0,0,1,10.38,1c3.48,1.72,4.91,10.32,5.5,17.24,1.42,16.62-.64,43.67-8.07,49.07A6.85,6.85,0,0,1,432.18,196.67Zm.27-67.48a10.18,10.18,0,0,0-3.35.58c-7.81,2.71-13.52,14.8-18.57,25.46l-.37.77a19.92,19.92,0,0,0,1.06,19.24c5.44,8.63,13.48,18.28,19.72,19.48a5.27,5.27,0,0,0,4.3-.87c6-4.39,8.89-29.11,7.32-47.45-.89-10.42-2.9-15-4.49-15.75h0A12.64,12.64,0,0,0,432.45,129.19Z"/><path class="cls-1" d="M398.25,113.72,414.3,102.9a3.83,3.83,0,0,1,5.9,3.91l-2.59,13.4a3.83,3.83,0,0,1-4.48,3l-13.46-2.59A3.83,3.83,0,0,1,398.25,113.72Z"/><path class="cls-11" d="M405.55,98.4s31.44-8.76,36.3-24.58-73.79-31.84-87-19.45C344.23,64.4,377.79,92.39,405.55,98.4Z"/><path class="cls-11" d="M384.4,116.88c-21.13-4.1-54-44.52-75.48-31.14-15.89,9.91-9.46,69,15,74.42C346.69,165.27,384.4,116.88,384.4,116.88Z"/><path class="cls-1" d="M308.06,132.09c5.62,8.95,15,13.17,21,9.43s6.22-14,.6-23-15-13.17-21-9.43S302.43,123.14,308.06,132.09Z"/><path class="cls-11" d="M314,112.32c3.14,3.18,7.63,3.84,10,1.48s1.79-6.86-1.34-10-7.62-3.84-10-1.48S310.89,109.14,314,112.32Z"/><path class="cls-1" d="M377.67,83.15c8.14,4.7,18.79,5.06,23.79.8s2.47-11.51-5.67-16.21S377,62.68,372,66.94,369.53,78.45,377.67,83.15Z"/><path class="cls-11" d="M375.53,67.07c3.28,1.89,7.57,2,9.58.32s1-4.63-2.28-6.52-7.57-2-9.58-.33S372.26,65.18,375.53,67.07Z"/><path class="cls-1" d="M405.57,99.34l-.22,0c-22-4.77-49.27-24-53-37.33-.93-3.36-.28-6.21,1.9-8.26,10.58-10,62.52-2.18,81.54,9.67,5.69,3.55,8,7.15,6.92,10.72-5,16.11-35.64,24.83-36.94,25.19ZM374.34,50.91c-8.76,0-15.76,1.24-18.82,4.12-1.68,1.57-2.14,3.74-1.39,6.44,3.19,11.51,28.64,31,51.38,36,2.76-.81,31-9.42,35.47-23.91,1-3.33-2.77-6.53-6.13-8.63C422.31,57.11,393.94,50.91,374.34,50.91Z"/><path class="cls-1" d="M327.43,161.45a17.05,17.05,0,0,1-3.73-.4c-13.13-2.94-20.58-20.25-23.18-35.47-2.64-15.53-1.3-34.87,7.92-40.61,13.79-8.61,31.46,3.74,48.55,15.69,10.15,7.1,19.74,13.8,27.58,15.32l1.46.29-.91,1.17C383.64,119.33,350.54,161.45,327.43,161.45Zm-8.78-77.52a17.15,17.15,0,0,0-9.25,2.58c-7.17,4.48-10.15,20.78-7.08,38.76,2.5,14.64,9.53,31.26,21.78,34,20,4.48,52.84-34.62,58.68-41.83-7.91-2-17.12-8.49-26.84-15.29C343.08,93.16,329.89,83.93,318.65,83.93Z"/><path class="cls-1" d="M300.3,37.1c0,2.35,4.71,4.25,10.52,4.25s10.51-1.9,10.51-4.25-4.7-4.26-10.51-4.26S300.3,34.75,300.3,37.1Z"/><path class="cls-1" d="M275.33,85.87c2.35,0,4.26-4.71,4.26-10.52s-1.91-10.51-4.26-10.51-4.26,4.7-4.26,10.51S273,85.87,275.33,85.87Z"/><path class="cls-5" d="M433.09,341.65l-1.4,2.07C432.22,343,432.67,342.33,433.09,341.65Z"/><ellipse class="cls-12" cx="300.14" cy="484.93" rx="156.61" ry="13.6"/></g></g></g></svg>