<svg xmlns="http://www.w3.org/2000/svg" xmlns:xlink="http://www.w3.org/1999/xlink" viewBox="0 0 341.79 526.81"><defs><style>.cls-1{fill:#fff;}.cls-2{fill:#351a0f;}.cls-3{isolation:isolate;}.cls-4{fill:#d8e0f3;}.cls-5{fill:#feebdb;}.cls-6{fill:#f39234;}.cls-7{fill:#f2dbca;mix-blend-mode:multiply;}.cls-8{fill:#ef7839;}.cls-9{clip-path:url(#clip-path);}.cls-10{clip-path:url(#clip-path-2);}.cls-11{clip-path:url(#clip-path-3);}</style><clipPath id="clip-path"><path id="SVGID" class="cls-1" d="M216.05,153.47s17.06-47.33,38.46-41.59c25.82,6.94,19.15,58.36,19.15,58.36S251.79,149.08,216.05,153.47Z"/></clipPath><clipPath id="clip-path-2"><path id="SVGID-2" data-name="SVGID" class="cls-1" d="M190.29,144.61s16.88-48.42-3.5-54.7c-24.59-7.59-52.2,38.87-52.2,38.87S165.17,122.42,190.29,144.61Z"/></clipPath><clipPath id="clip-path-3"><path id="SVGID-3" data-name="SVGID" class="cls-2" d="M225.13,183.41s-46.94,26.18-58.75-24.91c0,0-7.51,60.83,9.93,66.84C194.24,231.52,225.13,183.41,225.13,183.41Z"/></clipPath></defs><title>Feliz</title><g class="cls-3"><g id="Camada_2" data-name="Camada 2"><g id="Camada_1-2" data-name="Camada 1"><path class="cls-4" d="M266.59,512.52c0,7.89-51.53,14.29-115.1,14.29s-115.1-6.4-115.1-14.29,51.54-14.28,115.1-14.28S266.59,504.63,266.59,512.52Z"/><path class="cls-5" d="M267.54,386.66c-1,2-1.69,3.28-1.69,3.28A122.79,122.79,0,0,0,295.42,382a128,128,0,0,0,9.4-14.6c3.57-6.5,8.61-22,10.08-36.13,1.15-11,.13-21.19-5.48-25.5-14-10.77-48.36,13.62-52.36,16.32-2.05,5.86-11.8,21.21-13.89,28,0,0,31.59-8.26,36.36-1.61C283.4,353.9,272,377.85,267.54,386.66Z"/><path class="cls-6" d="M132.87,389.94c2.36,10.17,11.42,20.6,23.91,28.82a99.9,99.9,0,0,0,20.31,10.17c15.27,5.57,32.42,7.68,48,3.81a58,58,0,0,0,9.2-3.06c30.94-13.24,50.12-32.86,61.08-47.67a122.79,122.79,0,0,1-29.57,7.93s.66-1.23,1.69-3.28c4.43-8.81,15.86-32.76,12-38.18-4.77-6.65-36.36,1.61-36.36,1.61,2.09-6.78,11.84-22.13,13.89-28a138,138,0,0,1-28.93,5.31c-21.4,1.45-32.07-4-32.07-4l-16.48.25s-40.67,33.66-46.4,57.52A19.13,19.13,0,0,0,132.87,389.94Z"/><path class="cls-7" d="M133.18,381.15c5.73-23.86,46.4-57.52,46.4-57.52l16.48-.25s6.08,3.88,26,4.26c6,17.61-2.16,36-7.74,45.45,1.89,8.24,7.85,17.73,25.13,18.82a56.82,56.82,0,0,0,28.05-5.25c24.37-11.3,39.6-37.91,47.36-55.38-1.47,14.12-6.51,29.63-10.08,36.13a128,128,0,0,1-9.4,14.6,146,146,0,0,1-47.74,41.17,67.87,67.87,0,0,1-21.08,9.14c-.49.13-1,.3-1.46.42-14.9,3.69-31.17,1.94-45.88-3.06-.75-.25-1.48-.5-2.17-.75a99.9,99.9,0,0,1-20.31-10.17l.37-.37C144.2,410.21,131,397.94,133.18,381.15Z"/><path class="cls-2" d="M148.91,451.21s-8.64,36.33,27.23,61.31h20.44s-1.79-16.65-6.46-20.08-11.47,1-11.47,1-23-17.63-24.75-40.65Z"/><path class="cls-6" d="M148.91,451.21l5.69,6.46c9.92,3.64,35.14,2.83,50.14-11.81,6.19-6,10.63-14.42,11.57-25.82,4.83-59.41-54.87-59.37-54.87-59.37C136.69,383.58,136,391.28,136,391.28c27.15,16.61,29.49,29.87,30,37,.44,5.8-2.42,10.7-5.92,14.48A43,43,0,0,1,148.91,451.21Z"/><path class="cls-7" d="M148.91,451.21l5.69,6.46c9.92,3.64,35.14,2.83,50.14-11.81-25.52,9.57-39.55,1.25-44.6-3.06A43,43,0,0,1,148.91,451.21Z"/><path class="cls-6" d="M42.16,363.16,49,364s0-27,16.13-33.41c6.11-2.42,20.19-7.82,43.05,26.87,2.12,3.22,4.33,6.79,6.59,10.71,0,0-3-32.16,2-65.52,0,0-19.24-37.68-55.62-23.43C48.94,284,42.23,294.8,39,307.23,33.54,328,37.73,353.31,42.16,363.16Z"/><path class="cls-7" d="M42.16,363.16,49,364s0-27,16.13-33.41c6.11-2.42,20.19-7.82,43.05,26.87C81,291.37,60.17,331,46.08,326.87c-4.75-1.4-6.49-11.48-7.12-19.64C33.54,328,37.73,353.31,42.16,363.16Z"/><path class="cls-2" d="M74.73,209.27c.57,1.31,1.2,2.63,1.87,3.95l17.59-14c-1.22-1.91-2.37-3.88-3.48-5.92-20.45-37.68-25.56-58.12-32.57-56.84S60.68,177.66,74.73,209.27Z"/><path class="cls-6" d="M76.6,213.22C85,230,100.44,244.45,117.2,254.6A120,120,0,0,0,141.59,266l6.4-13.31s-4.06-2.49-10.25-7.19C126.42,236.94,108,221,94.19,199.23Z"/><path class="cls-7" d="M117.2,254.6A120,120,0,0,0,141.59,266l6.4-13.31s-4.06-2.49-10.25-7.19C135.08,249.77,129.06,256,117.2,254.6Z"/><path class="cls-2" d="M279,286.81c-1.32.54-2.69,1.05-4.1,1.53l-2.94-22.27c2.22-.53,4.42-1.15,6.63-1.84,40.88-12.92,58.75-24.07,62.91-18.28S311,273.82,279,286.81Z"/><path class="cls-6" d="M191.42,281.19a123.29,123.29,0,0,0,32.92,10.18c17,2.85,35.1,2.37,50.52-3l-2.95-22.28c-20.52,5-40.6,5-54.93,3.89a163.24,163.24,0,0,1-20.9-2.78Z"/><path class="cls-7" d="M191.42,281.19a123.29,123.29,0,0,0,32.92,10.18c-8.11-6.27-8.13-16-7.36-21.42a163.24,163.24,0,0,1-20.9-2.78Z"/><path class="cls-6" d="M129.18,387c28.18,24.6,69.45,12.93,84.39-39.75,8.91-31.44-.52-64.93-9.58-86.83a178.21,178.21,0,0,0-12.07-24.29l-29.45-5.75A136,136,0,0,0,147,242.48c-11.13,10-25.44,25.71-32.7,45.34C99.77,327.18,105,365.9,129.18,387Z"/><path class="cls-5" d="M188.53,235.15S216.5,283.58,206,328C196.58,367.48,160,375.11,138,361.18c-19-12.05-25-48.45-12-82.82,9.48-25,38.76-48,38.76-48Z"/><path class="cls-7" d="M147,242.48c9.37,17.35,9.06,36.4,17.44,38.64,8,2.14,26.67-14.45,39.52-20.73a178.21,178.21,0,0,0-12.07-24.29l-29.45-5.75A136,136,0,0,0,147,242.48Z"/><path class="cls-7" d="M129.18,387c28.18,24.6,66,13.89,80.94-38.8C215,331,216.05,315.6,214.78,296a78.74,78.74,0,0,1-2.24,12.3c-10.62,39.5-51.92,47.13-76.81,33.2-15.69-8.78-23.51-30.46-20.9-54.89a11.08,11.08,0,0,0-.5,1.24C99.77,327.18,105,365.9,129.18,387Z"/><path class="cls-6" d="M119.1,111.39c.55,2.65,2.51,5.42,5.54,8,9.34,8.06,29,14.65,49.71,11.44,12.21-1.92,32.48-14.66,36.12-29,1.84-5,2.81-10,4-14.75.31-1.25.58-2.5.79-3.74a58.43,58.43,0,0,0,.26-17.9C210.93,30.06,178.15-2.2,168.34.12c-6.65,1.55-44,45.38-49.8,87.67A69.06,69.06,0,0,0,119.1,111.39Z"/><path class="cls-8" d="M167.05,16.73c-9.34.57-41.13,72.07-32.74,80.44s52.9.12,58.41-8.1-15.21-21.74-15.21-21.74l21.91,1.6L181.8,47.71l14,2.33S178.15,16.05,167.05,16.73Z"/><path class="cls-8" d="M119.1,111.39c.55,2.65,2.51,5.42,5.54,8l90.62-36a58.43,58.43,0,0,0,.26-17.9,156.71,156.71,0,0,0-19.25-.38c-16.06.56-38.64,3.53-61.1,13.68a128.91,128.91,0,0,0-16.63,9A69.06,69.06,0,0,0,119.1,111.39Z"/><path class="cls-6" d="M306.63,164.11c-2,1.79-5.25,2.86-9.25,3.16-12.31.89-32-5.56-46.72-20.49C242,138,233.35,115.64,239,102a140.87,140.87,0,0,1,5.59-14.22c.5-1.19,1-2.35,1.6-3.47a58.45,58.45,0,0,1,10.46-14.52c24.85-25.71,70.41-32,76.9-24.33,4.41,5.21,8.23,62.68-12.36,100.07A69.13,69.13,0,0,1,306.63,164.11Z"/><path class="cls-8" d="M324.64,59.54c7.15,6-10,82.37-21.73,84.09s-42.52-31.47-42-41.36,25.18-8.37,25.18-8.37L267.51,82.11l26.8-6.51-12.65-6.5S316.14,52.37,324.64,59.54Z"/><path class="cls-8" d="M306.63,164.11c-2,1.79-5.25,2.86-9.25,3.16l-51.22-83a58.45,58.45,0,0,1,10.46-14.52A155.24,155.24,0,0,1,272.3,81c12.55,10,28.91,25.89,40.86,47.44a127.49,127.49,0,0,1,8,17.12A69.13,69.13,0,0,1,306.63,164.11Z"/><path class="cls-5" d="M78.88,153.27S150,213.46,165.58,266c0,0,74.72-35.67,144.65-17.47,0,0-28.42-116.28-110.65-99.63C199.58,148.92,156,101.51,78.88,153.27Z"/><path class="cls-6" d="M78.88,153.27c102-36.92,118.59,6.84,118.59,6.84,63.42-21.72,112.76,88.44,112.76,88.44s23.94-92.82-50.68-160.79c0,0-4.11-14.24-17.78-29.77l4,22.66c-.43-.68-7.45-11.58-17.88-18.87l-1.14,13.86S134,58,78.88,153.27Z"/><path class="cls-8" d="M211.24,154.83s17.35-49.87,41.67-50c32.57-.14,31.29,77,31.29,77S254.67,140.62,211.24,154.83Z"/><path class="cls-2" d="M207.87,154.09l-14.67-5.63a3.11,3.11,0,0,0-4,4.16l4.5,10.14a3.11,3.11,0,0,0,4.1,1.58l10.18-4.5A3.11,3.11,0,0,0,207.87,154.09Z"/><path id="SVGID-4" data-name="SVGID" class="cls-1" d="M216.05,153.47s17.06-47.33,38.46-41.59c25.82,6.94,19.15,58.36,19.15,58.36S251.79,149.08,216.05,153.47Z"/><g class="cls-9"><path class="cls-2" d="M227.59,142.61c-3.22,15.46,3.18,29.87,14.29,32.19s22.75-8.33,26-23.78-3.17-29.86-14.28-32.18S230.82,127.16,227.59,142.61Z"/></g><path class="cls-2" d="M273.66,171.28a1,1,0,0,1-.72-.29c-.22-.21-22-20.77-56.77-16.5a1,1,0,0,1-1.1-1.37c.71-2,17.65-48.17,39.7-42.24,26.4,7.1,20.19,57.36,19.91,59.5a1,1,0,0,1-.68.84A1,1,0,0,1,273.66,171.28Zm-48-19.44a76,76,0,0,1,47.2,16.32c.87-9.35,3.27-49.4-18.59-55.28-18.1-4.86-33.44,31.31-36.62,39.37A79.17,79.17,0,0,1,225.63,151.84Z"/><path class="cls-2" d="M255.32,80.33c-1.06,2.24,3.1,6.42,9.29,9.35s12.06,3.48,13.12,1.24-3.1-6.43-9.29-9.35S256.38,78.09,255.32,80.33Z"/><path class="cls-1" d="M237.94,130.19c-1.11,5.36,1.24,10.38,5.27,11.23s8.2-2.83,9.32-8.19-1.24-10.39-5.26-11.23S239.06,124.83,237.94,130.19Z"/><path class="cls-8" d="M193.17,148.24s18.28-50.69-.65-63.38C167.18,67.86,119,133,119,133S168.33,113.85,193.17,148.24Z"/><path id="SVGID-5" data-name="SVGID" class="cls-1" d="M190.29,144.61s16.88-48.42-3.5-54.7c-24.59-7.59-52.2,38.87-52.2,38.87S165.17,122.42,190.29,144.61Z"/><g class="cls-10"><path class="cls-2" d="M189.75,128.36c-6.05,15.18-19.42,25.12-29.88,22.2s-14-17.59-8-32.77,19.42-25.12,29.88-22.19S195.79,113.19,189.75,128.36Z"/></g><path class="cls-2" d="M190.29,145.65a1,1,0,0,1-.69-.26c-24.41-21.58-54.5-15.66-54.8-15.6a1,1,0,0,1-1.1-1.54c1.15-1.92,28.31-47.07,53.4-39.33a13.26,13.26,0,0,1,8.1,7c7.69,15.2-3.46,47.61-3.93,49a1.06,1.06,0,0,1-.72.66A1.17,1.17,0,0,1,190.29,145.65Zm-45.45-18.71c11,0,29,2.46,44.95,15.88,2.09-6.53,10-33.25,3.56-45.92a11.1,11.1,0,0,0-6.86-6c-20.75-6.4-44.34,28-49.83,36.52A66.3,66.3,0,0,1,144.84,126.94Z"/><path class="cls-2" d="M206.29,63.1c-.6,2.42-6.52,3.76-13.22,3s-11.64-3.34-11-5.76,6.53-3.76,13.22-3S206.9,60.68,206.29,63.1Z"/><path class="cls-1" d="M176.48,111.52c-2.54,5.06-7.59,8-11.28,6.66s-4.6-6.61-2-11.67,7.59-8.05,11.28-6.66S179,106.46,176.48,111.52Z"/><path id="SVGID-6" data-name="SVGID" class="cls-2" d="M225.13,183.41s-46.94,26.18-58.75-24.91c0,0-7.51,60.83,9.93,66.84C194.24,231.52,225.13,183.41,225.13,183.41Z"/><g class="cls-11"><path class="cls-1" d="M189.91,227.37s-.22-7.28-1.82-8-4.25,1.71-4.25,1.71a78.71,78.71,0,0,0-10.21-3.9s-1.15-4.58-2.62-4.51c-2.14.1-7.29,5.79-7.29,5.79S169.16,241.11,189.91,227.37Z"/><path class="cls-1" d="M213.63,185.88s-7.42,14.85-8.14,3.6S213.63,185.88,213.63,185.88Z"/><path class="cls-1" d="M170.15,169.15s-2.9,16.34,4.39,7.74S170.15,169.15,170.15,169.15Z"/></g><path class="cls-2" d="M179.64,226.91a11.38,11.38,0,0,1-3.67-.59c-18-6.21-10.93-65.43-10.62-67.94a1,1,0,0,1,2-.11c3.36,14.51,9.91,24,19.46,28.26,16.81,7.46,37.58-3.91,37.79-4A1,1,0,0,1,226,184C224.8,185.83,198.2,226.91,179.64,226.91Zm-12.8-62.74c-1.33,15-3.64,55.56,9.81,60.19C191,229.31,214.9,196.55,222.13,186c-6.84,3-22.44,8.47-36.12,2.41C177.1,184.47,170.66,176.33,166.84,164.17Z"/><path class="cls-2" d="M163.13,159.35l-1.17-1.7a4.23,4.23,0,0,1,5.07,0l-1.31,1.6.66-.8-.65.81A2.17,2.17,0,0,0,163.13,159.35Z"/><path class="cls-2" d="M227.78,186.28a2.11,2.11,0,0,0-2.5-1.85l-.3-2a4.14,4.14,0,0,1,4.84,3.58Z"/><path class="cls-2" d="M49,364c0,2.24-2.27,4.33-4.29,3.36C3.69,347.7-1.58,305.92.33,300.65c5.23-2.92,16.79-5.74,17.54,0C20,317.35,24.51,350.57,49,364Z"/></g></g></g></svg>