<svg xmlns="http://www.w3.org/2000/svg" xmlns:xlink="http://www.w3.org/1999/xlink" viewBox="0 0 313.25 463.59"><defs><style>.cls-1{fill:#fff;}.cls-2{fill:#d8e0f3;}.cls-3{fill:#feebdb;}.cls-4{fill:#f39234;}.cls-5{fill:#f3d0ae;}.cls-6{fill:#ef7839;}.cls-7{fill:#351a0f;}.cls-8{clip-path:url(#clip-path);}.cls-9{clip-path:url(#clip-path-2);}.cls-10{fill:#bfe4f3;}.cls-11{fill:#e94c4b;}</style><clipPath id="clip-path"><path id="SVGID" class="cls-1" d="M173.76,127.52s-3.6-40.75,2.09-62.75c0,0,19,27.93,52,26.8,5.39,8.72,8.06,22.47,8.06,22.47S202.48,110.62,173.76,127.52Z"/></clipPath><clipPath id="clip-path-2"><path id="SVGID-2" data-name="SVGID" class="cls-1" d="M138.85,129.62s1.58-40.87-5.18-62.56c0,0-17.59,28.82-50.65,29.33-5,9-6.94,22.83-6.94,22.83S109.34,114.17,138.85,129.62Z"/></clipPath></defs><title>Triste</title><g id="Camada_2" data-name="Camada 2"><g id="Camada_1-2" data-name="Camada 1"><path class="cls-2" d="M3.27,450c0,7.51,53.88,13.6,120.35,13.6S244,457.5,244,450s-53.88-13.6-120.35-13.6S3.27,442.48,3.27,450Z"/><path class="cls-3" d="M64.7,398.69s-7.43,4.57-15.43,10c-17-7.17-27.51-17.3-27.32-28.35a16.14,16.14,0,0,1,.47-3.59c11.13-8.13,26.2-15.66,44.69-21.85C55,363,37.63,375.8,38.77,382.64,40.5,393.08,64.7,398.69,64.7,398.69Z"/><path class="cls-4" d="M199.13,411.78c-18.19,32.12-63.28,43-99.89,39.48-9.41-.92-24.62-2.27-40.36-5.1l9.6-8.71S29.42,430.4,30,425.05,64.7,398.69,64.7,398.69s-24.2-5.61-25.93-16.05C37.63,375.8,55,363,67.11,354.92c32-10.66,74.12-17.28,123.93-15.85C191,339.07,224.72,366.62,199.13,411.78Z"/><path class="cls-5" d="M22.42,376.77a16.14,16.14,0,0,0-.47,3.59c-.19,11.05,10.35,21.18,27.32,28.35-9.1,6.19-18.94,13.5-19.25,16.34-.6,5.35,38.46,12.4,38.46,12.4l-9.6,8.71C30.1,441-.41,430.85,0,409.32.19,399.5,5,389,22.42,376.77Z"/><path class="cls-6" d="M199.13,411.78c-18.19,32.12-63.28,43-99.89,39.48-9.41-.92-24.62-2.27-40.36-5.1l9.6-8.71S29.42,430.4,30,425.05c.31-2.84,10.15-10.15,19.25-16.34,15,6.35,35,10.39,57,10.74,46.94.75,85.31-15.55,85.69-36.39.35-20.23-35.19-37.32-80.23-39a411.47,411.47,0,0,1,79.32-5S224.72,366.62,199.13,411.78Z"/><path class="cls-4" d="M125,198.81c-1.22,1.05-24.7,21.25-38.27,41.95-6.16,9.37-10.29,18.84-9.39,26.67,0,0-14.25-.41-16.11,11.51-6.87-24.5,8.21-44.19,25.44-57.93C104.19,207.05,123.93,199.24,125,198.81Z"/><path class="cls-6" d="M125,198.81c-1.22,1.05-24.7,21.25-38.27,41.95,1.72-5.54,3.16-13.56-.06-19.75C104.19,207.05,123.93,199.24,125,198.81Z"/><path class="cls-4" d="M187.12,202.22c1,.9,45.9,35,48.94,61.51,0,0,11.8-2.22,13.34,9.47,3.84-24.4-10.75-40.81-29.46-56.77C205.74,204.32,188,202.51,187.12,202.22Z"/><path class="cls-6" d="M187.12,202.22c1,.9,25.9,20.29,39.17,39.41-1.42-5.32-1-11.43,1.69-18C208.1,202.9,188,202.51,187.12,202.22Z"/><path class="cls-6" d="M181.08,381.82a30.62,30.62,0,0,1-.77,6.65,28,28,0,0,0,14.94-3.33c8.24-4.69,9.25-15,5.58-23-3.12-6.83-9.36-12.84-16.74-14.77-4.64-1.22-9.82-.62-14.55-.33a165.21,165.21,0,0,0-17.46,2,152.31,152.31,0,0,0-30.15,8c-7.17,2.84-13.6,7.84-14.26,16.07-.69,8.6,3.19,17.49,12.72,17.55a38.34,38.34,0,0,0,10.86-1.84,8.19,8.19,0,0,1-1.36-5.38c.67-4.9,5.62-9.75,10-12.42a46.62,46.62,0,0,0,34.43,0S181.15,374.5,181.08,381.82Z"/><path class="cls-7" d="M110.86,451.9h21.67s10.57-18.5,6.35-56.56h-10s3.17,22.2-8.46,39.65C120.37,435,107.68,427.06,110.86,451.9Z"/><path class="cls-7" d="M208.22,451.9H186.55S176,433.4,180.2,395.34h10.05s-3.18,22.2,8.45,39.65C198.7,435,211.39,427.06,208.22,451.9Z"/><path class="cls-4" d="M231.39,365.21c-18,37-51.2,30.13-51.2,30.13s-8-1.59-1-11.1a10.78,10.78,0,0,0,2.22-6.41c.06-7.32-7.12-13.68-7.12-13.68a46.62,46.62,0,0,1-34.43,0c-4.36,2.66-8.23,7.82-8.9,12.73a8.54,8.54,0,0,0,2.62,7.89c6.34,5.81,5.29,10.57,5.29,10.57-10,11.63-37.9-.4-51.28-13.51C70.13,364.7,67.36,349.3,69.71,337.46c3-15,14.1-24.32,14.1-24.32-6.09-41.61,9.73-79.25,21.91-100.93a158.93,158.93,0,0,1,12.54-19.35h66.12a95,95,0,0,1,13.07,14.57c29.63,40.65,27.07,99.62,27.07,99.62a43.49,43.49,0,0,1,12.85,25C238.75,340.93,237.78,352.07,231.39,365.21Z"/><path class="cls-6" d="M197.45,207.43c-16.87,14.07-18.4,38.13-33.2,39.53S122,217.35,105.72,212.21a158.93,158.93,0,0,1,12.54-19.35h66.12A95,95,0,0,1,197.45,207.43Z"/><path class="cls-3" d="M215.52,285.27c0,3.26-.07,6.62-.25,10.05-.08,1.37-.15,2.75-.26,4.16a87,87,0,0,1-2.59,15.92c-9.63,36.72-40.95,47.68-53.1,48.92-12.84,1.33-49.59-6-62.45-51.93a105.79,105.79,0,0,1-2.39-10.45c-.22-1.11-.39-2.19-.55-3.3a104.07,104.07,0,0,1-1-10.91c-.09-2-.13-4.09-.11-6.11.29-26.43,9.39-51,17.44-67.49a171.42,171.42,0,0,1,12-21.27h58.15A172.72,172.72,0,0,1,194,210.7c12.28,18.71,19.57,39.13,21.19,63.9C215.41,278.06,215.52,281.62,215.52,285.27Z"/><path class="cls-5" d="M215.17,274.6c-.12-2-.29-3.94-.51-5.88a83.05,83.05,0,0,1-3.28,15.85,46.07,46.07,0,0,1-13-5.63s13-20.39,2.59-31.94-26.27-1.08-26.27-1.08l1.62,15.8-10.78,18.86,6.39,9.72-11.26,15.82-1.51-2.74,6.38-15.5-7.91-11.57,7.6-15.19-11.78-15.51s-27.77-6.19-32.16,7.31,2.59,23.1,2.59,23.1-11.63,13.42-22.72,14.12a100.11,100.11,0,0,1-6.68-22.6c-.15-.79-.28-1.55-.4-2.32a126.29,126.29,0,0,0-1.26,16.4c0,2,0,4.07.12,6.12,0,.18,0,.37,0,.56.07,1.28.15,2.56.26,3.85,0,.51.08,1,.13,1.55.16,1.64.34,3.29.58,4.94.16,1.11.33,2.19.55,3.3.32,1.82.68,3.58,1.07,5.3l.15.57c11.64,50.06,50.37,57.88,63.62,56.51,12.15-1.24,43.45-12.22,53.09-48.92.13-.45.23-.92.34-1.37.16-.66.32-1.3.47-2s.3-1.51.44-2.27c.11-.57.22-1.13.32-1.71.16-.94.29-1.92.42-2.89.06-.44.13-.86.18-1.3.18-1.44.32-2.91.43-4.41s.18-2.79.26-4.16c.09-1.78.16-3.54.2-5.28Q215.68,282,215.17,274.6Zm-55.85,55.3c-9,.93-29.59-2.36-45.6-20.06,8-2.09,16.59-5.77,22.93-12.24,0,0,13.26,12.16,25.94,18.24a148.84,148.84,0,0,0,20.88-17A87.18,87.18,0,0,0,197.68,309C184.56,323.75,167.55,329.06,159.32,329.9Z"/><path class="cls-5" d="M194,210.69c-13.7,14.23-15.71,24.93-29.43,26.22-13.51,1.29-37.85-14.36-54.31-22.77a170.14,170.14,0,0,1,12.08-21.28h58.15A170.38,170.38,0,0,1,194,210.69Z"/><path class="cls-6" d="M138.88,395.34c-10,11.63-37.9-.4-51.28-13.51C70.13,364.7,67.36,349.3,69.71,337.46c21,50.54,47.62,46.14,61.26,39.42a8.54,8.54,0,0,0,2.62,7.89C139.93,390.58,138.88,395.34,138.88,395.34Z"/><path class="cls-6" d="M231.39,365.21c-18,37-51.2,30.13-51.2,30.13s-8-1.59-1-11.1a10.78,10.78,0,0,0,2.22-6.41c35,13.34,50.48-26,56-45.8C238.75,340.93,237.78,352.07,231.39,365.21Z"/><path class="cls-4" d="M66.67,108.26c-7.48-2.69-17.4-8.62-26.29-23.33a101.43,101.43,0,0,1-7.81-16.2A112.65,112.65,0,0,0,6.84,29.51,9.23,9.23,0,0,1,8.48,15.06C60.73-16.7,95.14,9.15,109.93,25.44a74.28,74.28,0,0,1,8.27,10.78C138.51,67.73,76.44,111.77,66.67,108.26Z"/><path class="cls-6" d="M98.13,47.6c-5-6.61-24.57-5.53-24.57-5.53L83.72,30s-11.52-5.08-23.31.31c0,0,5.7-7.08,10.93-10.34-7.57-5.75-46.91-1.2-50.34,7.28-1.45,3.59,24.74,24.47,35,48.17C60.81,86.47,98.13,47.6,98.13,47.6Z"/><path class="cls-6" d="M66.67,108.26c-7.48-2.69-17.4-8.62-26.29-23.33C62.5,48.46,97.3,30.86,109.93,25.44a74.28,74.28,0,0,1,8.27,10.78C138.51,67.73,76.44,111.77,66.67,108.26Z"/><path class="cls-4" d="M238.69,113.41c7.79-1.56,18.48-6,29.43-19.22a100.76,100.76,0,0,0,10.12-14.87,112.52,112.52,0,0,1,31.2-35A9.24,9.24,0,0,0,310,29.77c-47-39.09-84.86-18.58-101.88-4.64a74.53,74.53,0,0,0-9.76,9.45C173.58,62.77,228.51,115.45,238.69,113.41Z"/><path class="cls-6" d="M216.49,48.79c5.95-5.79,25.11-1.86,25.11-1.86l-8.28-13.42s12.14-3.33,23,3.73c0,0-4.6-7.84-9.3-11.83,8.33-4.58,46.58,5.7,48.73,14.59.91,3.76-28.07,20.57-41.72,42.51C247.69,92.72,216.49,48.79,216.49,48.79Z"/><path class="cls-6" d="M238.69,113.41c7.79-1.56,18.48-6,29.43-19.22-16.52-39.32-48.35-61.84-60.05-69.06a74.53,74.53,0,0,0-9.76,9.45C173.58,62.77,228.51,115.45,238.69,113.41Z"/><path class="cls-4" d="M279.2,167.7c-73.86-4.79-119.71-.87-119.71-.87-73.2.91-130.62,14.08-130.62,14.08S22.74,62.4,131.53,26c0,0,8.49-12.13,26.45-22.39L146.82,23.68c.62-.5,10.79-8.53,23-12l-3.41,13.48S258.15,30.31,279.2,167.7Z"/><path class="cls-3" d="M279.2,167.7s-69.37,19.68-117.38,55.5c0,0-52.79-32.78-132.95-42.29,0,0,57.12-41.91,130.59-31.46C159.46,149.45,220.7,135.64,279.2,167.7Z"/><path class="cls-7" d="M151.3,144.41l15.69-.57a3.11,3.11,0,0,1,2.39,5.22l-7.53,8.12a3.1,3.1,0,0,1-4.39.17l-8.16-7.55A3.11,3.11,0,0,1,151.3,144.41Z"/><path class="cls-6" d="M171.4,131.48S165.33,80.77,173,58.41c0,0,17.62,36,61.72,31.76,6.15,8.57,10,25.87,10,25.87C232,112.69,200.37,112,171.4,131.48Z"/><path id="SVGID-3" data-name="SVGID" class="cls-1" d="M173.76,127.52s-3.6-40.75,2.09-62.75c0,0,19,27.93,52,26.8,5.39,8.72,8.06,22.47,8.06,22.47S202.48,110.62,173.76,127.52Z"/><g class="cls-8"><path class="cls-7" d="M177.37,98.92c.26,20.26,12.73,37.83,27.82,36.28S228.94,113.93,225.08,94c-3.35-17.3-15.24-28.76-26.93-27.56S177.14,81.3,177.37,98.92Z"/><path class="cls-1" d="M219.28,93.06c-.18,3.8-2.74,6.86-5.72,6.82s-5.24-3.14-5.06-6.94,2.75-6.86,5.72-6.83S219.46,89.26,219.28,93.06Z"/></g><path class="cls-7" d="M173,128.94l-.12-1.35c0-.4-3.54-41.15,2.11-63l.48-1.83,1.06,1.56c.18.27,18.38,26.46,49.4,26.46q.94,0,1.89,0l.49,0,.26.42c5.42,8.75,8.07,22.19,8.18,22.75L237,115l-1.15-.12c-.33,0-33.52-3.18-61.66,13.37Zm3.22-62.21c-4.45,19.64-2.28,52.38-1.75,59.38,25.36-14.38,54.28-13.4,60.37-13-.74-3.35-3.24-13.6-7.46-20.66C199,93.16,180.79,72.51,176.25,66.73Z"/><path class="cls-6" d="M141.4,133.46s3.57-50.94-5.15-72.9c0,0-15.83,36.85-60.09,34.76-5.72,8.87-8.72,26.33-8.72,26.33C80,117.69,111.5,115.41,141.4,133.46Z"/><path id="SVGID-4" data-name="SVGID" class="cls-1" d="M138.85,129.62s1.58-40.87-5.18-62.56c0,0-17.59,28.82-50.65,29.33-5,9-6.94,22.83-6.94,22.83S109.34,114.17,138.85,129.62Z"/><g class="cls-9"><path class="cls-7" d="M133.84,101.23c.74,20.26-10.86,38.42-26,37.62S83.07,118.77,85.94,98.7c2.5-17.43,13.81-29.47,25.54-28.85S133.2,83.63,133.84,101.23Z"/><path class="cls-1" d="M124,93.15c-.18,3.8-2.74,6.86-5.71,6.83s-5.25-3.15-5.07-7,2.75-6.86,5.72-6.82S124.19,89.35,124,93.15Z"/></g><path class="cls-7" d="M139.65,131l-1.19-.63C109.54,115.23,76.54,120,76.21,120.06l-1.13.18.16-1.14c.08-.57,2.06-14.12,7-23.13l.24-.43H83c32.21-.49,49.76-28.63,49.93-28.92l1-1.61.56,1.8c6.73,21.58,5.24,62.45,5.23,62.86Zm-50.42-13.4c12.26,0,31.18,1.76,48.81,10.64.19-7,.74-39.83-4.68-59.22-4.24,6-21.44,27.52-49.82,28.2-3.87,7.26-5.86,17.62-6.43,21A110.69,110.69,0,0,1,89.23,117.61Z"/><path class="cls-7" d="M175.55,42.64c-1.54,1.94,1.57,7,6.94,11.19s11,6.11,12.49,4.16S193.41,51,188,46.8,177.08,40.7,175.55,42.64Z"/><path class="cls-7" d="M128.21,44.27c1.69,1.81-1,7.06-6,11.73s-10.42,7-12.11,5.18,1-7,6-11.72S126.52,42.47,128.21,44.27Z"/><path class="cls-7" d="M177.75,181q-1.4,0-2.43-1.89c-2.59-4.75-6.86-12.57-14.83-12.73-7.47-.15-12.78,5.64-17.88,11.25-1.13,1.24-2.61,1.47-3.69.56l-2.58-2.16,1.22-1.46,2.59,2.16c.37.32.9-.21,1-.38,5.39-5.92,11-12,19.33-11.88,9.08.19,13.85,8.94,16.42,13.65.48.87.72,1,.87,1l2.58-1.71,1,1.59-2.9,1.89A2.33,2.33,0,0,1,177.75,181Z"/><path class="cls-10" d="M177.52,125.44s9.4-17.33,18.54-18.45c4.51-.7,10.1,4.33,10.1,4.33s8.42-5.12,11-5,7.42,7.53,7.42,7.53l-10.89,2.6s5.63,9-6,10c-6.84.61-2.83-8.64-2.83-8.64l-10.62,2.77s7.63,9.93-2.42,12.72-7.31-9.92-7.31-9.92Z"/><path class="cls-10" d="M137.32,129s-2.24-14.24-16.23-11.69c0,0-11.79-7.52-18.36-7.63s-18.65,8.89-18.65,8.89l19.54,3.5s-8.71,13.39,1.19,14.41,6-14,6-14l10.62,2.37s-1.61,10,4.38,10,6.26-7.92,6.26-7.92Z"/><path class="cls-11" d="M157.94,246.07s-18.7-17.79-32.16-2.74c-14.86,16.62,7.08,51.08,35.35,64.76,0,0,60.34-36.49,38.15-63.39-15.35-17.78-30.4.46-30.4.46l5.48,11.4L164,276.16l6.67,9-10,18.25L164,285.12l-5.64-11.92L164,256.1Z"/><path class="cls-7" d="M149.82,272.36c1.69,6.32-9.36,15.32-13.16,17.79-22.66,14.71-58.37,23.13-74.32-7.73a16.75,16.75,0,0,1-1.11-3.48c1.86-11.92,16.11-11.51,16.11-11.51a15.36,15.36,0,0,0,4.21,9.09c18.82,19.77,33.2-1,53.08-8.11C138.94,266.87,147.75,264.61,149.82,272.36Z"/><path class="cls-7" d="M174.85,278.93c-1.4,6.53,7.75,14.12,10.9,16.11,18.76,11.83,56.39,10.17,63.65-21.84-1.54-11.69-13.34-9.47-13.34-9.47-.31,3.44-1.13,6.9-3.48,9.63-15.36,17.85-28.69,4.29-45.15-.32C183.86,272,176.56,270.91,174.85,278.93Z"/></g></g></svg>