<svg xmlns="http://www.w3.org/2000/svg" viewBox="0 0 95.94 184.84"><defs><style>.cls-1{fill:#8a4f4f;}.cls-2{fill:#fac7ad;}.cls-3{fill:#ab5e5f;}.cls-4{fill:#f29283;}.cls-5{fill:#1281a6;}.cls-6{fill:#0e557b;}.cls-7{fill:#0b2231;}.cls-8{fill:#8f3358;}.cls-9{fill:#ef7ca5;}.cls-10{fill:#f4a29b;}.cls-11{fill:#9f5248;}.cls-12{fill:#fff;}.cls-13{fill:#1a323a;}.cls-14{fill:#7b4242;}.cls-15{fill:#ed9c29;}</style></defs><g id="Camada_2" data-name="Camada 2"><g id="Camada_1-2" data-name="Camada 1"><path class="cls-1" d="M61.05,2.92c-2.85.13-3.15,6.16-2,7.83.17.25.52.71.86.7,1.17,0,.34-2.44.3-2.86-.13-1.43-.06-4.37,1-5.49C61.29,3,61.15,2.91,61.05,2.92Z"/><path class="cls-1" d="M92.37,26.13C87.94,32.8,79.52,30.44,71,24.77S57,12.25,61.4,5.58s14.94-7.47,23.49-1.8S96.79,19.46,92.37,26.13Z"/><path class="cls-2" d="M38.06,98.11c-2.9-1.26-7.9.4-17,10.58q-3.93,4.41-7.68,9-2.81,3.4-5.5,6.89A15.63,15.63,0,0,1,5.79,127a8.08,8.08,0,0,1-3.31,1.41,4.67,4.67,0,0,0-2.17.88A1,1,0,0,0,.74,131a9.18,9.18,0,0,0,2.57.17.46.46,0,0,1,.35.16c.13.17,0,.42-.09.54-.55.82-.89,1.22-1.22,1.7-.53.77-2.06,2.46-1.39,3.47a1.21,1.21,0,0,0,1.33.37,7,7,0,0,0,1.56-1.09l.7-.67c.18-.19.43-.52.73-.49s.24.34.2.53a2.18,2.18,0,0,1-.25.59,20.34,20.34,0,0,0-1.15,2.16,4.59,4.59,0,0,0-.31,1.14,1.09,1.09,0,0,0,.24.86.92.92,0,0,0,.61.24A2.05,2.05,0,0,0,6,140.24a7.8,7.8,0,0,0,1.26-1.37c.39-.51.79-1,1.2-1.52a.58.58,0,0,1,.33-.23.36.36,0,0,1,.33.26,1,1,0,0,1,0,.45,7.21,7.21,0,0,1-.42,1.09,12.23,12.23,0,0,0-.4,1.16,2.07,2.07,0,0,0-.06,1.32,1.18,1.18,0,0,0,1.87.41c.66-.49,2.1-3.28,2.34-3.71a72.25,72.25,0,0,1,5.07-7.48,123.76,123.76,0,0,1,11.75-13.78Z"/><path class="cls-2" d="M57.88,98.11c2.89-1.26,7.89.4,17,10.58,2.61,2.94,5.18,5.92,7.68,9q2.8,3.4,5.5,6.89A15.63,15.63,0,0,0,90.15,127a8.09,8.09,0,0,0,3.3,1.41,4.67,4.67,0,0,1,2.18.88A1.06,1.06,0,0,1,95.2,131a9.18,9.18,0,0,1-2.57.17.48.48,0,0,0-.36.16c-.12.17,0,.42.09.54.55.82.9,1.22,1.22,1.7.54.77,2.07,2.46,1.4,3.47a1.21,1.21,0,0,1-1.33.37,6.82,6.82,0,0,1-1.56-1.09l-.7-.67c-.18-.19-.43-.52-.73-.49s-.24.34-.2.53a1.91,1.91,0,0,0,.25.59,18.58,18.58,0,0,1,1.14,2.16,3.87,3.87,0,0,1,.31,1.14,1.08,1.08,0,0,1-.23.86.92.92,0,0,1-.61.24,2,2,0,0,1-1.37-.48,7.8,7.8,0,0,1-1.26-1.37c-.39-.51-.79-1-1.2-1.52a.57.57,0,0,0-.34-.23.35.35,0,0,0-.32.26.86.86,0,0,0,0,.45,7.21,7.21,0,0,0,.42,1.09c.15.38.28.77.4,1.16a2.07,2.07,0,0,1,.06,1.32,1.18,1.18,0,0,1-1.87.41,19.35,19.35,0,0,1-2.34-3.71,76.11,76.11,0,0,0-4.72-7.74,83.81,83.81,0,0,0-12.1-13.52Z"/><path class="cls-2" d="M66.78,116.4c-4-13.05-8.88-16.22-9.25-20.57-.33-4.07-.43-8.61-.43-8.61H39s-.09,4.54-.43,8.61c-.36,4.35-5.26,7.52-9.24,20.57a171.3,171.3,0,0,0-5.94,31.36S33,151,48.06,151s24.65-3.2,24.65-3.2A170.8,170.8,0,0,0,66.78,116.4Z"/><path class="cls-3" d="M10.4,63.27c-4.27-.82-15.52-28.59,5.28-46.55s54.7-7.45,57.91,6c.85-.11,7.32-.54,12.14,9,4.35,8.64,6.94,41.82-11.86,47.56S10.4,63.27,10.4,63.27Z"/><path class="cls-4" d="M57.16,87.22H39s-.07,3.67-.34,7.37c1.86.1,3.7.14,5.49.14a32.39,32.39,0,0,0,13.1-3.1C57.1,88.29,57.16,87.22,57.16,87.22Z"/><path class="cls-5" d="M23.4,147.76c0,11.12,2.6,31.1,2.6,31.1a44.4,44.4,0,0,0-7.25,2.83c-2.46,1.42-1.86,3.15,9.08,3.15H43.74l3.35-37.08S23.4,136.64,23.4,147.76Z"/><path class="cls-6" d="M46.32,156.32a36.47,36.47,0,0,1-5.12-1.44l-1.84,24h4.92Z"/><path class="cls-5" d="M72.78,147.76c0,11.12-2.6,31.1-2.6,31.1a44.4,44.4,0,0,1,7.25,2.83c2.46,1.42,1.86,3.15-9.08,3.15H52.44l-3.35-37.08S72.78,136.64,72.78,147.76Z"/><path class="cls-5" d="M44.92,149.75H51.2V156a12,12,0,0,1-6.28,0Z"/><path class="cls-7" d="M52.44,184.84H68.35c10.94,0,11.54-1.73,9.08-3.15a44.4,44.4,0,0,0-7.25-2.83H51.9Z"/><path class="cls-7" d="M26,178.86a44.4,44.4,0,0,0-7.25,2.83c-2.46,1.42-1.86,3.15,9.08,3.15H43.74l.54-6Z"/><path class="cls-2" d="M44.16,89.25c9.63,0,20.87-1.15,27.76-7.57s7.57-22.94,3.44-39.23-20-20-31.2-20-27.07,3.67-31.2,20S9.52,75.26,16.4,81.68,34.52,89.25,44.16,89.25Z"/><path class="cls-8" d="M35.88,75.16s1.49,5.88,8.63,5.66c8.23-.26,8.44-6.48,8.44-6.48s-1.44,0-8.07.35Z"/><path class="cls-9" d="M44.51,80.82a11.06,11.06,0,0,0,4.62-1,7.6,7.6,0,0,0-5.19-1.91,7.79,7.79,0,0,0-4.82,1.59A9.07,9.07,0,0,0,44.51,80.82Z"/><path class="cls-3" d="M44.16,18.51C5.85,18.51,9.69,49.17,9.69,49.17c12.4-2.58,20-11.86,23.14-16.66-.41,4.14-1.08,11.34-.92,12.63.12.94,6.29,1.35,12.25,1.27,6,.08,12.12-.33,12.24-1.27.16-1.29-.51-8.49-.92-12.63,3.18,4.8,10.74,14.08,23.15,16.66C78.63,49.17,82.46,18.51,44.16,18.51Z"/><path class="cls-10" d="M42.5,66.26c-2.52-.09-4.79,1.51-4.78,2.26,0,1.74,9,2.1,8.86,0C46.53,67.34,44.66,66.33,42.5,66.26Z"/><path class="cls-11" d="M37.5,69c1.58-1.19,2.73-2.37,4.88-2.38,2,0,3,1.06,4.13,2.54.19.25.67.26.62-.13-.55-4.48-8.57-4.06-9.73-.16,0,0,0,.18.1.13Z"/><path class="cls-12" d="M60.76,48.42c-3.33,0-8.23,2-9.65,6.78C49.39,61,53,66.67,60.76,66.39c8.36-.29,11.32-5.27,10.42-9.88C70.22,51.57,66.59,48.44,60.76,48.42Z"/><path class="cls-7" d="M51,56.22a10.47,10.47,0,0,1,11.68-6.63,9.66,9.66,0,0,1,5.3,3c1.43,1.7,1.63,3.91,3,5.61.22.27.77.43,1,0,1.24-2.44-.7-5.62-2.45-7.38a12.35,12.35,0,0,0-7.08-3.35,12.1,12.1,0,0,0-7.7,1.7c-2.67,1.7-3.44,3.92-3.9,6.94,0,.17.14.28.21.08Z"/><path class="cls-13" d="M51.68,58.89a7.51,7.51,0,1,1,7.5,7.51A7.5,7.5,0,0,1,51.68,58.89Z"/><path class="cls-12" d="M53,58.21a2.4,2.4,0,1,1,2.4,2.4A2.41,2.41,0,0,1,53,58.21Z"/><path class="cls-12" d="M26.26,48.42c3.32,0,8.22,2,9.64,6.78,1.72,5.82-1.85,11.47-9.64,11.19-8.37-.29-11.33-5.27-10.43-9.88C16.79,51.57,20.42,48.44,26.26,48.42Z"/><path class="cls-7" d="M36.25,56.08c-.51-3.12-1.79-5.56-4.63-7.19a11.54,11.54,0,0,0-8.89-1,11.88,11.88,0,0,0-5.56,3.39c-1.42,1.65-3.39,4.62-2,6.74.23.34.79.65,1.08.2.9-1.42,1.12-3.1,2-4.54a8.71,8.71,0,0,1,4.08-3.43,10.18,10.18,0,0,1,13.68,6c.07.22.24,0,.22-.16Z"/><circle class="cls-13" cx="27.83" cy="58.89" r="7.51"/><path class="cls-12" d="M26.55,58.21a2.4,2.4,0,1,0-2.4,2.4A2.4,2.4,0,0,0,26.55,58.21Z"/><path class="cls-14" d="M73.31,45.61a.8.8,0,0,0,0-.48A4.49,4.49,0,0,0,72.14,43,10.58,10.58,0,0,0,69.42,41,11.85,11.85,0,0,0,63,39.44a2.82,2.82,0,0,0-1.22.27A1.66,1.66,0,0,0,61,41c-.08,1,.73,1.47,1.61,1.61l2,.3c.49.07,1,.15,1.46.25a14.82,14.82,0,0,1,4.62,1.76,7,7,0,0,0,1.85.88C72.74,45.87,73.2,45.91,73.31,45.61Z"/><path class="cls-14" d="M15.43,44.88a.9.9,0,0,1,0-.49,4.49,4.49,0,0,1,1.38-2,10.67,10.67,0,0,1,2.87-1.87,11.93,11.93,0,0,1,6.5-1,3.1,3.1,0,0,1,1.2.36,1.66,1.66,0,0,1,.74,1.38c0,1-.84,1.41-1.73,1.47l-2,.15c-.49,0-1,.07-1.48.13a15.15,15.15,0,0,0-4.74,1.4,6.28,6.28,0,0,1-1.91.73C16,45.18,15.52,45.19,15.43,44.88Z"/><path class="cls-2" d="M77.2,51.86c1.11-3.53,6-8.51,11.6-6.35s6.93,10.6,3.79,16.87S80.9,71,77.71,66.4Z"/><path class="cls-11" d="M76.88,56.28c-.06.21.22.66.47.5,1.06-.7,1.81-1.71,2.92-2.34a6.32,6.32,0,0,1,3.85-.73,3.7,3.7,0,0,1,1,2.84,5.77,5.77,0,0,1-1.39,3.25,9.33,9.33,0,0,1-2.33,1.31s-.11.21,0,.24c3.62.88,6-4.15,4.93-7.06,2,.86,3.73,2.56,3.62,5,0,.12.11.09.15,0C93.1,51.76,79.23,49.12,76.88,56.28Z"/><path class="cls-3" d="M84.56,45.14c-1.29,9.31-7.46,14.43-8.49,12.68s.5-9.83,0-12.31l8.49-.37"/><path class="cls-15" d="M66.78,116.4C63.37,105.25,59.3,101.31,58,97.68h0c0,.09-1.66,4.24-9.91,4.24s-9.88-4.15-9.91-4.24c-1.34,3.63-5.41,7.57-8.81,18.72-4.6,15-5.94,23.31-5.94,31.36,0,0,9.62,3.2,24.66,3.2s24.65-3.2,24.65-3.2C72.71,139.56,71.38,131.45,66.78,116.4Z"/></g></g></svg>