<svg xmlns="http://www.w3.org/2000/svg" viewBox="0 0 362 370"><defs><style>.cls-1{isolation:isolate;}.cls-2{fill:#d8d8d8;mix-blend-mode:multiply;opacity:0.69;}.cls-3{fill:#fff;}.cls-4{fill:#0a8b8d;}.cls-5,.cls-6{fill:none;stroke-miterlimit:10;}.cls-5{stroke:#ed9b28;stroke-width:14.26px;}.cls-6{stroke:#fff;stroke-width:3.56px;}</style></defs><g class="cls-1"><g id="Camada_2" data-name="Camada 2"><g id="Camada_1-2" data-name="Camada 1"><circle class="cls-2" cx="181" cy="189" r="181"/><circle class="cls-3" cx="181" cy="181" r="181"/><path class="cls-4" d="M282.67,176c13.92-3.76,20.09-28.92,1.5-34.16-21-5.91-46.86,0-68.24.83-10.15.38-16.7-.61-15.36-9.56,1.23-8.26,7.3-31.73,5.57-38.91-1.54-6.36-4.74-13.94-7.48-20-3.57-7.86-13.88-19.87-23.9-17.71-12.58,2.71-11.45,17.89-10.1,27.71,1.49,10.9,2.58,15.81-1.78,26.48-3.53,8.64-7,13.69-11.21,20.2-10.63,16.48-15.54,34-32.26,34.46-3.9.12-7.69-2.77-7.68-2.78,1.7-3.52-.61-8.59-4.38-9.62-8.92-2.43-20.89-7.19-24.85,2.47S76,178.65,75.24,189.35A268.82,268.82,0,0,0,76,232.61c1,10.82,3.67,24.29,8.4,34.13,4.57,9.48,10.74,11.22,20.38,10.51,4.68-.35,7.55-.54,9.42-5.33,1.06-2.71.67-8.95-.14-11.22-.38-1.05,10.9-2.54,15.81-1.33,6.11,1.51,9,7.52,14.93,10.23,9,4.11,20.88,4.53,30.53,4.71,32.57.61,65.83-4.14,77.07-6.71,19-4.35,27.21-16.65,15.53-27.1,14.55-1,18.44-22.74,7.64-30.51C291.06,209,297.61,183.55,282.67,176Z"/><path class="cls-5" d="M282.67,176c13.92-3.76,20.09-28.92,1.5-34.16-21-5.91-46.86,0-68.24.83-10.15.38-16.7-.61-15.36-9.56,1.23-8.26,7.3-31.73,5.57-38.91-1.54-6.36-4.74-13.94-7.48-20-3.57-7.86-13.88-19.87-23.9-17.71-12.58,2.71-11.45,17.89-10.1,27.71,1.49,10.9,2.58,15.81-1.78,26.48-3.53,8.64-7,13.69-11.21,20.2-10.63,16.48-15.54,34-32.26,34.46-3.9.12-7.69-2.77-7.68-2.78,1.7-3.52-.61-8.59-4.38-9.62-8.92-2.43-20.89-7.19-24.85,2.47S76,178.65,75.24,189.35A268.82,268.82,0,0,0,76,232.61c1,10.82,3.67,24.29,8.4,34.13,4.57,9.48,10.74,11.22,20.38,10.51,4.68-.35,7.55-.54,9.42-5.33,1.06-2.71.67-8.95-.14-11.22-.38-1.05,10.9-2.54,15.81-1.33,6.11,1.51,9,7.52,14.93,10.23,9,4.11,20.88,4.53,30.53,4.71,32.57.61,65.83-4.14,77.07-6.71,19-4.35,27.21-16.65,15.53-27.1,14.55-1,18.44-22.74,7.64-30.51C291.06,209,297.61,183.55,282.67,176Z"/><path class="cls-6" d="M282.67,176c13.92-3.76,20.09-28.92,1.5-34.16-21-5.91-46.86,0-68.24.83-10.15.38-16.7-.61-15.36-9.56,1.23-8.26,7.3-31.73,5.57-38.91-1.54-6.36-4.74-13.94-7.48-20-3.57-7.86-13.88-19.87-23.9-17.71-12.58,2.71-11.45,17.89-10.1,27.71,1.49,10.9,2.58,15.81-1.78,26.48-3.53,8.64-7,13.69-11.21,20.2-10.63,16.48-15.54,34-32.26,34.46-3.9.12-7.69-2.77-7.68-2.78,1.7-3.52-.61-8.59-4.38-9.62-8.92-2.43-20.89-7.19-24.85,2.47S76,178.65,75.24,189.35A268.82,268.82,0,0,0,76,232.61c1,10.82,3.67,24.29,8.4,34.13,4.57,9.48,10.74,11.22,20.38,10.51,4.68-.35,7.55-.54,9.42-5.33,1.06-2.71.67-8.95-.14-11.22-.38-1.05,10.9-2.54,15.81-1.33,6.11,1.51,9,7.52,14.93,10.23,9,4.11,20.88,4.53,30.53,4.71,32.57.61,65.83-4.14,77.07-6.71,19-4.35,27.21-16.65,15.53-27.1,14.55-1,18.44-22.74,7.64-30.51C291.06,209,297.61,183.55,282.67,176Z"/><path class="cls-6" d="M112.28,160.52a203.37,203.37,0,0,0-4.49,41.66c-.08,14.84,1.09,23.74,3.71,43.37.72,5.35,1.93,13.6,3.27,19.17"/></g></g></g></svg>