<svg xmlns="http://www.w3.org/2000/svg" viewBox="0 0 101.25 190.94"><defs><style>.cls-1{fill:#bdd5db;}.cls-2{fill:#fac7ad;}.cls-3{fill:#ce5641;}.cls-4{fill:#f29283;}.cls-5,.cls-6{fill:#ed9b28;}.cls-6{opacity:0.5;}.cls-7{fill:#153643;}.cls-8{fill:#0b2231;}.cls-9{fill:#f4a29b;}.cls-10{fill:#9f5248;}.cls-11{fill:#fff;}.cls-12{fill:#1a323a;}.cls-13{fill:#a13817;}</style></defs><g id="Camada_2" data-name="Camada 2"><g id="Camada_1-2" data-name="Camada 1"><path class="cls-1" d="M0,184.53c0-3.54,22.67-6.41,50.63-6.41s50.62,2.87,50.62,6.41-22.66,6.41-50.62,6.41S0,188.07,0,184.53Z"/><path class="cls-2" d="M69.68,114.6c-4-13-8.88-16.22-9.24-20.57C60.1,90,60,85.42,60,85.42H41.92S41.82,90,41.48,94c-.36,4.35-5.25,7.52-9.24,20.57A171.3,171.3,0,0,0,26.3,146s9.62,3.21,24.66,3.21S75.62,146,75.62,146A171.3,171.3,0,0,0,69.68,114.6Z"/><path class="cls-3" d="M80.81,20.7s6.51,1.28,9.49,10S96.51,72.5,74.82,79.89Z"/><path class="cls-3" d="M80.57,10.76C82,12,82.19,15.17,82,16.8a6.62,6.62,0,0,1-2,3.85c-.55.66-.62.57-.89,1.34-.12.34.39.58.65.49,3-1,3.93-5.15,3.38-7.93-.27-1.38-.92-3.75-2.51-4.12-.16,0-.15.26-.07.33Z"/><path class="cls-3" d="M88.15,20.82c-.9-2.71-6.79-1.35-8.09.16-.2.24-.55.7-.44,1,.37,1.11,2.43-.34,2.83-.49C83.79,21,86.64,20.27,88,21,88.13,21.08,88.18,20.91,88.15,20.82Z"/><path class="cls-3" d="M80.81,20.7S81.14,6.1,60.22,1.58c-22.65-4.9-39.71,2-50.57,15.94C.9,28.79-1.56,54.81,13.45,55.62S80.81,20.7,80.81,20.7Z"/><path class="cls-3" d="M74.82,79.89c4.89-3.63,12.71-8.23,12.64-36.55H77.85Z"/><path class="cls-4" d="M60.06,85.42H41.92s-.08,3.68-.34,7.37c1.85.11,3.69.15,5.48.15a32.32,32.32,0,0,0,13.11-3.11C60,86.49,60.06,85.42,60.06,85.42Z"/><path class="cls-2" d="M26.3,146l2.6,31.11a43.78,43.78,0,0,0-7.25,2.83c-2.46,1.41-1.86,3.14,9.08,3.14H46.64L50,146Z"/><path class="cls-2" d="M75.68,146l-2.6,31.11a43.76,43.76,0,0,1,7.26,2.83c2.46,1.41,1.86,3.14-9.09,3.14H55.35L52,146Z"/><path class="cls-5" d="M26.3,146c0,4.85.49,11.37,1.05,17.2H48.44L50,146S26.3,134.84,26.3,146Z"/><path class="cls-6" d="M48.44,163.16l.78-8.63a36,36,0,0,1-5.12-1.45l-.78,10.08Z"/><path class="cls-5" d="M52,146l1.55,17.2H74.63c.56-5.83,1.05-12.35,1.05-17.2C75.68,134.84,52,146,52,146Z"/><path class="cls-2" d="M41.1,96.32c-2.89-1.26-7.89.39-17,10.57q-3.93,4.41-7.69,9-2.81,3.39-5.5,6.88a15.2,15.2,0,0,1-2.11,2.48,8.11,8.11,0,0,1-3.3,1.42,4.47,4.47,0,0,0-2.18.88,1,1,0,0,0,.43,1.73,8.82,8.82,0,0,0,2.57.17.49.49,0,0,1,.36.17c.13.16,0,.41-.09.54-.55.81-.89,1.22-1.22,1.69-.54.78-2.07,2.46-1.39,3.48a1.19,1.19,0,0,0,1.32.36,6.79,6.79,0,0,0,1.57-1.09c.24-.21.46-.44.69-.67s.43-.52.73-.49.25.35.21.53a2.08,2.08,0,0,1-.26.59,17.94,17.94,0,0,0-1.14,2.17,3.8,3.8,0,0,0-.31,1.13,1,1,0,0,0,.24.86.93.93,0,0,0,.6.25A2.07,2.07,0,0,0,9,138.44a8.14,8.14,0,0,0,1.25-1.37c.4-.51.79-1,1.21-1.51a.51.51,0,0,1,.33-.23.34.34,0,0,1,.32.26.82.82,0,0,1,0,.44,7.89,7.89,0,0,1-.41,1.09,11.56,11.56,0,0,0-.41,1.17,2,2,0,0,0-.06,1.31,1.18,1.18,0,0,0,1.87.41c.67-.48,2.11-3.27,2.34-3.7a76.89,76.89,0,0,1,5.07-7.49A123.76,123.76,0,0,1,32.29,115Z"/><path class="cls-2" d="M60.93,96.32c2.89-1.26,7.89.39,17,10.57q3.93,4.41,7.68,9,2.81,3.39,5.5,6.88a15.71,15.71,0,0,0,2.11,2.48,8.09,8.09,0,0,0,3.31,1.42,4.51,4.51,0,0,1,2.18.88,1,1,0,0,1-.44,1.73,8.75,8.75,0,0,1-2.56.17.48.48,0,0,0-.36.17c-.13.16,0,.41.09.54.55.81.89,1.22,1.22,1.69.53.78,2.06,2.46,1.39,3.48a1.21,1.21,0,0,1-1.33.36,6.73,6.73,0,0,1-1.56-1.09c-.24-.21-.47-.44-.69-.67s-.43-.52-.73-.49-.25.35-.21.53a2.38,2.38,0,0,0,.25.59,18,18,0,0,1,1.15,2.17,4.52,4.52,0,0,1,.31,1.13,1.08,1.08,0,0,1-.24.86,1,1,0,0,1-.6.25,2.07,2.07,0,0,1-1.38-.49,7.74,7.74,0,0,1-1.25-1.37c-.4-.51-.79-1-1.21-1.51a.51.51,0,0,0-.33-.23.36.36,0,0,0-.33.26.82.82,0,0,0,0,.44,6,6,0,0,0,.41,1.09,9.49,9.49,0,0,1,.4,1.17,2,2,0,0,1,.06,1.31,1.18,1.18,0,0,1-1.87.41c-.66-.48-2.1-3.27-2.34-3.7a73.83,73.83,0,0,0-4.72-7.75A83.3,83.3,0,0,0,69.73,115Z"/><path class="cls-5" d="M47.73,148H54v6.28a11.75,11.75,0,0,1-6.28,0Z"/><path class="cls-7" d="M41.05,95.89c-1.72-2-6-2.61-12.67,4.15s-8.72,9-8.72,9a17.09,17.09,0,0,0,11.57,11.4Z"/><path class="cls-7" d="M60.87,95.89c1.72-2,6-2.61,12.67,4.15s8.72,9,8.72,9a17.09,17.09,0,0,1-11.58,11.4Z"/><path class="cls-7" d="M69.68,114.6c-3.41-11.15-7.48-15.09-8.81-18.71h0c0,.08-1.66,4.23-9.91,4.23S41.08,96,41.05,95.89c-1.34,3.62-5.41,7.56-8.81,18.71-4.6,15.05-5.94,23.32-5.94,31.36,0,0,9.62,3.21,24.66,3.21S75.61,146,75.61,146C75.61,137.77,74.28,129.65,69.68,114.6Z"/><path class="cls-8" d="M55.35,183h15.9c11,0,11.55-1.73,9.09-3.14a43.76,43.76,0,0,0-7.26-2.83H54.81Z"/><path class="cls-8" d="M28.9,177.07a43.78,43.78,0,0,0-7.25,2.83c-2.46,1.41-1.86,3.14,9.08,3.14H46.64l.54-6Z"/><path class="cls-2" d="M47.06,87.46c9.63,0,20.88-1.15,27.76-7.57s7.57-23,3.44-39.23-20-20-31.2-20-27.07,3.67-31.2,20-3.44,32.8,3.44,39.23S37.42,87.46,47.06,87.46Z"/><path class="cls-9" d="M14.73,69.79a6.92,6.92,0,1,1,6.92,6.92A6.92,6.92,0,0,1,14.73,69.79Z"/><path class="cls-9" d="M64,69.79a6.93,6.93,0,1,1,6.93,6.92A6.92,6.92,0,0,1,64,69.79Z"/><path class="cls-3" d="M68.17,26.22s1.34,12.71,4.69,17S57.73,46.57,53.59,32c0,0,2.75,11.69.08,13.46s-22.48,2.06-29-18.27Z"/><path class="cls-9" d="M45.4,66.09c-2.51-.09-4.79,1.51-4.77,2.26,0,1.75,8.95,2.1,8.85,0C49.43,67.17,47.56,66.16,45.4,66.09Z"/><path class="cls-10" d="M40.4,68.82c1.58-1.19,2.73-2.37,4.89-2.37,2,0,3,1.06,4.12,2.53.19.26.67.27.62-.13-.55-4.47-8.57-4.06-9.72-.16,0,0,0,.18.09.13Z"/><path class="cls-11" d="M63.66,46.63c-3.33,0-8.23,2-9.64,6.77-1.73,5.82,1.84,11.47,9.64,11.2C72,64.3,75,59.33,74.09,54.72,73.13,49.77,69.5,46.64,63.66,46.63Z"/><path class="cls-8" d="M53.88,54.43A10.47,10.47,0,0,1,65.57,47.8a9.66,9.66,0,0,1,5.29,3c1.43,1.7,1.63,3.92,3,5.61.22.27.77.43,1,0,1.25-2.44-.7-5.61-2.44-7.37a12.32,12.32,0,0,0-7.08-3.35,12.06,12.06,0,0,0-7.71,1.69c-2.67,1.7-3.44,3.93-3.9,7,0,.17.15.27.21.08Z"/><path class="cls-12" d="M54.58,57.1a7.51,7.51,0,1,1,7.51,7.5A7.51,7.51,0,0,1,54.58,57.1Z"/><path class="cls-11" d="M56.25,56.42a2.4,2.4,0,1,1,2.4,2.4A2.4,2.4,0,0,1,56.25,56.42Z"/><path class="cls-11" d="M29.16,46.63c3.33,0,8.23,2,9.64,6.77,1.72,5.82-1.85,11.47-9.64,11.2-8.37-.3-11.32-5.27-10.43-9.88C19.69,49.77,23.32,46.64,29.16,46.63Z"/><path class="cls-8" d="M39.15,54.29c-.51-3.13-1.79-5.57-4.63-7.2a11.63,11.63,0,0,0-8.89-1,12,12,0,0,0-5.56,3.39c-1.42,1.65-3.39,4.63-2,6.74.23.34.79.66,1.08.2.9-1.41,1.12-3.1,2-4.54a8.74,8.74,0,0,1,4.09-3.43,10.18,10.18,0,0,1,13.67,6c.07.23.24,0,.22-.15Z"/><path class="cls-12" d="M38.24,57.1a7.51,7.51,0,1,0-7.51,7.5A7.51,7.51,0,0,0,38.24,57.1Z"/><circle class="cls-11" cx="27.36" cy="56.42" r="2.4"/><path class="cls-13" d="M70.52,43.1a1,1,0,0,0,0-.48,4.6,4.6,0,0,0-1.23-2.09,10.63,10.63,0,0,0-2.72-2.08,11.85,11.85,0,0,0-6.4-1.52A2.82,2.82,0,0,0,59,37.2a1.66,1.66,0,0,0-.85,1.31c-.07,1,.73,1.47,1.61,1.61l2,.3c.49.07,1,.15,1.46.25a15,15,0,0,1,4.63,1.76,6.77,6.77,0,0,0,1.84.88C69.94,43.36,70.4,43.4,70.52,43.1Z"/><path class="cls-13" d="M22.13,42.37a.87.87,0,0,1,0-.48,4.63,4.63,0,0,1,1.38-2A10.94,10.94,0,0,1,26.38,38a11.9,11.9,0,0,1,6.5-1,3.05,3.05,0,0,1,1.19.36,1.67,1.67,0,0,1,.75,1.38c0,1-.84,1.41-1.74,1.47l-2,.15c-.49,0-1,.07-1.48.13a15.42,15.42,0,0,0-4.74,1.4,6.47,6.47,0,0,1-1.91.74C22.69,42.67,22.23,42.68,22.13,42.37Z"/><path class="cls-2" d="M80.1,50.07c1.12-3.54,6-8.51,11.61-6.35s6.92,10.6,3.78,16.87-11.69,8.57-14.88,4Z"/><path class="cls-10" d="M79.79,54.49c-.07.21.21.65.46.49,1.06-.69,1.82-1.71,2.92-2.34A6.41,6.41,0,0,1,87,51.91a3.69,3.69,0,0,1,1,2.84A5.74,5.74,0,0,1,86.68,58a9.45,9.45,0,0,1-2.32,1.31c-.06,0-.12.22,0,.24,3.61.88,6-4.15,4.92-7.06,2,.86,3.73,2.57,3.62,5,0,.11.12.08.15,0C96,50,82.13,47.33,79.79,54.49Z"/><path class="cls-3" d="M79,43.72S72.13,38,68.17,26.22l-10.5,4.37a31.74,31.74,0,0,1-23.94.18l-9.1-3.62c-1.84,2.2-9.16,5-11.18,28.47,0,0-5.2-20.24,4.15-33.59S43.47,6.44,62.09,9.79C74.59,12,88.17,21.87,87.46,43.34,86.17,52.66,81.34,58,80.32,56.2s-.84-10-1.34-12.48l8.48-.38"/><path class="cls-10" d="M38.63,77.21c5.8,3.44,15.39,2,19.9-2.95.48-.52-.57-1-1-.56-4.54,5-13,5.43-18.84,3-.33-.13-.28.35-.07.48Z"/><path class="cls-10" d="M57.46,72c-.56.58,0,1.62.48,2a2.43,2.43,0,0,0,2.2.7c.25-.09.52-.39.25-.64s-.75,0-1-.08c-1-.22-1.34-1.08-1.66-2,0-.1-.15-.15-.23-.07Z"/></g></g></svg>