<svg xmlns="http://www.w3.org/2000/svg" viewBox="0 0 95.94 179.51"><defs><style>.cls-1{fill:#fac7ad;}.cls-2{fill:#0b2231;}.cls-3{fill:#f29283;}.cls-4{fill:#ed9b28;}.cls-5{fill:#0a8b8d;}.cls-6{fill:#f4a29b;}.cls-7{fill:#8f3358;}.cls-8{fill:#ef7ca5;}.cls-9{fill:#9f5248;}.cls-10{fill:#fff;}.cls-11{fill:#1a323a;}</style></defs><g id="Camada_2" data-name="Camada 2"><g id="Camada_1-2" data-name="Camada 1"><path class="cls-1" d="M66.64,111.07c-4-13-8.88-16.22-9.25-20.57-.34-4.07-.43-8.61-.43-8.61H38.87s-.09,4.54-.43,8.61c-.37,4.35-5.26,7.52-9.25,20.57a170.8,170.8,0,0,0-5.93,31.36s9.62,3.2,24.65,3.2,24.66-3.2,24.66-3.2A170.8,170.8,0,0,0,66.64,111.07Z"/><path class="cls-2" d="M71.77,76.35s10.86-.76,14.4-14.25,3.63-25.88,1.3-33.17-7.56-8.72-7.56-8.72S82.44,15.3,74,7.46c-5.36-5-36-13.94-54,0C-.15,23,5.36,44.41,10.4,52.08Z"/><path class="cls-2" d="M71.77,76.35c4.89-3.63,12.71-8.22,12.65-36.54H74.8Z"/><path class="cls-3" d="M57,81.89H38.87s-.08,3.67-.34,7.37c1.86.1,3.7.14,5.48.14a32.4,32.4,0,0,0,13.11-3.1C57,83,57,81.89,57,81.89Z"/><path class="cls-1" d="M23.26,142.43l2.6,31.1a44.74,44.74,0,0,0-7.26,2.83c-2.46,1.42-1.86,3.15,9.09,3.15h15.9L47,142.43Z"/><path class="cls-1" d="M72.64,142.43,70,173.53a44.76,44.76,0,0,1,7.25,2.83c2.46,1.42,1.86,3.15-9.08,3.15H52.3L49,142.43Z"/><path class="cls-1" d="M38.06,92.78c-2.9-1.26-7.9.4-17,10.58q-3.93,4.41-7.68,9-2.81,3.39-5.5,6.88a16.17,16.17,0,0,1-2.11,2.48,8.09,8.09,0,0,1-3.31,1.42A4.56,4.56,0,0,0,.31,124a1,1,0,0,0,.43,1.74,8.82,8.82,0,0,0,2.57.17.46.46,0,0,1,.35.16c.13.17,0,.42-.09.54-.55.82-.89,1.22-1.22,1.7-.53.77-2.06,2.46-1.39,3.47a1.21,1.21,0,0,0,1.33.37A7,7,0,0,0,3.85,131l.7-.67c.18-.18.43-.52.72-.49s.25.34.21.53a2.18,2.18,0,0,1-.25.59,20.34,20.34,0,0,0-1.15,2.16,4.59,4.59,0,0,0-.31,1.14,1.09,1.09,0,0,0,.24.86.92.92,0,0,0,.61.24A2,2,0,0,0,6,134.91a7.8,7.8,0,0,0,1.26-1.37c.39-.51.79-1,1.2-1.52.09-.1.2-.22.33-.22a.35.35,0,0,1,.33.26.94.94,0,0,1,0,.44,7.21,7.21,0,0,1-.42,1.09,12.23,12.23,0,0,0-.4,1.16,2.07,2.07,0,0,0-.06,1.32,1.18,1.18,0,0,0,1.87.41c.66-.49,2.1-3.27,2.34-3.71a73.77,73.77,0,0,1,5.06-7.48,124.84,124.84,0,0,1,11.76-13.78Z"/><path class="cls-1" d="M57.88,92.78c2.89-1.26,7.89.4,17,10.58q3.93,4.41,7.68,9,2.8,3.39,5.5,6.88a15.63,15.63,0,0,0,2.11,2.48,8.11,8.11,0,0,0,3.3,1.42,4.55,4.55,0,0,1,2.18.87,1.06,1.06,0,0,1-.43,1.74,8.82,8.82,0,0,1-2.57.17.48.48,0,0,0-.36.16c-.13.17,0,.42.09.54.55.82.9,1.22,1.22,1.7.54.77,2.07,2.46,1.4,3.47a1.21,1.21,0,0,1-1.33.37A6.82,6.82,0,0,1,92.09,131l-.7-.67c-.18-.18-.43-.52-.73-.49s-.24.34-.2.53a1.91,1.91,0,0,0,.25.59,18.58,18.58,0,0,1,1.14,2.16,3.87,3.87,0,0,1,.31,1.14,1.08,1.08,0,0,1-.23.86.92.92,0,0,1-.61.24,2,2,0,0,1-1.37-.48,7.8,7.8,0,0,1-1.26-1.37c-.39-.51-.79-1-1.2-1.52-.09-.1-.2-.22-.34-.22a.33.33,0,0,0-.32.26.94.94,0,0,0,0,.44,7.21,7.21,0,0,0,.42,1.09c.15.38.28.77.4,1.16a2.07,2.07,0,0,1,.06,1.32,1.18,1.18,0,0,1-1.87.41,19.05,19.05,0,0,1-2.34-3.71A76.11,76.11,0,0,0,78.79,125a83.81,83.81,0,0,0-12.1-13.52Z"/><path class="cls-4" d="M23.26,142.43c0,11.12,2.6,31.1,2.6,31.1a44.74,44.74,0,0,0-7.26,2.83c-2.46,1.42-1.86,3.15,9.09,3.15h15.9L47,142.43S23.26,131.31,23.26,142.43Z"/><path class="cls-4" d="M46.17,151a36.92,36.92,0,0,1-5.12-1.44l-1.84,24h4.92Z"/><path class="cls-4" d="M72.63,142.43c0,11.12-2.6,31.1-2.6,31.1a44.74,44.74,0,0,1,7.26,2.83c2.46,1.42,1.86,3.15-9.08,3.15H52.3l-3.36-37.08S72.63,131.31,72.63,142.43Z"/><path class="cls-4" d="M44.69,144.43H51v6.28a11.75,11.75,0,0,1-6.28,0Z"/><path class="cls-5" d="M38,92.35c-1.73-1.94-6-2.6-12.68,4.16s-8.71,9-8.71,9a17,17,0,0,0,11.57,11.39Z"/><path class="cls-5" d="M57.82,92.35c1.73-1.94,6-2.6,12.68,4.16s8.71,9,8.71,9a17,17,0,0,1-11.57,11.39Z"/><path class="cls-5" d="M66.63,111.07C63.23,99.92,59.16,96,57.82,92.35h0c0,.09-1.65,4.24-9.91,4.24S38,92.44,38,92.35c-1.33,3.63-5.4,7.57-8.81,18.72-4.6,15.05-5.93,23.31-5.93,31.36,0,0,9.62,3.2,24.65,3.2s24.66-3.2,24.66-3.2C72.57,134.23,71.23,126.12,66.63,111.07Z"/><path class="cls-2" d="M52.3,179.51H68.21c10.94,0,11.54-1.73,9.08-3.15A44.76,44.76,0,0,0,70,173.53H51.76Z"/><path class="cls-2" d="M25.86,173.53a44.74,44.74,0,0,0-7.26,2.83c-2.46,1.42-1.86,3.15,9.09,3.15h15.9l.54-6Z"/><path class="cls-1" d="M44,83.92c9.64,0,20.88-1.14,27.76-7.57s7.57-22.94,3.44-39.23-19.95-20-31.2-20-27.07,3.67-31.2,20S9.35,67.83,16.93,75C23.78,81.47,34.38,83.92,44,83.92Z"/><path class="cls-6" d="M13.08,66.25A6.92,6.92,0,1,1,20,73.17,6.92,6.92,0,0,1,13.08,66.25Z"/><path class="cls-6" d="M61,66.25a6.92,6.92,0,1,1,6.92,6.92A6.92,6.92,0,0,1,61,66.25Z"/><path class="cls-7" d="M52.77,71s-1.26,5.94-8.4,6c-8.23.07-8.69-6.13-8.69-6.13s1.44-.06,8.08,0Z"/><path class="cls-8" d="M44.37,77a10.94,10.94,0,0,1-4.66-.86A7.63,7.63,0,0,1,44.82,74a7.75,7.75,0,0,1,4.88,1.41A9.1,9.1,0,0,1,44.37,77Z"/><path class="cls-6" d="M42.36,62.55c-2.52-.08-4.79,1.52-4.78,2.26,0,1.75,9,2.11,8.86,0C46.39,63.64,44.52,62.63,42.36,62.55Z"/><path class="cls-9" d="M37.35,65.29c1.59-1.19,2.74-2.37,4.89-2.38,2,0,3,1.06,4.13,2.54.19.25.67.26.62-.14-.55-4.47-8.57-4.05-9.73-.15,0,0,0,.18.09.13Z"/><path class="cls-10" d="M60.61,43.09c-3.32,0-8.22,2-9.64,6.78-1.72,5.82,1.85,11.47,9.64,11.19C69,60.77,71.94,55.8,71,51.18,70.08,46.24,66.45,43.11,60.61,43.09Z"/><path class="cls-2" d="M50.84,50.89a10.47,10.47,0,0,1,11.68-6.63,9.66,9.66,0,0,1,5.3,3c1.42,1.7,1.63,3.91,3,5.61.21.27.77.43,1,0,1.25-2.44-.7-5.62-2.44-7.37a12.3,12.3,0,0,0-7.08-3.36,12.1,12.1,0,0,0-7.7,1.7c-2.67,1.7-3.44,3.92-3.91,6.94,0,.17.15.28.22.08Z"/><path class="cls-11" d="M51.54,53.57a7.51,7.51,0,1,1,7.5,7.5A7.5,7.5,0,0,1,51.54,53.57Z"/><path class="cls-10" d="M53.08,52.88a2.4,2.4,0,1,1,2.4,2.4A2.41,2.41,0,0,1,53.08,52.88Z"/><path class="cls-10" d="M27.51,43.09c3.33,0,8.23,2,9.65,6.78,1.72,5.82-1.85,11.47-9.65,11.19-8.36-.29-11.32-5.26-10.42-9.88C18.05,46.24,21.68,43.11,27.51,43.09Z"/><path class="cls-2" d="M37.5,50.75c-.5-3.12-1.78-5.56-4.62-7.19a11.59,11.59,0,0,0-8.89-1A11.88,11.88,0,0,0,18.43,46c-1.43,1.65-3.39,4.62-2,6.74.22.34.79.65,1.07.2.91-1.42,1.13-3.1,2-4.54a8.71,8.71,0,0,1,4.08-3.43,10.17,10.17,0,0,1,13.67,6c.08.22.25,0,.22-.16Z"/><path class="cls-11" d="M36.59,53.57a7.51,7.51,0,1,0-7.5,7.5A7.5,7.5,0,0,0,36.59,53.57Z"/><path class="cls-10" d="M27.81,52.88a2.4,2.4,0,1,0-2.4,2.4A2.4,2.4,0,0,0,27.81,52.88Z"/><path class="cls-2" d="M67.47,39.57a.88.88,0,0,0,0-.48A4.49,4.49,0,0,0,66.3,37a10.84,10.84,0,0,0-2.72-2.09,11.93,11.93,0,0,0-6.4-1.51,2.82,2.82,0,0,0-1.22.27A1.64,1.64,0,0,0,55.11,35c-.08,1,.73,1.47,1.61,1.6l2,.31q.73.11,1.47.24a15.33,15.33,0,0,1,4.62,1.76,6.29,6.29,0,0,0,1.85.88C66.9,39.82,67.36,39.87,67.47,39.57Z"/><path class="cls-2" d="M19.09,38.84a.91.91,0,0,1,0-.49,4.52,4.52,0,0,1,1.38-2,10.64,10.64,0,0,1,2.87-1.86,11.84,11.84,0,0,1,6.5-1,2.71,2.71,0,0,1,1.19.36,1.65,1.65,0,0,1,.75,1.37c0,1-.84,1.41-1.73,1.48l-2,.15c-.5,0-1,.07-1.48.13a15.21,15.21,0,0,0-4.75,1.4,6.34,6.34,0,0,1-1.91.73C19.64,39.13,19.18,39.14,19.09,38.84Z"/><path class="cls-1" d="M77.06,46.53C78.17,43,83,38,88.66,40.18s6.92,10.6,3.79,16.88-11.7,8.57-14.88,4Z"/><path class="cls-9" d="M76.74,51c-.07.21.22.66.47.5,1.06-.7,1.81-1.71,2.92-2.34A6.32,6.32,0,0,1,84,48.38a3.7,3.7,0,0,1,1,2.84,5.81,5.81,0,0,1-1.39,3.25,9.51,9.51,0,0,1-2.33,1.31c-.06,0-.12.21,0,.24,3.62.88,6-4.15,4.93-7.06,2,.86,3.73,2.56,3.62,4.95,0,.12.11.09.14,0C93,46.43,79.09,43.79,76.74,51Z"/><path class="cls-2" d="M75.93,40.18s-6.84-5.69-10.81-17.5l-1.45.61a55.79,55.79,0,0,1-42.09.32h0c-1.84,2.2-9.16,5-11.18,28.47,0,0-5.19-20.24,4.16-33.58S40.43,2.91,59,6.25C71.54,8.5,85.13,18.34,84.42,39.81c-1.29,9.31-6.12,14.6-7.14,12.85s-.85-10-1.35-12.48l8.49-.37"/><path class="cls-2" d="M87.18,18.22c-1.4-2.48-6.93,0-7.92,1.69-.15.27-.4.79-.23,1.09.56,1,2.32-.79,2.68-1,1.22-.76,3.88-2,5.37-1.55C87.2,18.48,87.22,18.31,87.18,18.22Z"/></g></g></svg>