<svg xmlns="http://www.w3.org/2000/svg" viewBox="0 0 101.25 182.58"><defs><style>.cls-1{fill:#bdd5db;}.cls-2{fill:#fac7ad;}.cls-3{fill:#ce5641;}.cls-4{fill:#f29283;}.cls-5{fill:#ed9b28;}.cls-6{fill:#0b2231;}.cls-7{fill:#f4a29b;}.cls-8{fill:#9f5248;}.cls-9{fill:#fff;}.cls-10{fill:#1a323a;}.cls-11{fill:#a13817;}.cls-12{fill:#f8fafa;}</style></defs><g id="Camada_2" data-name="Camada 2"><g id="Camada_1-2" data-name="Camada 1"><path class="cls-1" d="M0,176.17c0-3.54,22.67-6.41,50.62-6.41s50.63,2.87,50.63,6.41-22.67,6.41-50.63,6.41S0,179.71,0,176.17Z"/><path class="cls-2" d="M69.2,107c-4-13-8.88-16.22-9.25-20.57-.34-4.07-.43-8.61-.43-8.61H41.43s-.09,4.54-.43,8.61c-.37,4.35-5.26,7.52-9.25,20.57a171.78,171.78,0,0,0-5.93,31.36s9.62,3.2,24.66,3.2,24.65-3.2,24.65-3.2A170.8,170.8,0,0,0,69.2,107Z"/><path class="cls-3" d="M13.08,46.39s-7.83-1-8-16.38C4.86,10,32.51-11.08,63.36,9.09c17-3.79,28.84,9.2,27.86,27-1.12,20.53-.77,39.13-16.09,43.74S49,81.56,49,81.56Z"/><path class="cls-3" d="M57.56.43c1.87.21,3.77,2.79,4.51,4.26A6.61,6.61,0,0,1,62.51,9a2.9,2.9,0,0,0,0,1.6c.09.35.64.28.81.06,2-2.54.47-6.47-1.52-8.49-1-1-2.81-2.63-4.35-2.06-.16.05,0,.29.12.31Z"/><path class="cls-3" d="M69.41,4.69C67.17,2.92,63,7.28,62.74,9.26c0,.31-.08.88.19,1.1.91.73,1.85-1.62,2.1-2,.84-1.16,2.82-3.35,4.37-3.47C69.54,4.92,69.49,4.75,69.41,4.69Z"/><path class="cls-2" d="M40.56,86.77c-2.89-1.26-7.89.4-17,10.58q-3.93,4.41-7.69,9-2.81,3.4-5.5,6.89a15.13,15.13,0,0,1-2.11,2.48A8,8,0,0,1,5,117.08a4.67,4.67,0,0,0-2.18.88,1.06,1.06,0,0,0,.44,1.74,9.11,9.11,0,0,0,2.56.17.47.47,0,0,1,.36.16c.13.17,0,.42-.09.54-.55.81-.89,1.22-1.22,1.7-.53.77-2.06,2.46-1.39,3.47a1.2,1.2,0,0,0,1.32.37A7.11,7.11,0,0,0,6.36,125c.24-.22.47-.44.69-.67s.43-.53.73-.49.25.34.21.52a2.45,2.45,0,0,1-.25.6,18.66,18.66,0,0,0-1.15,2.16,4.2,4.2,0,0,0-.31,1.14,1.05,1.05,0,0,0,.24.86.89.89,0,0,0,.6.24,2,2,0,0,0,1.38-.49,7.71,7.71,0,0,0,1.25-1.36c.4-.51.79-1,1.21-1.52a.51.51,0,0,1,.33-.23.36.36,0,0,1,.33.26,1,1,0,0,1,0,.45,6.68,6.68,0,0,1-.41,1.08,10.78,10.78,0,0,0-.4,1.17,2,2,0,0,0-.07,1.31,1.2,1.2,0,0,0,1.88.42c.66-.49,2.1-3.28,2.34-3.71A73.77,73.77,0,0,1,20,119.28c2.77-3.88,9.23-11.55,11.75-13.78Z"/><path class="cls-2" d="M60.39,86.77c2.89-1.26,7.89.4,17,10.58q3.93,4.41,7.69,9,2.81,3.4,5.5,6.89a15.63,15.63,0,0,0,2.11,2.48,8,8,0,0,0,3.3,1.41,4.67,4.67,0,0,1,2.18.88,1.06,1.06,0,0,1-.43,1.74,9.2,9.2,0,0,1-2.57.17.48.48,0,0,0-.36.16c-.13.17,0,.42.09.54.55.81.89,1.22,1.22,1.7.53.77,2.06,2.46,1.39,3.47a1.2,1.2,0,0,1-1.32.37A7.11,7.11,0,0,1,94.59,125c-.24-.22-.47-.44-.69-.67s-.43-.53-.73-.49-.25.34-.21.52a2.45,2.45,0,0,0,.25.6,17.24,17.24,0,0,1,1.15,2.16,4.2,4.2,0,0,1,.31,1.14,1.05,1.05,0,0,1-.24.86.87.87,0,0,1-.6.24,2,2,0,0,1-1.38-.49,7.71,7.71,0,0,1-1.25-1.36c-.4-.51-.79-1-1.21-1.52a.51.51,0,0,0-.33-.23.34.34,0,0,0-.32.26.86.86,0,0,0,0,.45,6.68,6.68,0,0,0,.41,1.08,10.78,10.78,0,0,1,.4,1.17,2,2,0,0,1,.07,1.31,1.19,1.19,0,0,1-1.87.42c-.67-.49-2.11-3.28-2.35-3.71A73.83,73.83,0,0,0,81.29,119,83.21,83.21,0,0,0,69.2,105.5Z"/><path class="cls-3" d="M84.1,82.05c-.73,3.4-2.51,8.07-5.41,9.85S68.52,85.41,71.2,79.31A9.39,9.39,0,0,1,77.85,74C79.61,73.78,85.05,77.64,84.1,82.05Z"/><path class="cls-3" d="M84.45,94.52c-.73,3.4-2.51,8.07-5.41,9.85s-10.17-6.49-7.49-12.59a9.33,9.33,0,0,1,6.65-5.29C80,86.25,85.4,90.11,84.45,94.52Z"/><path class="cls-4" d="M59.58,77.8H41.43s-.08,3.67-.34,7.37c1.86.1,3.7.14,5.49.14a32.39,32.39,0,0,0,13.1-3.1C59.52,78.87,59.58,77.8,59.58,77.8Z"/><path class="cls-2" d="M25.82,138.34l2.6,31.1a44.74,44.74,0,0,0-7.26,2.83c-2.46,1.42-1.85,3.15,9.09,3.15h15.9l3.36-37.08Z"/><path class="cls-2" d="M75.2,138.34l-2.6,31.1a44.76,44.76,0,0,1,7.25,2.83c2.46,1.42,1.86,3.15-9.08,3.15H54.86l-3.35-37.08Z"/><path class="cls-4" d="M49.29,140.79H26l1.14,13.57c4.52,1.25,11.13,2.32,20.67,2.49Z"/><path class="cls-4" d="M51.73,140.79l1.45,16.06c9.56-.17,16.17-1.26,20.68-2.51L75,140.79Z"/><path class="cls-5" d="M60.38,88.26l-9.9,4.24-9.91-4.24S22,116.06,18.11,147.52c0,0,4.9,6.91,32.37,6.91s32.36-6.91,32.36-6.91C79,116.06,60.38,88.26,60.38,88.26Z"/><path class="cls-6" d="M54.86,175.42H70.77c10.94,0,11.54-1.73,9.08-3.15a44.76,44.76,0,0,0-7.25-2.83H54.32Z"/><path class="cls-6" d="M28.42,169.44a44.74,44.74,0,0,0-7.26,2.83c-2.46,1.42-1.85,3.15,9.09,3.15h15.9l.55-6Z"/><path class="cls-2" d="M46.58,79.83c9.63,0,20.87-1.14,27.75-7.57S81.9,49.32,77.78,33s-20-20-31.2-20S19.5,16.74,15.37,33s-3.44,32.81,3.45,39.23S36.94,79.83,46.58,79.83Z"/><path class="cls-7" d="M14.24,62.16a6.92,6.92,0,1,1,6.92,6.93A6.92,6.92,0,0,1,14.24,62.16Z"/><path class="cls-7" d="M63.52,62.16a6.92,6.92,0,1,1,6.92,6.93A6.92,6.92,0,0,1,63.52,62.16Z"/><path class="cls-3" d="M48.14,13.1s5.64,16,31.15,30.33c0,0,5.23-14.41-4.58-23.45S48.14,13.1,48.14,13.1Z"/><path class="cls-3" d="M48.14,13.1S43.06,32.87,11.43,42.66c0,0,.32-13.64,10.14-22.68S48.14,13.1,48.14,13.1Z"/><path class="cls-7" d="M44.92,58.47c-2.52-.09-4.79,1.51-4.78,2.26,0,1.74,9,2.1,8.86,0C49,59.55,47.08,58.54,44.92,58.47Z"/><path class="cls-8" d="M39.91,61.2c1.59-1.19,2.74-2.37,4.89-2.38,2,0,3,1.06,4.13,2.54.19.25.67.26.62-.13-.55-4.48-8.57-4.06-9.73-.16,0,0,0,.18.09.13Z"/><path class="cls-8" d="M37.55,68.82c5.8,3.44,15.39,2,19.9-2.94.48-.53-.56-1-1-.57-4.54,5-13,5.43-18.84,3-.32-.13-.27.35-.07.47Z"/><path class="cls-8" d="M56.38,63.64c-.56.58,0,1.61.48,2a2.41,2.41,0,0,0,2.2.71c.26-.09.53-.4.25-.64s-.75,0-1-.09c-1-.21-1.34-1.07-1.67-1.95a.14.14,0,0,0-.23-.07Z"/><path class="cls-9" d="M63.18,39c-3.33,0-8.23,2-9.65,6.78C51.81,51.6,55.38,57.25,63.18,57c8.36-.29,11.32-5.26,10.42-9.88C72.64,42.15,69,39,63.18,39Z"/><path class="cls-6" d="M53.4,46.8a10.47,10.47,0,0,1,11.68-6.63,9.66,9.66,0,0,1,5.3,3c1.43,1.7,1.63,3.91,3,5.61.21.27.77.43,1,.05,1.25-2.44-.7-5.62-2.44-7.37a12.3,12.3,0,0,0-7.08-3.36,12.1,12.1,0,0,0-7.7,1.7c-2.67,1.7-3.44,3.92-3.91,6.94,0,.18.15.28.22.08Z"/><path class="cls-10" d="M54.1,49.48A7.51,7.51,0,1,1,61.6,57,7.5,7.5,0,0,1,54.1,49.48Z"/><path class="cls-9" d="M55.25,48.79a2.4,2.4,0,1,1,2.4,2.4A2.4,2.4,0,0,1,55.25,48.79Z"/><path class="cls-9" d="M28.67,39c3.33,0,8.23,2,9.65,6.78C40,51.6,36.47,57.25,28.67,57c-8.36-.29-11.32-5.26-10.42-9.88C19.21,42.15,22.84,39,28.67,39Z"/><path class="cls-6" d="M38.66,46.67c-.5-3.13-1.78-5.57-4.62-7.2a11.59,11.59,0,0,0-8.89-1,12,12,0,0,0-5.56,3.39c-1.42,1.65-3.39,4.62-2,6.74.22.34.79.65,1.07.2.91-1.42,1.13-3.1,2-4.54a8.71,8.71,0,0,1,4.08-3.43,10.17,10.17,0,0,1,13.67,6c.08.23.25,0,.22-.15Z"/><path class="cls-10" d="M37.75,49.48a7.51,7.51,0,1,0-7.5,7.5A7.5,7.5,0,0,0,37.75,49.48Z"/><path class="cls-9" d="M28.84,48.79a2.4,2.4,0,1,0-2.4,2.4A2.4,2.4,0,0,0,28.84,48.79Z"/><path class="cls-11" d="M70,31.25a.8.8,0,0,0,0-.48,4.49,4.49,0,0,0-1.22-2.09,10.58,10.58,0,0,0-2.72-2.08,11.85,11.85,0,0,0-6.4-1.52,2.82,2.82,0,0,0-1.22.27,1.66,1.66,0,0,0-.85,1.31c-.08,1,.73,1.47,1.61,1.61l2,.3c.49.07,1,.15,1.47.25a14.82,14.82,0,0,1,4.62,1.76,6.52,6.52,0,0,0,1.85.87C69.46,31.5,69.92,31.55,70,31.25Z"/><path class="cls-11" d="M21.65,30.52a.91.91,0,0,1,0-.49A4.57,4.57,0,0,1,23,28a10.88,10.88,0,0,1,2.87-1.86,11.84,11.84,0,0,1,6.5-1,2.94,2.94,0,0,1,1.2.36,1.68,1.68,0,0,1,.74,1.38c0,1-.84,1.41-1.73,1.47l-2,.15c-.5,0-1,.07-1.48.13a15.21,15.21,0,0,0-4.75,1.4,6.34,6.34,0,0,1-1.91.73C22.2,30.81,21.74,30.83,21.65,30.52Z"/><path class="cls-2" d="M79.62,42.44c1.11-3.53,6-8.51,11.6-6.35S98.14,46.69,95,53s-11.7,8.57-14.88,4Z"/><path class="cls-8" d="M79.3,46.86c-.07.21.22.66.47.5,1.06-.7,1.81-1.71,2.92-2.34a6.32,6.32,0,0,1,3.85-.73,3.7,3.7,0,0,1,1,2.84,5.81,5.81,0,0,1-1.39,3.25,9.51,9.51,0,0,1-2.33,1.31c-.05,0-.12.21,0,.24,3.62.88,6-4.15,4.93-7.06,2,.86,3.73,2.57,3.62,5,0,.12.11.09.14,0C95.52,42.34,81.65,39.7,79.3,46.86Z"/><path class="cls-3" d="M87,35.72C85.69,45,79.52,50.15,78.49,48.4s.5-9.83,0-12.31L87,35.72"/><path class="cls-12" d="M41,86.41s-4.9,1.41-4.58,5.07,7.56,7.2,14.06,1Z"/><path class="cls-12" d="M60,86.41s4.9,1.41,4.58,5.07-7.56,7.2-14.05,1Z"/></g></g></svg>