<svg xmlns="http://www.w3.org/2000/svg" viewBox="0 0 277.08 118.32"><defs><style>.cls-1{fill:#0a8b8d;}.cls-2{fill:#fff;}</style></defs><g id="Camada_2" data-name="Camada 2"><g id="Camada_1-2" data-name="Camada 1"><path class="cls-1" d="M272.12,15.61C265.35,1.1,251.5.58,238,.49,197.57.21,157.07,0,116.61.34c-20.39.15-40.89.79-61.26,0C37.72-.33,11.4-2,2.62,18.79-1.62,28.84-.94,53.68,6.28,62.36c6.78,8.16,17.38,9.55,26.84,9.82l5.23.15c-2.71,28.73,20.5,46,20.5,46-2-20.35,5.64-34.89,13.34-45.06,31.55.8,60.26,1.2,92,.11,24.13-.83,49.33-1.57,73.83-1.55,12.35,0,26.95-1.54,34.45-14a2.75,2.75,0,0,0,.17-.29C279.5,45.73,277.69,27.56,272.12,15.61Z"/><path class="cls-2" d="M266.77,17.64C260.22,5,246.82,4.51,233.79,4.43c-39.13-.25-78.3-.41-117.42-.14-19.72.14-39.55.69-59.25,0-17-.59-42.51-2.07-51,16.12C2,29.2,2.68,50.91,9.66,58.49c6.55,7.13,16.81,8.35,26,8.58l7.58.2c-2.62,25.1,11.94,42.93,11.94,42.93-2-17.79,8-33.36,15.5-42.25,30.52.71,61.05,1.12,91.71.16,23.34-.73,47.71-1.37,71.41-1.36,11.94,0,26.06-1.33,33.31-12.21.06-.09.12-.17.17-.26C273.9,44,272.16,28.08,266.77,17.64Z"/></g></g></svg>