<svg xmlns="http://www.w3.org/2000/svg" viewBox="0 0 71.25 74.68"><defs><style>.cls-1{fill:#ee9a97;}.cls-2{fill:#f8c1ba;}.cls-3{fill:#8f5051;}.cls-4{fill:#111;}.cls-5{fill:#ed6a54;}.cls-6{fill:#eb593d;}</style></defs><title>Face</title><g id="Camada_2" data-name="Camada 2"><g id="Camada_1-2" data-name="Camada 1"><path class="cls-1" d="M47.62,55.62l-20.74.68s1.87,6.32,2.56,9.19a62.68,62.68,0,0,1,17.1-4.73A22.82,22.82,0,0,1,47.62,55.62Z"/><path class="cls-2" d="M29.44,65.49a5.5,5.5,0,0,1,.24,1.37h-.06s-1.46-.26-1.46.76,4.37,7.05,8.36,7.05c8.21,0,10.81-6,12-7.84s-1.92-1.34-2.36-1.27c.12-1.79.24-3.37.4-4.81A62.68,62.68,0,0,0,29.44,65.49Z"/><path class="cls-2" d="M.06,38.55c.51,3.38,4,6.68,10.89,4.17V37.93A10.52,10.52,0,0,0,.06,38.55Z"/><path class="cls-1" d="M2.07,33.74a4.65,4.65,0,0,0-2,4.81A10.52,10.52,0,0,1,11,37.93v-3.3S6.51,31.18,2.07,33.74Z"/><path class="cls-3" d="M3.39,37.54c1.82,0,4.22-.87,5.5.94.81,1.15.7,2.73.74,4.06a.2.2,0,0,0,.4,0c0-1.52,0-3.43-1.14-4.58-1.42-1.43-3.79-1-5.52-.54-.07,0-.06.12,0,.12Z"/><path class="cls-3" d="M6.46,39.33a1.76,1.76,0,0,1,2.15.17,12.86,12.86,0,0,1,1.07,1.39c.17.2.42,0,.33-.25-.67-1.49-2.21-2.75-3.73-1.55-.15.12,0,.3.18.24Z"/><path class="cls-2" d="M71.19,38.56c-.51,3.38-4,6.68-10.88,4.16V37.94A10.5,10.5,0,0,1,71.19,38.56Z"/><path class="cls-1" d="M69.19,33.75a4.64,4.64,0,0,1,2,4.81,10.5,10.5,0,0,0-10.88-.62V34.63S64.74,31.18,69.19,33.75Z"/><path class="cls-3" d="M67.88,37.42c-1.73-.43-4.1-.88-5.51.54-1.15,1.16-1.19,3.07-1.15,4.59a.2.2,0,0,0,.4,0c0-1.35-.06-2.9.74-4.06,1.26-1.83,3.7-.93,5.51-.94a.07.07,0,0,0,0-.13Z"/><path class="cls-3" d="M65,39.1c-1.52-1.2-3.06,0-3.74,1.54-.09.2.17.46.33.26a11.23,11.23,0,0,1,1.08-1.39,1.74,1.74,0,0,1,2.14-.18c.14.07.33-.12.19-.23Z"/><path class="cls-2" d="M10.24,32.92s-.27,9.3,2,13.91,9.73,9.73,19.73,10.65,23.28-2.36,26.3-9.59,4.21-12.24,3.29-19.6-1.31-10.66-8.15-13.95S9.32-5.58,10.24,32.92Z"/><path class="cls-3" d="M34.62,33a23,23,0,0,0-.5,2.5,2.7,2.7,0,0,0,0,1.71,1.07,1.07,0,0,0,1,.64,1.57,1.57,0,0,0,.6-.28c.1-.05.22-.2.33-.23.37-.3.54-.13.51.5.39.51.28.83-.33,1-.29.1-.16.56.12.45a1.62,1.62,0,0,0,1.18-1.55,1.07,1.07,0,0,0-1.11-1c-.4,0-.58.32-.92.46-1.37.56-1.1-1.09-1-1.75s.64-1.8.26-2.48a.09.09,0,0,0-.16,0Z"/><path class="cls-3" d="M32,40.73c-.36,1.66,2.63,2.28,3.71,2.32,1.92.07,4-.76,4.26-2.89,0-.32-.5-.39-.56-.08-.35,1.82-2,2.48-3.7,2.44a4,4,0,0,1-3.57-1.81.08.08,0,0,0-.14,0Z"/><path class="cls-3" d="M18.38,32.15a6.91,6.91,0,0,1,4.5-3c.24-.05.17-.4-.06-.42-1.73-.1-4.29,1.59-4.65,3.34a.12.12,0,0,0,.21.09Z"/><path class="cls-3" d="M47.71,28.48c1.69.42,3.35.67,4.63,2,.27.27.65-.13.41-.41a6,6,0,0,0-5-1.84.14.14,0,0,0,0,.27Z"/><path class="cls-1" d="M27.2,45.35A4.76,4.76,0,0,1,22.3,50a4.61,4.61,0,1,1,0-9.2A4.76,4.76,0,0,1,27.2,45.35Z"/><path class="cls-1" d="M54,45.35a4.91,4.91,0,1,1-4.9-4.6A4.76,4.76,0,0,1,54,45.35Z"/><path class="cls-3" d="M35,44.25a2.64,2.64,0,0,0,2.57-.11.17.17,0,0,0-.17-.29,3.6,3.6,0,0,1-2.29.16c-.14,0-.25.17-.11.24Z"/><path class="cls-4" d="M27.4,35.27a1.71,1.71,0,0,1-1.5,1.89,1.89,1.89,0,0,1-.09-3.71A1.71,1.71,0,0,1,27.4,35.27Z"/><path class="cls-4" d="M46.61,34.69A1.57,1.57,0,1,1,45,32.88,1.73,1.73,0,0,1,46.61,34.69Z"/><path class="cls-3" d="M20.27,42.25a.51.51,0,0,1-.48.53.5.5,0,0,1-.47-.53.51.51,0,0,1,.47-.54A.51.51,0,0,1,20.27,42.25Z"/><path class="cls-3" d="M23.55,45.35a.48.48,0,1,1-.47-.54A.51.51,0,0,1,23.55,45.35Z"/><path class="cls-3" d="M19.55,47.44a.48.48,0,1,1-.48-.53A.51.51,0,0,1,19.55,47.44Z"/><path class="cls-3" d="M25.9,41.47a.51.51,0,0,1-.47.54.54.54,0,0,1,0-1.08A.51.51,0,0,1,25.9,41.47Z"/><path class="cls-3" d="M28.71,46.43a.5.5,0,0,1-.47.53.54.54,0,1,1,.47-.53Z"/><path class="cls-3" d="M44.68,42.25a.51.51,0,0,1-.48.54.51.51,0,0,1-.47-.54.51.51,0,0,1,.47-.54A.52.52,0,0,1,44.68,42.25Z"/><path class="cls-3" d="M46.61,47.45a.5.5,0,0,1-.47.53.54.54,0,1,1,.47-.53Z"/><path class="cls-3" d="M50.62,42.55a.48.48,0,1,1-.47-.54A.5.5,0,0,1,50.62,42.55Z"/><path class="cls-3" d="M53.49,46.43a.47.47,0,1,1-.47-.54A.5.5,0,0,1,53.49,46.43Z"/><path class="cls-3" d="M49.57,45.89a.47.47,0,1,1-.47-.54A.51.51,0,0,1,49.57,45.89Z"/><path class="cls-5" d="M28.06,5.5A56.69,56.69,0,0,0,14.53,28.63l.2.82A54.43,54.43,0,0,0,22.82,27a17.84,17.84,0,0,0,1.74-.78c2-7.69,6.55-14.61,11.86-21.07C33.82,5.4,31,5.5,28.06,5.5Z"/><path class="cls-6" d="M59.38,8.62c-2.19-2-7.62-2.41-7.62-2.41S57.4,1.53,54.66.65s-5.42,3.43-5.42,3.43S45.87-1.1,43.83.21s1,3.16,1,3.16a31.18,31.18,0,0,1-8.42,1.79c-5.31,6.46-9.91,13.38-11.86,21.07a39.18,39.18,0,0,0,7.54-5.32,35.9,35.9,0,0,0-2.68,3.93c7.13,0,15.87-7.87,15.87-7.87s3.94,9.09,4.86,8.83.61-3.47.61-3.47l.11-.32,0-.09,0,.09c-.11.32,3.29,7.66,3.72,7.22A5.85,5.85,0,0,0,55.25,27c2.63,5.67,6.59,6.85,6.59,6.85l1.61-2.62C68.54,22.18,65.82,14.45,59.38,8.62Z"/><path class="cls-6" d="M24.11,5.47C16,5.32,9,8.7,5.56,18.77a13.12,13.12,0,0,0,4.66,15.38c2.16,0,3.53-8.72,3.53-8.72l.78,3.2A56.69,56.69,0,0,1,28.06,5.5Z"/></g></g></svg>