<svg id="Layer_1" data-name="Layer 1" xmlns="http://www.w3.org/2000/svg" viewBox="0 0 627.69 196.64"><defs><style>.cls-1{fill:#0f8b8d;}.cls-1,.cls-2{fill-rule:evenodd;}.cls-2{fill:#143642;}.cls-3{font-size:72px;fill:#ec9a29;font-family:Asap-Bold, Asap;font-weight:700;letter-spacing:0.01em;}</style></defs><path class="cls-1" d="M42.08,6.66V18.48c0,1,.34,1.19.82,1.33a1.44,1.44,0,0,0,1.46-.45A6.91,6.91,0,0,1,52,17c2.61.93,4.64,3.73,4.64,7.78s-2,6.85-4.65,7.78a6.89,6.89,0,0,1-7.65-2.4,1.45,1.45,0,0,0-1.46-.44c-.48.14-.82.37-.82,1.33V44.57h9.47a3.77,3.77,0,0,1,3.66,2.72A4.1,4.1,0,0,1,54,51.46a4.87,4.87,0,0,0-1.56,5.16c.55,1.67,2,3.08,5.15,3.08s4.61-1.42,5.16-3.09a4.84,4.84,0,0,0-1.55-5.14A4.12,4.12,0,0,1,60,47.28a3.78,3.78,0,0,1,3.66-2.72H74.25c-.07-2.38,1.35-3.85,1.36-7.52,0-7.66-4.06-13.71-8.17-18.42A34.74,34.74,0,0,0,50.56,7.89h0A33.31,33.31,0,0,0,42.08,6.66Z" transform="translate(-6.76 -6.66)"/><path class="cls-2" d="M39.61,6.72h-.46A34.53,34.53,0,0,0,11.53,24.64,37.52,37.52,0,0,0,6.8,44.56h11c.92,0,1.14-.35,1.28-.85a1.58,1.58,0,0,0-.44-1.52,7.49,7.49,0,0,1-2.3-7.94c.9-2.72,3.59-4.82,7.49-4.82s6.6,2.1,7.5,4.82a7.51,7.51,0,0,1-2.31,8,1.55,1.55,0,0,0-.43,1.51c.13.5.36.86,1.28.86h9.7V31a3.89,3.89,0,0,1,2.62-3.8,3.79,3.79,0,0,1,4,1.27,4.48,4.48,0,0,0,5,1.62c1.61-.58,3-2.13,3-5.35s-1.36-4.79-3-5.36a4.47,4.47,0,0,0-5,1.61,3.78,3.78,0,0,1-4,1.28,3.9,3.9,0,0,1-2.63-3.8Z" transform="translate(-6.76 -6.66)"/><path class="cls-1" d="M23.88,32c-3.11,0-4.61,1.42-5.16,3.09a4.85,4.85,0,0,0,1.55,5.15,4.1,4.1,0,0,1,1.23,4.18,3.79,3.79,0,0,1-3.66,2.72H7a35.51,35.51,0,0,0,10,21c5.56,5.65,4,11.34,2.89,18.71-.42,2.7.92,4.94,4.24,7.13A44.57,44.57,0,0,0,39.6,99.64V74.43c0-1-.34-1.19-.83-1.33a1.42,1.42,0,0,0-1.45.44A6.93,6.93,0,0,1,29.67,76C27.06,75,25,72.21,25,68.16s2-6.85,4.65-7.78a6.89,6.89,0,0,1,7.66,2.4,1.44,1.44,0,0,0,1.45.45c.48-.14.83-.37.83-1.33V47.12h-9.7a3.78,3.78,0,0,1-3.66-2.73,4.09,4.09,0,0,1,1.23-4.17A4.85,4.85,0,0,0,29,35.08C28.48,33.41,27,32,23.88,32Z" transform="translate(-6.76 -6.66)"/><path class="cls-2" d="M42.08,47.12V61.9a3.89,3.89,0,0,1-2.63,3.8,3.78,3.78,0,0,1-4-1.28,4.47,4.47,0,0,0-5-1.61c-1.61.57-3,2.13-3,5.35s1.37,4.78,3,5.35a4.45,4.45,0,0,0,5-1.61,3.77,3.77,0,0,1,4-1.27,3.9,3.9,0,0,1,2.63,3.8v25.63a36.53,36.53,0,0,0,9.42.16c2.91-.38,4.64-1.89,5.18-5.45.62-4.14,1.08-6.76,6-6.68,4.52.08,8.73.64,9.38-5.76a5.49,5.49,0,0,1,1.23-3.65c2-2.75,2.54-4.18.82-6,.9,0,3.48-1.35,2.37-3.34l-2.06-3.66c-.6-1.08.43-1.52,1-1.77l5.72-2.68A2.6,2.6,0,0,0,82,57.44c-2.7-3.43-5.42-6.23-7-10,0-.11-.06-.19-.09-.29H63.62c-.92,0-1.14.35-1.28.85a1.57,1.57,0,0,0,.43,1.51,7.51,7.51,0,0,1,2.31,7.95c-.9,2.71-3.59,4.82-7.49,4.82s-6.6-2.1-7.5-4.82A7.49,7.49,0,0,1,52.4,49.5,1.57,1.57,0,0,0,52.83,48c-.13-.5-.36-.86-1.28-.86Z" transform="translate(-6.76 -6.66)"/><text class="cls-3" transform="translate(79.81 92.98)">AutMe</text><text x="-6.76" y="-6.66"/></svg>