<svg xmlns="http://www.w3.org/2000/svg" viewBox="0 0 85.71 182.45"><defs><style>.cls-1{fill:#f4992c;}.cls-2{fill:#ed6a54;}.cls-3{fill:#f8c1ba;}.cls-4{fill:#ee9a97;}.cls-5{fill:#3a348b;}.cls-6{fill:#8f5051;}.cls-7{fill:#111;}.cls-8{fill:#582938;}.cls-9{fill:#663543;}.cls-10{fill:#0a8b8d;}.cls-11{fill:#635ca5;}.cls-12{fill:#fff;}.cls-13{fill:#ed9b28;}.cls-14{fill:#153643;}</style></defs><title>Menino</title><g id="Camada_2" data-name="Camada 2"><g id="Camada_1-2" data-name="Camada 1"><path class="cls-1" d="M31.35,61.47s-15,1.5-14.13,10.58.1,29.7,5,37.25c2,3.14,26.7.51,33.15-1.43s6.62-7.94,5.9-14.1S58.52,73,56.35,66.42C55,62.2,44.69,60,31.35,61.47Z"/><path class="cls-2" d="M33,61.39S18,62.89,18.87,72s.1,29.71,5,37.25c2,3.15,26.7.52,33.15-1.42s6.62-8,5.9-14.1S60.17,72.94,58,66.34C56.61,62.11,46.34,59.89,33,61.39Z"/><path class="cls-3" d="M49.66,162.21l.64,11.4c5.43,3.09,13.06.68,13.06.68.86-2.15,1.51-9.43,1.88-14.54A37.61,37.61,0,0,1,49.66,162.21Z"/><path class="cls-4" d="M49.21,154.17l.45,8a37.61,37.61,0,0,0,15.58-2.46c.22-3,.33-5.3.33-5.3Z"/><path class="cls-5" d="M72.57,179s.2,1.88-2.68,2.54A40.42,40.42,0,0,1,57,182.2c-4.54-.62-6.6-1.1-6.6-1.1a16,16,0,0,1-.31-2.1C50,177.74,72.57,179,72.57,179Z"/><path class="cls-5" d="M72.57,179c.3,1.38-3.49,2.23-8.22,2.47a15.84,15.84,0,0,1,3.14-5.95C69.79,176.35,72.25,177.56,72.57,179Z"/><path class="cls-2" d="M50.3,173.61a20.61,20.61,0,0,0,13.06.68,37.5,37.5,0,0,1,4.13,1.23,15.84,15.84,0,0,0-3.14,5.95c-4.8.24-10.57-.14-14-1.23A18.54,18.54,0,0,1,50.3,173.61Z"/><path class="cls-5" d="M64.2,175.08a4.44,4.44,0,0,0,2.75-1.4c.26-.37.06-.84-.41-.71a2.33,2.33,0,0,0-.84.66,8.76,8.76,0,0,0-1.23,1.73l-.46-.27c.37-.59.74-1.17,1.06-1.79.11-.22,1.12-2.76,0-2.18-.56.3-.53,1.65-.56,2.17a18,18,0,0,0,0,1.94c0,.4-.61.4-.62,0,0-1-.33-4.76,1.41-4.68,2.19.1-.46,4.13-.87,4.81a.27.27,0,0,1-.46-.27,6.87,6.87,0,0,1,2.17-2.49c.4-.23,1.17-.28,1.37.23.7,1.75-2.17,2.47-3.31,2.54-.17,0-.2-.25,0-.29Z"/><path class="cls-4" d="M40.65,154.17l-16.36.28s.2,3.89.56,8.28a34.6,34.6,0,0,0,15.56-4.23Z"/><path class="cls-3" d="M24.85,162.73c.38,4.63.95,9.8,1.65,11.56,0,0,7.63,2.41,13.06-.68l.85-15.11A34.6,34.6,0,0,1,24.85,162.73Z"/><path class="cls-5" d="M17.29,179s-.2,1.88,2.68,2.54a40.42,40.42,0,0,0,12.85.66c4.54-.62,6.6-1.1,6.6-1.1a14.17,14.17,0,0,0,.31-2.1C39.84,177.74,17.29,179,17.29,179Z"/><path class="cls-5" d="M17.29,179c-.3,1.38,3.49,2.23,8.23,2.47a16,16,0,0,0-3.15-5.95C20.07,176.35,17.61,177.56,17.29,179Z"/><path class="cls-2" d="M39.56,173.61a20.61,20.61,0,0,1-13.06.68,37.5,37.5,0,0,0-4.13,1.23,16,16,0,0,1,3.15,5.95c4.79.24,10.57-.14,14-1.23A18.54,18.54,0,0,0,39.56,173.61Z"/><path class="cls-5" d="M25.66,175.08a4.46,4.46,0,0,1-2.75-1.4c-.26-.37-.06-.84.41-.71a2.25,2.25,0,0,1,.84.66,8.76,8.76,0,0,1,1.23,1.73l.46-.27c-.36-.59-.74-1.17-1.06-1.79-.11-.22-1.12-2.76,0-2.18.56.3.53,1.65.56,2.17a18,18,0,0,1,0,1.94c0,.4.61.4.62,0,0-1,.33-4.76-1.41-4.68-2.19.1.46,4.13.87,4.81a.27.27,0,0,0,.46-.27,6.78,6.78,0,0,0-2.17-2.49c-.39-.23-1.17-.28-1.37.23-.7,1.75,2.17,2.47,3.31,2.54.17,0,.2-.25,0-.29Z"/><path class="cls-3" d="M81.43,31.09c0,.07,0,.12,0,.12S81.42,31.16,81.43,31.09Z"/><path class="cls-4" d="M62.56,63.86l3.29,18c4.07-3.51,9.74-12.49,13.91-22.16A25.94,25.94,0,0,1,62.56,63.86Z"/><path class="cls-3" d="M83.78,25.1c-1.33-.1-2.22,5.16-2.35,6,0,.07,0,.12,0,.12s0-.05,0-.12c.14-.88,1-6.74-.53-7s-2.79,6.29-2.79,6.29.93-6.19-.72-6.29-2,7.14-2,7.14S75,28,73.25,29.29,75,36.54,75,36.54s0,1-1.62,6.71S62.31,62.47,62.31,62.47l.25,1.39a25.94,25.94,0,0,0,17.2-4.17,82.68,82.68,0,0,0,4-11.4C87.29,35.1,85.23,25.2,83.78,25.1Z"/><path class="cls-3" d="M.07,40.71c.53,3.53,4.21,7,11.37,4.35v-5A11,11,0,0,0,.07,40.71Z"/><path class="cls-4" d="M2.16,35.68a4.85,4.85,0,0,0-2.09,5,11,11,0,0,1,11.37-.65V36.61S6.8,33,2.16,35.68Z"/><path class="cls-6" d="M3.54,39.65c1.9,0,4.42-.91,5.75,1,.85,1.19.73,2.85.78,4.24a.21.21,0,0,0,.41,0c0-1.59,0-3.59-1.19-4.8-1.48-1.48-4-1-5.77-.56a.07.07,0,0,0,0,.13Z"/><path class="cls-6" d="M6.75,41.52A1.83,1.83,0,0,1,9,41.7a13.23,13.23,0,0,1,1.13,1.46c.17.2.44-.06.34-.27-.7-1.56-2.31-2.87-3.9-1.62-.15.12,0,.32.19.25Z"/><path class="cls-3" d="M74.39,40.71c-.53,3.53-4.21,7-11.37,4.35v-5A11,11,0,0,1,74.39,40.71Z"/><path class="cls-4" d="M72.3,35.68a4.85,4.85,0,0,1,2.09,5A11,11,0,0,0,63,40.06V36.61S67.66,33,72.3,35.68Z"/><path class="cls-6" d="M70.94,39.52c-1.81-.45-4.29-.92-5.77.56-1.2,1.21-1.23,3.21-1.19,4.8a.21.21,0,0,0,.41,0c0-1.41-.06-3,.77-4.24,1.32-1.91,3.87-1,5.76-1a.07.07,0,0,0,0-.13Z"/><path class="cls-6" d="M67.9,41.27c-1.59-1.25-3.2.06-3.91,1.62-.09.21.18.48.35.27a14.48,14.48,0,0,1,1.12-1.46,1.85,1.85,0,0,1,2.25-.18c.15.07.34-.13.19-.25Z"/><path class="cls-3" d="M32.32,66.75a5.19,5.19,0,0,1-.48,1.3S36,72.86,45,69a35.74,35.74,0,0,1,.07-4.7A50.3,50.3,0,0,0,32.32,66.75Z"/><path class="cls-4" d="M46.08,59.31,31.84,60.49a14.27,14.27,0,0,1,.48,6.26,50.3,50.3,0,0,1,12.79-2.44A20.13,20.13,0,0,1,46.08,59.31Z"/><path class="cls-3" d="M10.7,34.83s-.28,9.72,2.06,14.53S22.93,59.53,33.37,60.49,57.7,58,60.86,50.46,65.26,37.67,64.3,30s-1.37-11.14-8.52-14.57S9.73-5.4,10.7,34.83Z"/><path class="cls-7" d="M26,38.4a1.72,1.72,0,0,1-1.54,1.85,1.89,1.89,0,0,1,0-3.71A1.72,1.72,0,0,1,26,38.4Z"/><path class="cls-7" d="M51.31,38.4a1.57,1.57,0,1,1-1.55-1.86A1.72,1.72,0,0,1,51.31,38.4Z"/><path class="cls-6" d="M36.17,34.87c-.25.8-.35,1.76-.52,2.6a2.91,2.91,0,0,0,0,1.8,1.11,1.11,0,0,0,1,.66,1.6,1.6,0,0,0,.62-.29c.11-.06.23-.21.35-.24.39-.31.56-.14.53.52.41.53.3.87-.35,1-.29.11-.16.59.14.48A1.7,1.7,0,0,0,39.2,39.8a1.12,1.12,0,0,0-1.15-1c-.42,0-.61.34-1,.48-1.44.59-1.15-1.14-1-1.83s.66-1.88.26-2.59a.09.09,0,0,0-.17,0Z"/><path class="cls-6" d="M35.25,45.8c-.44,1.31,1.49,2.24,2.5,2.28a2.51,2.51,0,0,0,2.72-2.47c0-.39-.54-.36-.59,0a2,2,0,0,1-2.21,1.91A2.51,2.51,0,0,1,36.19,47c-.4-.33-.49-.79-.78-1.18a.09.09,0,0,0-.16,0Z"/><path class="cls-6" d="M18.29,31.27A7.18,7.18,0,0,1,23,28.13a.22.22,0,0,0-.06-.43c-1.81-.12-4.49,1.66-4.86,3.48a.12.12,0,0,0,.22.09Z"/><path class="cls-6" d="M48.94,27.44c1.77.43,3.5.69,4.84,2.06.27.29.67-.13.43-.42a6.19,6.19,0,0,0-5.27-1.92.14.14,0,0,0,0,.28Z"/><path class="cls-4" d="M28.43,47.81a5,5,0,0,1-5.12,4.81,4.82,4.82,0,1,1,0-9.62A5,5,0,0,1,28.43,47.81Z"/><path class="cls-4" d="M56.43,47.81A5.13,5.13,0,1,1,51.31,43,5,5,0,0,1,56.43,47.81Z"/><path class="cls-8" d="M64.71,15.82c-1.65,4.12-5.77,2.47-8.25.82-.82-1.64-3.29-2.47-3.29-4.94,0,4.12-2.48,9.89-6.6,8.24C44.1,18.29,42.45,15,40,12.52c-2.47,15.67-19,4.95-26.39.83C10.84,20.21,10.93,28.21,7.25,35a12.94,12.94,0,0,1,4.19,1.63c5.55-1.1,4.62-20.1,4.62-20.1s12.09,8,18.28,8.52,7.14-5.5,7.14-5.5,2.48,4.12,7,4.54,4.26-4.54,4.26-4.54c5.5,7,8.11,2.61,8.11,2.61s0,12.79,4.35,13.26,4.4-3.92,4.4-3.92a2,2,0,0,0,1.26,0C66.9,28.48,65.46,21.82,64.71,15.82Z"/><path class="cls-9" d="M73.1,29.57c3.78-6.67-1.24-8.25-1.24-8.25.41-7.84-6.46-7.56-6.46-7.56-2.38-11.27-18.14-8-18.14-8S49.32.43,38.32,0,15,8.53,15,8.53s1.92-6.87-1.52-7.15S12,9.49,12,9.49,7.81,3.18,5.75,7s4.52,7.56,4.52,7.56c-2.66,1.24-2-.72-4.55,1.24C1.16,20.08,4.6,26.4,4.6,26.4c-4.17,4.13,0,8.4,0,8.4A9.56,9.56,0,0,1,7.25,35c3.68-6.77,3.59-14.77,6.33-21.63C21,17.47,37.5,28.19,40,12.52c2.48,2.48,4.13,5.77,6.6,7.42,4.12,1.65,6.6-4.12,6.6-8.24,0,2.47,2.47,3.3,3.29,4.94,2.48,1.65,6.6,3.3,8.25-.82.75,6,2.19,12.66,6.16,15.69A4.71,4.71,0,0,0,73.1,29.57Z"/><path class="cls-6" d="M22.75,12.71c.55,2,3.77,6.43,6.34,4.57,1-.72,1-2.27.89-3.36a7.76,7.76,0,0,0-.44-2c-.36-.9-.37-.14.11.55,1.54,2.18,5.83,3.13,6.83.06.89-2.7-.71-7.37-3-9-.26-.2-.6.24-.35.45C34.9,5.33,35.7,7.84,36,10s-.48,4.4-3.1,3.9A6.28,6.28,0,0,1,29.19,11a.25.25,0,0,0-.43.25c.49,1.16,1.18,3.22.67,4.48a2.2,2.2,0,0,1-3.28.78,7.58,7.58,0,0,1-3-3.92c-.08-.22-.43-.14-.36.1Z"/><path class="cls-6" d="M57.53,13.39c.59,2.25,1.65,7.17,4.71,7.2,2.5,0,3.42-3.95,3.44-5.87a.28.28,0,0,0-.55-.07c-.64,1.62-.6,6-3.43,5.26-2.51-.68-2.74-4.74-3.84-6.65a.18.18,0,0,0-.33.13Z"/><path class="cls-6" d="M6.45,28.81c1,1.61,3.88,4.21,5.46,1.8,1.23-1.88.59-5.07-.1-7-.13-.36-.7-.21-.58.15a12.1,12.1,0,0,1,.67,5.06c-.12,1-.54,2.24-1.75,2.31-1.46.08-2.53-1.6-3.47-2.46-.12-.11-.33,0-.23.17Z"/><path class="cls-10" d="M22.36,130.53c-.13,8.62-.11,19.12.6,22.86,0,0,14.84.48,18-.58,0,0,.61-15.66.22-17.59,0,0,4.81.47,7.84-.59,0,0-.28,15.22.52,17.57,0,0,12.73-.3,17.42-1.34,0,0-.61-19.8-1.87-29.44A132.67,132.67,0,0,1,22.36,130.53Z"/><path class="cls-10" d="M64,116.46c-2-2.83-41.33,1.41-41.33,1.41s-.19,5.72-.29,12.66a132.67,132.67,0,0,0,42.75-9.11C64.77,118.89,64.4,117.05,64,116.46Z"/><path class="cls-11" d="M60.38,119.52a26.11,26.11,0,0,0,5.05,7.94"/><path class="cls-12" d="M60.2,119.57a14.38,14.38,0,0,0,1.88,4.08,15.56,15.56,0,0,0,3.11,4.06.35.35,0,0,0,.49-.5,28.41,28.41,0,0,1-3-3.93c-.77-1.24-1.28-2.69-2.15-3.86a.19.19,0,0,0-.35.15Z"/><path class="cls-11" d="M23,126.84c2.17-1.34,2.68-3.81,3.61-6.08"/><path class="cls-12" d="M23.11,127.09c2.15-1,3.44-4.13,3.71-6.33,0-.28-.34-.3-.47-.13a16.15,16.15,0,0,0-1.42,3.14,8.86,8.86,0,0,1-2.17,2.87c-.26.24.07.58.35.45Z"/><path class="cls-11" d="M34.82,134.5c6,.11,12.47.93,18.76.73"/><path class="cls-12" d="M34.82,134.1a.41.41,0,0,0,0,.81h0c6.18.3,12.71,1.6,18.87.73.52-.07.34-.8-.11-.85"/><path class="cls-11" d="M42.76,135c-.31-5.67-.42-11.34-.31-17.12"/><path class="cls-12" d="M43.06,135c.07-5.68,0-11.45-.21-17.12a.41.41,0,0,0-.81,0A95.06,95.06,0,0,0,42.45,135c0,.37.6.39.61,0Z"/><path class="cls-12" d="M44,135.31c6-1.38,3.66-12.11,3.27-16.3a.48.48,0,0,0-1,0c0,4,2.77,14-2.5,15.65a.34.34,0,0,0,.18.65Z"/><path class="cls-10" d="M24.3,145.64s-3-.69-3,.41-1.07,6.53,1.22,7.9,16.63.84,19,0c1.31-.45,1.24-3,1.24-4s-.41-4.44-.83-4.71-.74-.15-2.68.61C38.24,146.25,27.39,146.53,24.3,145.64Z"/><path class="cls-10" d="M64.53,145.64s3-.69,3,.41,1.06,6.53-1.22,7.9-15,.84-17.41,0c-1.31-.45-1.23-3-1.23-4s.41-4.44.82-4.71.74-.15,2.68.61C52.24,146.25,61.44,146.53,64.53,145.64Z"/><path class="cls-13" d="M60.94,96.06c-.8-3.46-1.38-5.92-1.38-5.92a43,43,0,0,0,4.06-4.3c-26.56,8.58-45,1.47-51.39-1.75-.46.88-.87,1.74-1.23,2.55,0,0,5.47,5.46,11.76,6.18,0,0-.13,2.44-.29,5.82C31.37,99.92,45.87,100.69,60.94,96.06Z"/><path class="cls-14" d="M63.62,85.84A19.22,19.22,0,0,0,65.54,83c.6-1.14.38-4-.16-7.31C42.72,84,25.55,80.79,16.19,77.46a61.63,61.63,0,0,0-4,6.63C18.59,87.31,37.06,94.42,63.62,85.84Z"/><path class="cls-14" d="M63.71,67.82c-.83-3.36-1.57-5.92-1.57-5.92S52,66.22,50.69,67.41L45,68.53s-7.39,4-13.18-.48c0,0-4.65-1.08-10,3a19.31,19.31,0,0,0-2.53,2.41C29.05,75.53,44.57,76.17,63.71,67.82Z"/><path class="cls-13" d="M65.38,75.72c-.44-2.6-1.08-5.46-1.67-7.9-19.14,8.35-34.66,7.71-44.41,5.66a38.72,38.72,0,0,0-3.11,4C25.55,80.79,42.72,84,65.38,75.72Z"/><path class="cls-14" d="M62.93,104.61c-.7-3-1.4-6-2-8.55-15.07,4.63-29.57,3.86-38.47,2.58-.13,2.62-.28,5.79-.42,8.86C31.1,108.9,46.77,109.93,62.93,104.61Z"/><path class="cls-14" d="M21.7,115.79c-.05,1.3-.08,2.29-.08,2.8,0,3.3,13.2,5.16,22.06,4.44s21.91-4.85,22.22-4.74a53.94,53.94,0,0,0-1.1-5.44C47.49,118.79,30.61,117.3,21.7,115.79Z"/><path class="cls-13" d="M64.8,112.85c-.53-2.38-1.2-5.3-1.87-8.24-16.16,5.32-31.83,4.29-40.88,2.89-.14,3.13-.27,6.13-.35,8.29C30.61,117.3,47.49,118.79,64.8,112.85Z"/><path class="cls-1" d="M30,66.79c-1.74-.23-4.42.53-7.14,2.22,0,0,1.92,7.84,1.55,12.65s-2.72,15.8-2.72,15.8a61.64,61.64,0,0,0-.47,9.75c5.62-6.78,9.7-11.56,10.62-24C32.28,77.32,30.78,70,30,66.79Z"/><path class="cls-2" d="M31.84,68.05A2,2,0,0,0,30,66.79c.78,3.24,2.28,10.53,1.84,16.45-.92,12.41-5,17.19-10.62,24a4.07,4.07,0,0,0,.47,1.8s8.8-7.59,11.07-19.12A43.74,43.74,0,0,0,31.84,68.05Z"/><path class="cls-1" d="M45.49,66.54c1.62-.68,4.41-.64,7.47.29,0,0,.19,8.06,1.81,12.61S61.51,94,61.51,94s.87,6,1.43,9.28C55.75,98.2,52.12,94.64,48,82.9,46,77.31,45.59,69.88,45.49,66.54Z"/><path class="cls-2" d="M44,68.24a2,2,0,0,1,1.45-1.7c.1,3.34.54,10.77,2.51,16.36,4.12,11.74,7.75,15.3,14.94,20.37a4,4,0,0,1,0,1.87A39,39,0,0,1,48.85,89.56,43.72,43.72,0,0,1,44,68.24Z"/><path class="cls-3" d="M33.1,90.59c-1.24-3.16-5.09-4.31-6.19-3.33s-3.29-.66-3.57,1a6.6,6.6,0,0,0,0,2.61S14.62,99.52,11.44,101c0,0,1.37-.09-4.4-4.08A43,43,0,0,0,4,105.3c-.69,4.4,2.44,9.34,6.72,8.52s11.42-6.19,18.43-15C29.11,98.84,34.34,93.75,33.1,90.59Z"/><path class="cls-4" d="M11.44,101c3.18-1.47,11.9-10.13,11.9-10.13l-1.65.69s-3.85-.27-10-4.29c0,0-2.48,4.82-4.64,9.65C12.81,100.9,11.44,101,11.44,101Z"/></g></g></svg>