<svg xmlns="http://www.w3.org/2000/svg" viewBox="0 0 81.75 113.95"><defs><style>.cls-1{fill:#733b34;}.cls-2{fill:#8f544a;}.cls-3{fill:#ed9c29;}.cls-4{fill:#3d1926;}.cls-5{fill:#ef80b1;}.cls-6{fill:#010101;}.cls-7{fill:#8f5051;}.cls-8{fill:#635ca5;}.cls-9{fill:#582938;}</style></defs><title>Ativo 1</title><g id="Camada_2" data-name="Camada 2"><g id="Camada_1-2" data-name="Camada 1"><path class="cls-1" d="M26.16,58.39,25,76.3c-4.36-3-10.9-11.09-16-20A25.45,25.45,0,0,0,26.16,58.39Z"/><path class="cls-2" d="M1.1,23c1.29-.25,2.75,4.78,3,5.58a.7.7,0,0,0,0,.11.7.7,0,0,1,0-.11c-.23-.85-1.72-6.47-.27-6.92s3.42,5.82,3.42,5.82-1.6-5.92,0-6.21S9.94,28,9.94,28s0-3.19,1.91-2.12-.92,7.27-.92,7.27.12,1,2.34,6.36,13,17.5,13,17.5l-.09,1.39A25.45,25.45,0,0,1,8.92,56.25,81.69,81.69,0,0,1,3.71,45.59C-1.19,33.11-.29,23.23,1.1,23Z"/><path class="cls-2" d="M56,57.81A4.74,4.74,0,0,0,56.59,59s-3.48,5.15-12.76,2.42a35.71,35.71,0,0,0-.6-4.57A49,49,0,0,1,56,57.81Z"/><path class="cls-1" d="M41.71,52.1l14-.45A14.08,14.08,0,0,0,56,57.81a49,49,0,0,0-12.75-.94A19.52,19.52,0,0,0,41.71,52.1Z"/><path class="cls-3" d="M79,74.81c-.44-.75-.94-1.54-1.48-2.35a59.5,59.5,0,0,0-4.61-6,38.86,38.86,0,0,0-3.48-3.53,19.33,19.33,0,0,0-2.74-2.07C61,57.44,56.62,59,56.62,59c-5.14,5-12.8,1.95-12.8,1.95l-5.66-.46c-1.44-1-11.79-4.08-11.79-4.08s-.43,2.58-.85,6c-.07.49-.13,1-.19,1.51A142.7,142.7,0,0,0,76.57,76.66C78.07,75.59,79,74.81,79,74.81Z"/><path class="cls-3" d="M25.33,63.89c-.14,1.25-.27,2.57-.38,3.88-.07.84-.14,1.69-.18,2.5-.16,3.26-.05,6.1.67,7.15a18.52,18.52,0,0,0,2.19,2.52,42.09,42.09,0,0,0,4.44,3.74s1.08,6.56,2.63,9c1.37,2.12,32.75,1.44,32.33-1.1-.34-2-1-5-1.39-7-.25-1.17-.43-2-.43-2,3.93-.92,8.58-3.92,11.36-5.91A142.7,142.7,0,0,1,25.33,63.89Z"/><path class="cls-4" d="M22,38.05S24,43.8,24.71,45.23c0,0-7.2,4.16-11.24,4.93a43.05,43.05,0,0,0,4.07,5.14,7.8,7.8,0,0,0,2.62-1.87c1-1.19-.8,4.38-.8,4.38a9,9,0,0,0,4.5,4c3.19,1.32,4.78-.83,4.78-.83s.05-8.58,1.1-12.82S25.63,37.55,22,38.05Z"/><path class="cls-5" d="M24.83,42.41s-2.3.66.62,4.24,5.7,3.72,6,1.9S24.83,42.41,24.83,42.41Z"/><path class="cls-4" d="M73.16,38.05s-2,5.75-2.69,7.18c0,0,7.2,4.16,11.24,4.93a43.05,43.05,0,0,1-4.07,5.14A7.8,7.8,0,0,1,75,53.43c-1-1.19.79,4.38.79,4.38a9,9,0,0,1-4.49,4c-3.2,1.32-4.78-.83-4.78-.83s-.06-8.58-1.1-12.82S69.55,37.55,73.16,38.05Z"/><path class="cls-5" d="M70.34,42.41s2.31.66-.61,4.24-5.7,3.72-6,1.9S70.34,42.41,70.34,42.41Z"/><path class="cls-2" d="M13.47,35.12c.48,3.25,3.86,6.41,10.44,4v-4.6A10.11,10.11,0,0,0,13.47,35.12Z"/><path class="cls-1" d="M15.39,30.51a4.44,4.44,0,0,0-1.92,4.61,10.11,10.11,0,0,1,10.44-.6V31.36S19.65,28.05,15.39,30.51Z"/><path class="cls-6" d="M16.66,34.15c1.74,0,4.05-.83,5.28.91.77,1.09.67,2.61.71,3.89A.19.19,0,0,0,23,39c0-1.46,0-3.29-1.1-4.4-1.36-1.36-3.63-.93-5.29-.52a.06.06,0,0,0,0,.12Z"/><path class="cls-6" d="M19.6,35.87a1.67,1.67,0,0,1,2.06.17,10.26,10.26,0,0,1,1,1.33c.16.19.41,0,.32-.25-.65-1.43-2.13-2.63-3.58-1.48-.14.11,0,.29.17.23Z"/><path class="cls-2" d="M81.69,35.12c-.48,3.25-3.86,6.41-10.44,4v-4.6A10.11,10.11,0,0,1,81.69,35.12Z"/><path class="cls-1" d="M79.77,30.51a4.44,4.44,0,0,1,1.92,4.61,10.11,10.11,0,0,0-10.44-.6V31.36S75.51,28.05,79.77,30.51Z"/><path class="cls-6" d="M78.52,34c-1.66-.41-3.93-.84-5.29.52-1.1,1.11-1.13,2.94-1.1,4.4a.19.19,0,0,0,.38,0c0-1.29-.05-2.78.71-3.89,1.21-1.76,3.56-.9,5.29-.91a.06.06,0,0,0,0-.12Z"/><path class="cls-6" d="M75.73,35.64c-1.45-1.15-2.93,0-3.58,1.48-.09.19.16.44.32.25a11.22,11.22,0,0,1,1-1.33,1.67,1.67,0,0,1,2.06-.17c.13.06.31-.12.17-.23Z"/><path class="cls-2" d="M23.23,29.72S23,38.64,25.12,43.06,34.45,52.4,44,53.28,66.37,51,69.28,44.07s4-11.73,3.15-18.8S71.17,15.05,64.61,11.9,22.34-7.21,23.23,29.72Z"/><path class="cls-6" d="M46.61,29.76a23.5,23.5,0,0,0-.48,2.39,2.66,2.66,0,0,0,0,1.65,1,1,0,0,0,.94.61,1.54,1.54,0,0,0,.58-.27c.1,0,.21-.19.32-.22q.52-.44.48.48c.38.48.28.8-.31.93-.27.11-.16.55.12.44a1.56,1.56,0,0,0,1.12-1.49,1,1,0,0,0-1.06-.93c-.38,0-.55.31-.88.44-1.32.54-1.05-1-.93-1.68s.61-1.72.24-2.37a.08.08,0,0,0-.15,0Z"/><path class="cls-7" d="M31,25.62a6.59,6.59,0,0,1,4.31-2.89c.23-.05.16-.38-.05-.4-1.66-.1-4.12,1.53-4.46,3.21,0,.12.12.18.2.08Z"/><path class="cls-7" d="M59.17,22.1c1.62.4,3.22.64,4.44,1.89.26.27.62-.12.4-.39a5.74,5.74,0,0,0-4.84-1.76.14.14,0,0,0,0,.26Z"/><path class="cls-1" d="M39.5,41.64a4.71,4.71,0,1,1-4.7-4.42A4.56,4.56,0,0,1,39.5,41.64Z"/><path class="cls-1" d="M65.21,41.64a4.71,4.71,0,1,1-4.7-4.42A4.57,4.57,0,0,1,65.21,41.64Z"/><path class="cls-6" d="M54.87,33.67c.2-1.74.93-4.73,3.1-4.91,2.74-.22,2.61,2.89,3.13,4.69.06.24.47.2.44-.06-.19-2.14-.75-5.37-3.6-5.07-2.37.24-3.39,3.34-3.37,5.35a.15.15,0,0,0,.3,0Z"/><path class="cls-6" d="M41.42,33.67c0-2-1-5.11-3.37-5.35-2.85-.3-3.41,2.94-3.61,5.07,0,.26.38.3.45.06.51-1.79.39-4.91,3.13-4.69,2.17.18,2.9,3.17,3.1,4.91a.15.15,0,0,0,.3,0Z"/><path class="cls-6" d="M44.47,38c-.31,2,2.17,2.89,3.76,3.13.23,0,.33-.29.1-.36A12.18,12.18,0,0,1,46,40a2.65,2.65,0,0,1-1.34-2c0-.11-.22-.12-.23,0Z"/><path class="cls-8" d="M51.65,114l.22,0Z"/><path class="cls-4" d="M30.74,9.51c.36-1.14.73-2.27,1.1-3.4C26.78,8,22.66,11.68,21.18,15.44,18.6,22,19.53,29.65,19.53,29.65a21.47,21.47,0,0,1,3.68,1.25c.71.4-.52-2.58.27-2.79,1.54-.42,3.13-.76,4.74-1A39.08,39.08,0,0,1,30.74,9.51Z"/><path class="cls-9" d="M35.56,5.14a20.13,20.13,0,0,0-3.72,1c-.37,1.13-.74,2.26-1.1,3.4a39.08,39.08,0,0,0-2.52,17.57A66.08,66.08,0,0,1,35,26.32,53.92,53.92,0,0,1,35.56,5.14Z"/><path class="cls-4" d="M48.28,5.77S52.13,0,49.9,0s-3.47,5.77-3.47,5.77-.76-4.78-3.2-4,.82,4.1.82,4.1a17.06,17.06,0,0,0-8.49-.71A53.92,53.92,0,0,0,35,26.32a95.36,95.36,0,0,1,15.52.29s-.22-8.43.77-6.57,1.33,6.79,1.33,6.79l6.61.22c.35-1.57,0-9.09,0-9.09C60.69,20.48,62,27.49,62,27.49c.87.2,2,.42,3.15.65C63.85,20.18,60.06,12.28,56,5A40.73,40.73,0,0,0,48.28,5.77Z"/><path class="cls-9" d="M56,5c4.09,7.25,7.88,15.15,9.17,23.11,2,.38,4.2.77,6,1.06a45.09,45.09,0,0,0-8.3-23.39A27.47,27.47,0,0,0,56,5Z"/><path class="cls-4" d="M71.25,12.81c-1.39-4-4.73-6-8.44-7a45.09,45.09,0,0,1,8.3,23.39l1.27.21c1.14.19-.29,1,.34,1.08a6.36,6.36,0,0,0,2-.71S75.13,24,71.25,12.81Z"/></g></g></svg>